<?xml version="1.0" encoding="UTF-8"?> <svg xmlns="http://www.w3.org/2000/svg" width="2371" height="1816" viewBox="0 0 2371 1816" fill="none"> <path d="M1964.98 1344.12C1896 1344.12 1855.09 1308.77 1851.96 1257.86H1917.92C1917.92 1274.83 1927.31 1297.42 1968.12 1298.82C1996.4 1298.82 2012.05 1281.86 2012.05 1269.1C2008.91 1249.32 1983.77 1247.92 1958.72 1243.6C1930.44 1239.49 1908.52 1233.76 1892.77 1226.73C1870.85 1215.39 1858.22 1191.28 1858.22 1165.88C1858.22 1120.59 1896 1085.24 1961.85 1085.24C2024.68 1085.24 2065.48 1117.78 2068.5 1167.29H2005.79C2005.79 1154.63 2002.66 1133.34 1964.98 1133.34C1939.83 1133.34 1924.18 1137.56 1921.05 1155.93C1921.05 1181.44 1974.37 1180.04 2015.18 1189.87C2052.85 1199.82 2078 1223.81 2078 1257.86C2078 1320.12 2027.81 1344.12 1964.98 1344.12ZM763.096 926.406L979.641 800.479L1095.79 1000.02H803.9" fill="black"></path> <path d="M1218.45 1336.61V1084.76Z" fill="black"></path> <path d="M1218.45 1336.61V1084.76" stroke="black" stroke-width="62.4"></path> <path d="M662.591 1214.41C662.591 1253.97 697.132 1286.51 734.696 1286.51C775.609 1286.51 806.914 1253.97 806.914 1214.41C806.914 1176.26 775.609 1142.31 734.696 1142.31C697.132 1142.31 662.591 1176.26 662.591 1214.41ZM731.569 1344.55C662.586 1344.55 603 1286.51 603 1214.41C603 1142.31 662.591 1085.68 731.569 1085.68C759.85 1085.68 785 1092.81 806.914 1108.27V1088.48H869.74V1338.82H806.919V1323.26C788.136 1337.42 759.85 1344.55 731.569 1344.55ZM1569.71 999.959L1268.43 473.778L1484.97 346.449L1861.6 999.959M951.349 1214.41C951.349 1253.97 982.767 1286.51 1023.57 1286.51C1061.13 1286.51 1095.78 1253.97 1095.78 1214.41C1095.78 1176.26 1061.13 1142.31 1023.57 1142.31C982.762 1142.31 951.349 1176.26 951.349 1214.41ZM1020.43 1344.55C948.217 1344.55 891.763 1286.51 891.763 1214.41C891.763 1142.31 948.217 1085.68 1020.43 1085.68C1048.61 1085.68 1073.76 1092.81 1095.78 1108.27V1002.23H1158.5V1338.82H1095.78V1323.26C1073.76 1337.42 1048.61 1344.55 1020.43 1344.55ZM1017.34 701.508L1237.01 577.097L1478.71 999.944H1249.54V1062.2H1186.82V999.944M2037.3 1064.16C2021.55 1064.16 2005.9 1050 2005.9 1033.03C2005.9 1016.06 2021.55 1001.9 2037.3 1001.9C2056.09 1001.9 2068.72 1016.07 2068.72 1033.03C2068.72 1050 2056.09 1064.16 2037.3 1064.16ZM2037.3 1006.23C2021.55 1006.23 2012.15 1018.87 2012.15 1033.03C2012.15 1047.19 2021.55 1059.95 2037.3 1059.95C2052.96 1059.95 2062.35 1047.2 2062.35 1033.03C2062.35 1018.87 2052.96 1006.23 2037.3 1006.23Z" fill="black"></path> <path d="M2043.78 1050.11L2037.52 1035.95H2031.26V1050.11H2026.51V1016.17H2040.65C2043.78 1016.17 2050.04 1020.5 2050.04 1026.12C2050.04 1031.73 2046.91 1034.55 2043.78 1035.95L2050.04 1050.11M2037.52 1020.5H2031.26V1031.74H2037.52C2043.78 1031.74 2043.78 1030.34 2043.78 1026.12C2043.78 1023.2 2043.78 1020.5 2037.52 1020.5ZM1622.78 1214.41C1622.78 1253.97 1654.2 1286.51 1695 1286.51C1732.68 1286.51 1767.11 1253.97 1767.11 1214.41C1767.11 1176.26 1732.68 1142.31 1695 1142.31C1654.2 1142.31 1622.78 1176.26 1622.78 1214.41ZM1691.77 1344.55C1619.66 1344.55 1563.2 1286.51 1563.2 1214.41C1563.2 1142.31 1619.66 1085.68 1691.76 1085.68C1720.05 1085.68 1745.2 1092.81 1767.11 1108.27V1088.48H1826.81V1338.82H1767.12V1323.26C1745.2 1337.42 1720.05 1344.55 1691.77 1344.55ZM1334.24 1214.41C1334.24 1253.97 1368.78 1286.51 1406.46 1286.51C1447.27 1286.51 1478.67 1253.97 1478.67 1214.41C1478.67 1176.26 1447.26 1142.31 1406.46 1142.31C1368.78 1142.31 1334.24 1176.26 1334.24 1214.41ZM1478.67 1002.23H1541.39V1338.82H1478.67V1323.26C1459.78 1337.42 1434.63 1344.55 1406.46 1344.55C1334.24 1344.55 1274.65 1286.51 1274.65 1214.41C1274.65 1142.31 1334.24 1085.68 1406.46 1085.68C1434.63 1085.68 1459.78 1092.81 1478.67 1108.27V1002.23Z" fill="black"></path> </svg> 