<?xml version="1.0" encoding="utf-8"?>
<!-- Generator: Adobe Illustrator 29.8.2, SVG Export Plug-In . SVG Version: 9.03 Build 0)  -->
<!DOCTYPE svg PUBLIC "-//W3C//DTD SVG 1.1//EN" "http://www.w3.org/Graphics/SVG/1.1/DTD/svg11.dtd" [
	<!ENTITY ns_extend "http://ns.adobe.com/Extensibility/1.0/">
	<!ENTITY ns_ai "http://ns.adobe.com/AdobeIllustrator/10.0/">
	<!ENTITY ns_graphs "http://ns.adobe.com/Graphs/1.0/">
	<!ENTITY ns_vars "http://ns.adobe.com/Variables/1.0/">
	<!ENTITY ns_imrep "http://ns.adobe.com/ImageReplacement/1.0/">
	<!ENTITY ns_sfw "http://ns.adobe.com/SaveForWeb/1.0/">
	<!ENTITY ns_custom "http://ns.adobe.com/GenericCustomNamespace/1.0/">
	<!ENTITY ns_adobe_xpath "http://ns.adobe.com/XPath/1.0/">
]>
<svg version="1.1" id="Layer_1" xmlns:x="&ns_extend;" xmlns:i="&ns_ai;" xmlns:graph="&ns_graphs;"
	 xmlns="http://www.w3.org/2000/svg" xmlns:xlink="http://www.w3.org/1999/xlink" x="0px" y="0px" viewBox="0 0 333.4 357.3"
	 style="enable-background:new 0 0 333.4 357.3;" xml:space="preserve">
<style type="text/css">
	.st0{fill:#FD632B;}
	.st1{fill:#FFFFFF;}
	.st2{fill:#EF3340;}
	.st3{fill:#FFD100;}
</style>
<metadata><?xpacket begin="﻿" id="W5M0MpCehiHzreSzNTczkc9d"?>
<x:xmpmeta xmlns:x="adobe:ns:meta/" x:xmptk="Adobe XMP Core 9.1-c003 1.000000, 0000/00/00-00:00:00        ">
   <rdf:RDF xmlns:rdf="http://www.w3.org/1999/02/22-rdf-syntax-ns#">
      <rdf:Description rdf:about=""/>
   </rdf:RDF>
</x:xmpmeta>
                                                                                                    
                                                                                                    
                                                                                                    
                                                                                                    
                                                                                                    
                                                                                                    
                                                                                                    
                                                                                                    
                                                                                                    
                                                                                                    
                                                                                                    
                                                                                                    
                                                                                                    
                                                                                                    
                                                                                                    
                                                                                                    
                                                                                                    
                                                                                                    
                                                                                                    
                                                                                                    
                                                                                                    
                                                                                                    
                                                                                                    
                                                                                                    
                                                                                                    
                                                                                                    
                                                                                                    
                                                                                                    
                                                                                                    
                                                                                                    
                                                                                                    
                                                                                                    
                                                                                                    
                                                                                                    
                                                                                                    
                                                                                                    
                                                                                                    
                                                                                                    
                                                                                                    
                                                                                                    
                                                                                                    
                                                                                                    
                                                                                                    
                                                                                                    
                                                                                                    
                                                                                                    
                                                                                                    
                                                                                                    
                                                                                                    
                                                                                                    
                                                                                                    
                                                                                                    
                                                                                                    
                                                                                                    
                                                                                                    
                                                                                                    
                                                                                                    
                                                                                                    
                                                                                                    
                                                                                                    
                                                                                                    
                                                                                                    
                                                                                                    
                                                                                                    
                                                                                                    
                                                                                                    
                                                                                                    
                                                                                                    
                                                                                                    
                                                                                                    
                                                                                                    
                                                                                                    
                                                                                                    
                                                                                                    
                                                                                                    
                                                                                                    
                                                                                                    
                                                                                                    
                                                                                                    
                                                                                                    
                                                                                                    
                                                                                                    
                                                                                                    
                                                                                                    
                                                                                                    
                                                                                                    
                                                                                                    
                                                                                                    
                                                                                                    
                                                                                                    
                                                                                                    
                                                                                                    
                                                                                                    
                                                                                                    
                                                                                                    
                                                                                                    
                                                                                                    
                                                                                                    
                                                                                                    
                                                                                                    
                                                                                                    
                                                                                                    
                                                                                                    
                                                                                                    
                                                                                                    
                                                                                                    
                                                                                                    
                                                                                                    
                                                                                                    
                                                                                                    
                                                                                                    
                                                                                                    
                                                                                                    
                                                                                                    
                                                                                                    
                                                                                                    
                                                                                                    
                                                                                                    
                                                                                                    
                            
<?xpacket end="w"?>
	</metadata>
<g>
	<path d="M304.4,202.6l0.1,6.6c0,0-0.8,0.2-1.1,0.3c-0.2-2.9-0.9-5.3-5.5-5.3h-6.2v12.2h5.3c2.6,0,3.3-1.5,3.6-4h1.1v10.2h-1.1
		c-0.2-2.4-0.7-4.3-3.6-4.3h-5.4v10.7c0,3.1,2.7,3.1,5.5,3.1c5.1,0,7.5-0.3,8.9-5.5c0.2,0.1,1.1,0.2,1.1,0.2l-1.4,6.9h-23.2v-1.1
		h0.4c1.8,0,3.4-0.3,3.4-2.8v-23.5c0-2.4-1.7-2.8-3.4-2.8h-0.4v-1.1L304.4,202.6L304.4,202.6z"/>
	<path d="M177.7,202.6c6.9,0,10.4,2.6,10.4,7.8c0,4.4-3.5,6.7-6.2,7.8l-0.2,0.1l7.7,11.7c1.2,1.9,2.2,2.6,4.3,2.7v1.2h-8l-9.3-14.7
		h-3.4v9.7c0,3.5,1.6,3.8,3.8,3.8h0.6v1.1h-13.6v-1.1h0.6c1.5,0,3.3-0.7,3.3-2.6v-22.8c0-3.6-2.1-3.6-3.3-3.6h-0.6v-1.1L177.7,202.6
		L177.7,202.6z M172.9,204.1V218h2.7c4.9,0,7-2.2,7-7.3c0-4.1-2.7-6.8-6.7-6.8C175,203.9,173.8,204,172.9,204.1z"/>
	<path d="M208.7,202.6v1.1h-0.4c-1.8,0-3.4,0.3-3.4,2.8V230c0,2.4,1.7,2.8,3.4,2.8h0.4v1.1h-13.1v-1.1h0.4c1.8,0,3.4-0.3,3.4-2.8
		v-23.5c0-2.4-1.6-2.8-3.4-2.8h-0.4v-1.1C195.6,202.6,208.7,202.6,208.7,202.6z"/>
	<path d="M29.6,218.3c0-4.7,1.9-9.2,5.1-12.1c3-2.7,7-4.2,11.5-4.2c4,0,7.3,0.7,10.6,2.2l0.3,7.2l-1,0.1c-1.2-4.2-3.1-8.1-9.8-8.1
		s-11.1,5.4-11.1,14.1c0,7.7,3.4,15,11.7,15c4.7,0,8-1.7,10.5-5l0.8,1.5c-2.8,3.7-7.2,5.6-12.2,5.6C36,234.8,29.5,228.8,29.6,218.3
		L29.6,218.3z"/>
	<path d="M97.1,208.7l-1,19.3c-0.2,4.3,1.1,4.7,4,4.8h0.3v1.1H89.8v-1.1h0.4c3.6-0.1,3.8-2.1,3.9-5l1.2-19.8
		c0.2-2.7-1.3-4.2-3.8-4.2h-0.4v-1.1h8.9c0.1,0.3,10.6,23.7,10.6,23.7s10-23.5,10.1-23.7h8.7v1.2h-0.2c-3.5,0-4.1,1.1-3.9,5.5
		l1.2,20.8c0.2,2.4,1.5,2.7,3.9,2.7v1.1h-13v-1.1h0.1c2.1-0.1,3.6-0.2,3.6-2.3l-0.1-2.2l-0.9-20c0,0-10.7,25.7-10.8,26h-0.9
		C108.3,233.9,97.1,208.7,97.1,208.7"/>
	<path d="M213.6,233.9v-1.2h0.4c1.8,0,3.4-0.3,3.4-2.8v-23.5c0-2.4-1.7-2.8-3.4-2.8h-0.4v-1.1h14c5.2,0,9.6,1.3,12.6,4.1
		c3,2.8,4.6,6.7,4.6,11.4c0,4.4-1.7,8.6-4.8,11.7c-3.1,3-7.3,4.1-11.7,4.1L213.6,233.9L213.6,233.9z M222.8,204.1v24.6
		c0,3.3,1.4,3.9,4.8,3.9c7.9,0,11.5-6.8,11.5-13.5c0-10.4-4.3-15.1-13.1-15.1C225.2,204,223.5,204.1,222.8,204.1L222.8,204.1z"/>
	<path d="M271.4,232.3v-7.7c0-1.7-1.2-2.6-3.5-2.6h-0.4V221h12v1.1h-0.4c-1.7,0-2.6,0.9-2.6,2.6v8.5c-2.9,0.9-6.7,1.7-11,1.7
		c-10.3,0-17-6.7-17-17.1c0-11,8.8-16.1,17.1-16.1c3.7,0,7.5,0.7,10,1.6l0.5,7.5l-1.1,0.1c-1.3-5.4-3.7-7.5-9.1-7.5
		c-7.3,0-11.7,5.4-11.7,14c0,7.9,3.7,15.8,12,15.8C268.3,233.1,270.3,232.8,271.4,232.3"/>
	<path d="M144.1,217.7v11c0,3.1,1,3.9,4.2,3.9c3.8,0,6.7-3.1,6.7-7.4c0-4.8-2.9-7.5-7.8-7.5C147.1,217.7,144.1,217.7,144.1,217.7z
		 M144.1,203.8v12.6h2.3c4.3,0,6.7-2.1,6.7-6.1c0-4.4-2.1-6.5-6.2-6.5C146.9,203.8,144.1,203.8,144.1,203.8z M150.5,216.9
		c3.9,0.3,6,1.2,7.8,3c1.4,1.4,2.1,3.2,2.1,5.2c0,4.9-4.5,8.8-10.4,8.8h-15.3v-1.1h0.6c1.5,0,3.3-0.7,3.3-2.7v-22.7
		c0-3.6-2.1-3.6-3.3-3.6h-0.6v-1.1h13.9c6.5,0,10.1,2.4,10.1,6.8C158.7,214.5,154.3,216.3,150.5,216.9"/>
	<path d="M72.2,202.6l-9.9,27c-0.7,1.9-2,3.1-4,3.1h-0.1v1.2h9.5v-1.2h-0.4c-2.3,0-3.9-0.7-2.9-3.7l2.3-6.3h9.9l2.5,6.9
		c0.7,2.2-0.2,3.2-2.6,3.2h-0.3v1.2h12.1v-1.2h-0.1c-1.6,0-2.7-0.8-3.5-3l-10.2-27.2C74.5,202.6,72.2,202.6,72.2,202.6z M71.6,209
		l4.4,12.2h-8.8C67.2,221.2,71.6,209,71.6,209z"/>
</g>
<rect x="167.8" y="110.7" transform="matrix(-1.836970e-16 1 -1 -1.836970e-16 429.0138 92.2962)" class="st0" width="1.1" height="300"/>
<g>
	<path d="M168.3,171l-1.2-0.6c-1.7-0.8-28.1-14-29.7-14.8c-8.6-4.7-26.4-14.4-26.4-48.3V38.1h114.5v69.1c0,34-17.8,43.7-26.4,48.3
		c-1.6,0.9-28.2,14.1-29.7,14.8L168.3,171L168.3,171z"/>
	<path class="st1" d="M180,84.7v-44h-23.3v44h-43.1v22.6l0,0c0,0.2,0,0.5,0,0.7h43.1v54.5c6.2,3.1,11.6,5.8,11.6,5.8l0,0l0,0
		c0,0,5.4-2.7,11.6-5.8v-54.5h43.1c0-0.2,0-0.5,0-0.7V84.7L180,84.7L180,84.7z"/>
	<g>
		<rect x="113.6" y="40.6" class="st2" width="43.1" height="44"/>
		<rect x="180" y="40.6" class="st2" width="43.1" height="44"/>
		<path class="st2" d="M156.7,107.9h-43.1c0.2,31.6,16.4,40.7,25.1,45.4c0.9,0.5,10.1,5.1,18,9V107.9L156.7,107.9z"/>
		<path class="st2" d="M180,107.9v54.5c7.9-3.9,17.1-8.5,18-9c8.7-4.7,24.9-13.9,25.1-45.4L180,107.9L180,107.9z"/>
	</g>
	<g>
		<path d="M194.8,96.7l0.9-1.1l-1.1-1.4l-1.1,1.4l0.9,1.1c0,0.5,0,5.2-2.7,6.9c0,0,0.9,0.2,2.2-0.1c0,0,0.2,1.2,0.8,2.6
			c0.6-1.4,0.8-2.6,0.8-2.6c1.2,0.2,2.2,0.1,2.2,0.1C194.8,101.8,194.8,97.2,194.8,96.7z"/>
		<path d="M201.9,88.7l0.9-1.1l-1.1-1.4l-1.1,1.4l0.9,1.1c0,0.5,0,5.2-2.7,6.9c0,0,0.9,0.2,2.2-0.1c0,0,0.2,1.2,0.8,2.6
			c0.6-1.4,0.8-2.6,0.8-2.6c1.2,0.2,2.2,0.1,2.2,0.1C201.8,93.9,201.9,89.2,201.9,88.7z"/>
		<path d="M208.9,96.7l0.9-1.1l-1.1-1.4l-1.1,1.4l0.9,1.1c0,0.5,0,5.2-2.7,6.9c0,0,0.9,0.2,2.2-0.1c0,0,0.2,1.2,0.8,2.6
			c0.6-1.4,0.8-2.6,0.8-2.6c1.2,0.2,2.2,0.1,2.2,0.1C208.8,101.8,208.9,97.2,208.9,96.7z"/>
		<path d="M215.9,88.7l0.9-1.1l-1.1-1.4l-1.1,1.4l0.9,1.1c0,0.5,0,5.2-2.7,6.9c0,0,0.9,0.2,2.2-0.1c0,0,0.2,1.2,0.8,2.6
			c0.6-1.4,0.8-2.6,0.8-2.6c1.2,0.2,2.2,0.1,2.2,0.1C215.9,93.9,215.9,89.2,215.9,88.7z"/>
		<path d="M187.8,88.7l0.9-1.1l-1.1-1.4l-1.1,1.4l0.9,1.1c0,0.5,0,5.2-2.7,6.9c0,0,0.9,0.2,2.2-0.1c0,0,0.2,1.2,0.8,2.6
			c0.6-1.4,0.8-2.6,0.8-2.6c1.2,0.2,2.2,0.1,2.2,0.1C187.8,93.9,187.8,89.2,187.8,88.7z"/>
	</g>
	<g>
		<path d="M128.3,96.7l0.9-1.1l-1.1-1.4l-1.1,1.4l0.9,1.1c0,0.5,0,5.2-2.7,6.9c0,0,0.9,0.2,2.2-0.1c0,0,0.2,1.2,0.8,2.6
			c0.6-1.4,0.8-2.6,0.8-2.6c1.2,0.2,2.2,0.1,2.2,0.1C128.3,101.8,128.3,97.2,128.3,96.7z"/>
		<path d="M135.3,88.7l0.9-1.1l-1.1-1.4l-1.1,1.4l0.9,1.1c0,0.5,0,5.2-2.7,6.9c0,0,0.9,0.2,2.2-0.1c0,0,0.2,1.2,0.8,2.6
			c0.6-1.4,0.8-2.6,0.8-2.6c1.2,0.2,2.2,0.1,2.2,0.1C135.3,93.9,135.3,89.2,135.3,88.7z"/>
		<path d="M142.3,96.7l0.9-1.1l-1.1-1.4l-1.1,1.4l0.9,1.1c0,0.5,0,5.2-2.7,6.9c0,0,0.9,0.2,2.2-0.1c0,0,0.2,1.2,0.8,2.6
			c0.6-1.4,0.8-2.6,0.8-2.6c1.2,0.2,2.2,0.1,2.2,0.1C142.3,101.8,142.3,97.2,142.3,96.7z"/>
		<path d="M149.4,88.7l0.9-1.1l-1.1-1.4l-1.1,1.4l0.9,1.1c0,0.5,0,5.2-2.7,6.9c0,0,0.9,0.2,2.2-0.1c0,0,0.2,1.2,0.8,2.6
			c0.6-1.4,0.8-2.6,0.8-2.6c1.2,0.2,2.2,0.1,2.2,0.1C149.3,93.9,149.4,89.2,149.4,88.7z"/>
		<path d="M121.3,88.7l0.9-1.1l-1.1-1.4l-1.1,1.4l0.9,1.1c0,0.5,0,5.2-2.7,6.9c0,0,0.9,0.2,2.2-0.1c0,0,0.2,1.2,0.8,2.6
			c0.6-1.4,0.8-2.6,0.8-2.6c1.2,0.2,2.2,0.1,2.2,0.1C121.3,93.9,121.3,89.2,121.3,88.7z"/>
	</g>
	<g>
		<path d="M168.7,114.5l0.9-1.1l-1.1-1.4l-1.1,1.4l0.9,1.1c0,0.5,0,5.2-2.7,6.9c0,0,0.9,0.2,2.2-0.1c0,0,0.2,1.2,0.8,2.6
			c0.6-1.4,0.8-2.6,0.8-2.6c1.2,0.2,2.2,0.1,2.2,0.1C168.6,119.7,168.7,115,168.7,114.5z"/>
		<path d="M168.7,138.3l0.9-1.1l-1.1-1.4l-1.1,1.4l0.9,1.1c0,0.5,0,5.2-2.7,6.9c0,0,0.9,0.2,2.2-0.1c0,0,0.2,1.2,0.8,2.6
			c0.6-1.4,0.8-2.6,0.8-2.6c1.2,0.2,2.2,0.1,2.2,0.1C168.6,143.5,168.7,138.9,168.7,138.3z"/>
		<g>
			<path d="M175.2,126.4l0.9-1.1l-1.1-1.4l-1.1,1.4l0.9,1.1c0,0.5,0,5.2-2.7,6.9c0,0,0.9,0.2,2.2-0.1c0,0,0.2,1.2,0.8,2.6
				c0.6-1.4,0.8-2.6,0.8-2.6c1.2,0.2,2.2,0.1,2.2,0.1C175.1,131.6,175.2,126.9,175.2,126.4z"/>
			<path d="M162,126.4l0.9-1.1l-1.1-1.4l-1.1,1.4l0.9,1.1c0,0.5,0,5.2-2.7,6.9c0,0,0.9,0.2,2.2-0.1c0,0,0.2,1.2,0.8,2.6
				c0.6-1.4,0.8-2.6,0.8-2.6c1.2,0.2,2.2,0.1,2.2,0.1C162,131.6,162,126.9,162,126.4z"/>
		</g>
	</g>
	<g>
		<path d="M175.2,150.3l0.9-1.1l-1.1-1.4l-1.1,1.4l0.9,1.1c0,0.5,0,5.2-2.7,6.9c0,0,0.9,0.2,2.2-0.1c0,0,0.2,1.2,0.8,2.6
			c0.6-1.4,0.8-2.6,0.8-2.6c1.2,0.2,2.2,0.1,2.2,0.1C175.1,155.5,175.2,150.8,175.2,150.3z"/>
		<path d="M162,150.3l0.9-1.1l-1.1-1.4l-1.1,1.4l0.9,1.1c0,0.5,0,5.2-2.7,6.9c0,0,0.9,0.2,2.2-0.1c0,0,0.2,1.2,0.8,2.6
			c0.6-1.4,0.8-2.6,0.8-2.6c1.2,0.2,2.2,0.1,2.2,0.1C162,155.5,162,150.8,162,150.3z"/>
	</g>
	<g>
		<path d="M168.7,60.2l0.9-1.1l-1.1-1.4l-1.1,1.4l0.9,1.1c0,0.5,0,5.2-2.7,6.9c0,0,0.9,0.2,2.2-0.1c0,0,0.2,1.2,0.8,2.6
			c0.6-1.4,0.8-2.6,0.8-2.6c1.2,0.2,2.2,0.1,2.2,0.1C168.6,65.4,168.7,60.7,168.7,60.2z"/>
		<g>
			<path d="M175.2,48.3l0.9-1.1l-1.1-1.4l-1.1,1.4l0.9,1.1c0,0.5,0,5.2-2.7,6.9c0,0,0.9,0.2,2.2-0.1c0,0,0.2,1.2,0.8,2.6
				c0.6-1.4,0.8-2.6,0.8-2.6c1.2,0.2,2.2,0.1,2.2,0.1C175.1,53.4,175.2,48.8,175.2,48.3z"/>
			<path d="M162,48.3l0.9-1.1l-1.1-1.4l-1.1,1.4l0.9,1.1c0,0.5,0,5.2-2.7,6.9c0,0,0.9,0.2,2.2-0.1c0,0,0.2,1.2,0.8,2.6
				c0.6-1.4,0.8-2.6,0.8-2.6c1.2,0.2,2.2,0.1,2.2,0.1C162,53.4,162,48.8,162,48.3z"/>
		</g>
		<g>
			<path d="M175.2,72.1l0.9-1.1l-1.1-1.4l-1.1,1.4l0.9,1.1c0,0.5,0,5.2-2.7,6.9c0,0,0.9,0.2,2.2-0.1c0,0,0.2,1.2,0.8,2.6
				c0.6-1.4,0.8-2.6,0.8-2.6c1.2,0.2,2.2,0.1,2.2,0.1C175.1,77.3,175.2,72.7,175.2,72.1z"/>
			<path d="M162,72.1l0.9-1.1l-1.1-1.4l-1.1,1.4l0.9,1.1c0,0.5,0,5.2-2.7,6.9c0,0,0.9,0.2,2.2-0.1c0,0,0.2,1.2,0.8,2.6
				c0.6-1.4,0.8-2.6,0.8-2.6c1.2,0.2,2.2,0.1,2.2,0.1C162,77.3,162,72.7,162,72.1z"/>
		</g>
	</g>
	<g>
		<path d="M147.4,62.4l0.2,0.6c0.1,0.5,0.2,0.9,0.3,1.2c0.5,2.1,0.8,2.6,1.9,2.6c0.6,0,1.1-0.3,1.2-0.8l0.2-0.7c0,0,0.2-0.3,0.4-0.3
			c0.4,0,0.6,0.4,0.6,1.3c0,0.3,0.1,0.9,0.2,1.8c0.1,0.6,0.2,1.1,0.2,1.6c0,0.5,0,0.7-0.2,1.2c0.1,0.7,0.2,1.7,0.2,2.2
			c0,0.9-0.2,1.8-0.4,2.2c0.2,0.6,0.2,0.8,0.2,1.4c0,0.4,0,0.8-0.1,1.2c-0.2,0.9-0.2,1.1-0.2,1.3s0,0.3,0.1,0.5
			c0.1,0.2,0.1,0.4,0.1,0.4c0,0.1,0,0.2-0.1,0.2l-0.7-0.3l-0.8-0.4c-0.2-0.2-0.4-0.3-0.8-0.6c-0.7,0.6-0.9,0.7-2.8,1.2
			c-0.4,0.1-0.6,0.2-0.8,0.3c-0.2,0.2-0.4,0.2-0.5,0.2c-0.3,0-0.5-0.5-0.5-1.6c0-0.8,0.1-1.5,0.2-2c-0.6-0.2-1-0.3-1.3-0.3
			c0,0-0.2,0-0.6,0.1h-0.1c0,0-0.2-0.2-0.2-0.3c0-0.2,0.1-0.5,0.2-0.8l0.4-0.9c0.1-0.3,0.4-0.7,0.9-1.1c0.4-0.3,0.7-0.5,1-0.6
			l1.3-0.2c0.8-0.2,1.2-0.6,1.2-1.1s-0.4-0.9-1.2-1.2l-1.6-0.6c-0.4-0.2-0.9-0.4-1.4-0.7c-0.9-0.5-1-0.6-1.2-0.6
			c-0.3,0-0.5,0.2-0.5,0.6c0,0.6,0.4,1.1,1,1.1c0.1,0,0.2,0,0.4-0.1c0.2-0.1,0.3-0.1,0.4-0.1c0.2,0,0.2,0.1,0.2,0.3v0.2l-0.1,0.6
			c-0.1,0.5-0.4,1.2-1.2,2.2l-0.3,0.4c-0.3,1.2-1,2.2-2,2.9c-0.2,0.2-0.4,0.2-0.4,0.3c0,0-0.1,0.2-0.3,0.5c-0.1,0.2-0.3,0.4-0.7,0.9
			c-0.3,0.3-0.6,0.6-0.9,0.8c-0.4,0.3-0.6,0.5-0.7,0.7l-0.4,0.6c0,0-0.2,0.2-0.3,0.2c-0.3,0-0.6-0.3-0.8-0.9
			c-0.1-0.4-0.2-0.6-0.5-0.6c-0.2,0-0.4,0-0.6,0.1l-0.5,0.1h-1.3c-0.6,0-1.6,0.2-2,0.4c-0.2,0.1-0.3,0.1-0.4,0.1s-0.2,0-0.2-0.2
			c-0.1-0.1-0.1-0.2-0.1-0.3c0-0.7,0.5-1.9,1.1-2.9c0.4-0.6,0.5-0.8,1-1.2c-0.2-0.6-0.6-1.1-1-1.2l-0.6-0.2c0,0-0.2-0.1-0.2-0.2
			c0-0.2,0.3-0.4,0.8-0.7c0.7-0.4,1.4-0.6,2-0.6c0.6,0,1.2,0.2,1.9,0.8c1,0.8,1.3,0.9,1.8,0.9c0.8,0,1.5-0.7,1.5-1.5
			c0-0.5-0.3-1-1-2c-1-1.3-1.3-2-1.3-3c0-0.6,0.2-1.4,0.4-1.7l0.4-0.6c0,0,0.1-0.2,0.1-0.4c0-0.2-0.3-0.4-0.7-0.4
			c-0.6,0-1.7,0.4-2.6,1c-0.4,0.3-0.7,0.6-0.7,0.8c0,0.1,0,0.2,0.2,0.3l0.4,0.2c0,0,0.1,0.1,0.1,0.2c0,0-0.1,0.2-0.2,0.3l-0.7,1
			c-0.4,0.5-1,1.1-1.5,1.6c-0.2,0.2-0.3,0.3-0.4,0.4c0,0-0.1,0.2-0.3,0.6c-0.3,0.5-1,1.2-1.6,1.6c-0.3,0.2-0.4,0.3-0.5,0.4
			c0,0.1-0.2,0.2-0.3,0.5c-0.1,0.2-0.2,0.4-0.5,0.8c-0.4,0.5-0.6,0.9-0.9,1.1l-1,1c-0.3,0.3-0.6,0.9-1,2.3c-0.2,0.8-0.5,1.3-0.6,1.3
			c-0.1,0-0.2-0.1-0.3-0.2c-0.7-0.8-1.4-1.3-1.7-1.3c-0.1,0-0.2,0.1-0.4,0.2c-0.3,0.2-0.6,0.3-1,0.4l-1.4,0.2c-1,0.2-1.4,0.4-2,1.1
			c-0.2,0.2-0.2,0.2-0.3,0.2c-0.1,0-0.2-0.2-0.2-0.4v-0.4l0.2-1c0.2-1,0.4-1.8,0.7-2.4l0.6-1.1c0.1-0.2,0.2-0.4,0.2-0.6
			c0-0.8-0.9-1.6-2-1.7c-0.3,0-0.4-0.1-0.4-0.2c0-0.2,0.3-0.6,0.7-0.8c0.7-0.6,1.7-1,2.3-1c0.4,0,1,0.2,1.6,0.4l0.8,0.3
			c0.3,0.1,0.6,0.2,0.8,0.2c0.8,0,1.7-0.8,2.7-2.5c0.5-0.8,0.7-1.4,0.7-1.9c0-0.9-0.4-1.5-1.2-1.5c-0.6,0-1.2,0.3-1.6,0.7
			c-0.4,0.4-0.6,0.8-0.6,1.1v0.4v0.1c0,0.4-0.1,0.5-0.3,0.5c-0.4,0-0.8-0.5-2.3-2.2c-1.1-1.3-1.3-1.8-1.4-3.1
			c-1.2-1.6-1.6-2.2-1.6-3.4v-0.8c-0.8-1-1-1.6-1-2.6c0-0.4,0-0.6,0.2-1c-0.4-0.6-0.6-0.9-0.7-1.4l-0.2-0.8c-0.1-0.5-0.3-1-0.6-1.4
			c-0.3-0.5-0.4-0.5-0.4-0.7c0-0.4,0.3-0.6,1.6-0.9c0-0.4-0.1-0.6-0.1-0.8c0-0.2,0-0.4,0.1-0.9l0.2-1.4c0.1-0.6,0.2-0.9,0.2-1.2
			s0-0.4-0.3-1.2c-0.1-0.4-0.2-0.7-0.3-0.8c-0.1-0.2-0.2-0.4-0.2-0.5c0-0.1,0.1-0.2,0.2-0.2c0.4,0,1.3,0.6,2.3,1.4
			c2.1,1.8,2.5,2.4,2.8,4.5c0,0.2,0,0.4,0.1,0.7c1,0.8,1.6,1.6,1.6,2.6c0,0.8-0.3,1.6-0.7,2.4l-0.7,1.1c-0.2,0.3-0.3,0.8-0.3,1.2
			c0,0.7,0.2,1.3,0.7,2.2c0.6,1,1,1.4,1.6,1.4c1,0,1.8-1.7,1.8-3.6v-0.9c0-0.4,0-0.8,0.1-1.2c0.1-0.6,0.1-0.9,0.1-1.1v-0.9l0-0.6
			c0-0.2-0.1-0.4-0.4-0.7l-0.8-0.9c-1.2-1.3-1.8-2.5-1.8-3.3c0-1.1,0.8-2,1.9-2c0.2,0,0.4,0,0.8,0.2v-0.2c0-1.6,0.3-2.8,0.8-2.8h0.2
			l0.7,0.6l0.8,0.5l0.2,0.2c0-0.4,0-0.5,0.5-1c0.1-0.1,0.3-0.4,0.5-0.7c0.2-0.3,0.3-0.4,0.4-0.6c0-0.1,0.1-0.2,0.2-0.3
			c0.1-0.2,0.2-0.3,0.3-0.3s0.2,0.1,0.3,0.5c0.1,0.2,0.2,0.3,0.8,0.9c0.2,0.2,0.4,0.4,0.4,0.5c0.1,0.1,0.2,0.4,0.3,0.7
			c0,0.1,0,0.2,0.1,0.3c0.3-0.4,0.4-0.5,0.7-0.7l0.6-0.3c0.2-0.1,0.4-0.2,0.4-0.2c0,0,0.1,0.1,0.2,0.2c0,0.1,0.2,0.3,0.3,0.6
			c0.4,0.7,0.5,1,0.5,1.3V46v0.4c1.2,0.4,1.6,1,1.6,2.3c0,0.9-0.5,2-1.4,3.1c-0.6,0.8-0.7,0.9-0.7,1.4c0,2.7,1.9,4.3,5.2,4.3h2.4
			c1.6,0.1,2.5,0.2,4,0.7c1.8,0.6,2.2,0.7,2.8,0.7c0.2,0,0.3,0,0.5-0.2c0.1-0.1,0.2-0.2,0.2-0.3c0-0.5-0.9-0.9-3.8-1.8
			c-6-1.7-8.6-4.1-8.6-8.1c0-3.1,2.6-5.5,5.9-5.5c1.1,0,2.7,0.3,3.7,0.6l1.5,0.6c0.3,0.1,0.6,0.2,0.8,0.2c0.5,0,0.8-0.4,0.8-1.3
			c0-0.5,0.1-0.6,0.4-0.6c0.4,0,1.1,0.5,1.7,1.4c0.6,0.8,1,1.8,1,2.4c0,0.8-0.4,1.4-1.3,1.9c-0.8,1.2-1.8,1.8-3.2,1.8
			c-1.1,0-2.6-0.6-5-2c-0.9-0.5-1.3-0.6-1.8-0.6c-0.6,0-1.1,0.4-1.1,1c0,0.5,0.4,0.9,1.5,1.2c1.6,0.6,2,0.8,2.6,1.4
			c1.9,0.3,2.7,0.6,3.8,1.5c3.2,1,5.2,3.2,5.2,5.7c0,2.5-1.6,4.2-3.9,4.2c-0.6,0-0.9,0-1.7-0.2"/>
		<path class="st3" d="M151,78.4c-0.1-0.4-0.1-0.7-0.1-0.9v-0.3l0.1-0.6v-0.5c0-0.5,0-0.9-0.2-1.1l-0.4-0.6c0,0-0.3-0.4-0.4-0.7
			c0-0.1-0.1-0.2-0.1-0.3c0-0.2,0.1-0.3,0.3-0.3c0.1,0,0.1,0,0.5,0.2c0.2,0.1,0.3,0.1,0.4,0.1c0.2,0,0.3-0.4,0.3-1
			c0-0.7-0.1-1.1-0.2-1.3l-0.6-0.6l-0.5-0.4c0,0-0.2-0.2-0.2-0.3c0-0.2,0.1-0.3,0.3-0.3c0.2,0,0.5,0.1,0.8,0.2h0.2
			c0,0,0.2,0,0.2-0.3v-0.1l-0.1-0.8l-0.2-0.8c-0.1-0.3-0.1-0.3-0.3-0.3h-0.1l-0.9,0.2h-0.2c-1.2,0-2.5-1-2.9-2.3L146,63
			c-0.2-0.7-0.8-1.4-1.8-2.2c-0.3-0.2-0.6-0.4-0.7-0.4l-0.7-0.1c0,0-0.2-0.1-0.2-0.2c0-0.2,0.2-0.2,0.4-0.2l1.2,0.1
			c0.4,0,1.1,0.2,2,0.5c1.1,0.4,1.8,0.5,2.5,0.5c1.8,0,2.9-1,2.9-2.6c0-1.1-0.6-2.4-1.5-3.2c-0.5-0.5-1-0.8-1.2-0.8
			c-0.1,0-0.2,0.1-0.2,0.2v0.5l0,0c0,0.2-0.1,0.3-0.2,0.3c-0.2,0-0.4-0.2-0.6-0.7c-0.7-1.4-1.8-2.3-2.9-2.3c-0.2,0-0.3,0.1-0.3,0.2
			c0,0.1,0,0.2,0.2,0.5l0.3,0.6c0,0,0.1,0.3,0.1,0.3s-0.1,0.1-0.2,0.1c-0.2,0-0.4-0.2-0.6-0.4l-0.6-0.6l-0.5-0.7
			c-0.4-0.6-0.7-0.8-1.5-1.3c-0.4-0.2-0.8-0.4-0.9-0.5c-0.2-0.1-0.3-0.2-0.4-0.2s-0.2,0.1-0.2,0.2c0,0.1,0,0.2,0.2,0.4
			c0.3,0.4,0.4,0.6,0.4,0.7c0,0.1-0.1,0.2-0.2,0.2c-0.3,0-0.9-0.6-1.4-1.4c-0.4-0.6-0.7-1.4-0.7-2.1c0-1.6,1.2-2.8,2.7-2.8
			c0.8,0,1.8,0.4,2.8,0.9l1.7,1.1c0.6,0.4,1.5,0.7,2,0.7c0.2,0,0.7-0.1,1.1-0.2c0.2,0,0.3-0.1,0.4-0.2c0.1-0.1,0.2-0.2,0.2-0.2
			c0-0.1,0-0.2-0.1-0.2l-0.2-0.1l-0.8-0.2c-0.2,0-0.6-0.2-1-0.4c-1-0.4-1.6-0.8-1.8-0.9c-0.6-0.4-1-0.6-1.2-0.7
			c-0.3-0.1-0.5-0.2-0.5-0.4c0-0.1,0-0.2,0.2-0.2s0.2,0,0.4,0.2c0.6,0.3,1,0.5,1.4,0.5l1.6,0.6c0.8,0.3,1.9,0.5,2.4,0.5
			c0.7,0,1.2-0.6,1.2-1.2c0-0.4-0.2-1.1-0.6-1.6c-0.1-0.1-0.2-0.2-0.2-0.2c-0.2,0-0.2,0.1-0.2,0.3v0.3l0.1,0.4
			c0,0.5-0.3,0.8-0.7,0.8c-0.2,0-0.4,0-0.6-0.1l-2.4-0.8c-2-0.6-2.9-0.8-3.9-0.8c-2.8,0-5,2-5,4.5c0,2.9,2,4.8,7.1,6.5
			c5,1.7,5.7,2.1,5.7,3.4c0,0.7-0.8,1.4-1.6,1.4c-0.3,0-0.6,0-0.9-0.1c-0.2,0-1-0.2-2.5-0.6c-1.5-0.4-2.9-0.5-4.5-0.5
			c-3.6,0-5.6,0.6-7.3,2.3c-0.4,0.4-0.6,0.5-1.1,0.5h-0.2l-0.5,0h-0.1c-0.4,0-0.8,0.2-1,0.7c-0.4,0.6-0.6,1-0.6,1
			c-0.1,0.1-0.2,0.2-0.4,0.2c-0.3,0-0.5-0.2-0.9-1.1c-0.2-0.4-0.4-0.8-0.8-1.1l-0.7-0.7c0,0-0.2-0.2-0.2-0.3c0-0.1,0-0.2,0.2-0.4
			c0.4-0.5,0.5-0.7,0.5-1c0.1-0.5,0.1-0.5,0.3-0.5c0.2,0,0.3,0.2,0.3,1.1c0,0.2,0.1,0.6,0.3,1l0.4,0.9c0,0,0.2,0.2,0.3,0.2
			c0.4,0,0.8-0.9,1-1.8c0.1-0.8,0.2-1,0.4-1c0.1,0,0.1,0,0.2,0.1c0,0,0.2,0.3,0.3,0.6c0.1,0.2,0.2,0.4,0.5,0.6
			c0.2,0.2,0.4,0.2,0.4,0.2h0c0.3,0,0.4-0.2,0.5-0.9v-0.4v-0.5v-0.4c0-0.2,0-0.4,0.2-0.4c0.1,0,0.2,0,0.3,0.2l0.4,0.4
			c0.2,0.2,0.5,0.4,0.7,0.4c0.3,0,0.5-0.1,0.5-0.3c0-0.2-0.1-0.4-0.3-0.8l-0.2-0.5c-0.3-0.6-0.5-0.8-0.8-0.8h-0.4l-0.4,0.2
			c-0.1,0-0.2,0.1-0.3,0.1c-0.1,0-0.1-0.1-0.1-0.2c0-0.3,0.2-0.8,0.6-1.5c0.3-0.5,0.5-1.4,0.6-2.9c0.1-1.9,0.4-3.1,0.6-3.1
			c0.2,0,0.2,0.2,0.2,0.6v0.5v0.4c0,0.4,0.1,0.6,0.2,0.6c0.3,0,0.7-0.5,1-1.2c0.1-0.3,0.2-0.6,0.2-0.8v-0.2l-0.8-1.4l-0.7-0.2
			c0,0-0.2-0.1-0.2-0.2v-0.9l-0.1-0.4l-0.2-0.4l-0.2-0.4c-0.8,0.4-1.2,0.7-1.5,1.1c-0.3,0.4-0.4,0.5-0.6,0.5c-0.1,0-0.2-0.1-0.2-0.2
			c0-0.1,0-0.3,0.1-0.6v-0.2c0-0.8-0.4-1.6-1.2-2.1l-0.2,0.3l-0.2,0.4l-0.4,0.5c0,0-0.3,0.4-0.4,0.7c0,0.2-0.1,0.3-0.1,0.4l0,0v0.2
			c0,0.3,0,0.4-0.2,0.4h-0.1l-0.2-0.4l-0.4-0.4l-0.6-0.4l-0.3-0.2c0,0-0.1,0.2-0.2,0.3c-0.1,0.2-0.2,0.4-0.2,0.6v0.6l-0.1,0.6v0.1
			c0,0.3-0.1,0.4-0.3,0.4c-0.1,0-0.2-0.1-0.4-0.2c-0.2-0.1-0.4-0.2-0.5-0.2c-0.6,0-0.9,0.4-0.9,1c0,0.7,0.2,1.4,0.6,1.9l0.5,0.6
			c0,0,0.4,0.3,0.4,0.2l0.1-0.8l-0.1-0.6v-0.3c0-0.2,0.1-0.4,0.2-0.4c0.2,0,0.3,0.2,0.5,0.8l0.3,1.4l0.3,1.7c0.1,0.5,0.2,1,0.4,1.5
			c0.3,0.7,0.5,1.1,0.6,1.3c0.4,0.5,0.4,0.6,0.4,0.7c0,0.1-0.1,0.2-0.2,0.2s-0.2,0-0.3-0.1c-0.1-0.1-0.3-0.1-0.4-0.2H127
			c-0.6,0-0.7,0.5-0.7,2.9c0,1.5,0.3,3.5,0.7,4.5l0.8,2c0.1,0.3,0.2,0.6,0.2,0.9c0,2.7-3.5,6.9-7.4,8.8c-1.4,0.7-1.9,1.4-2,3v0.5
			c0.6-0.3,0.8-0.4,1.2-0.5c1.1-0.3,1.3-0.4,1.5-1l0.2-0.5c0,0,0.2-0.2,1-0.7c0.3-0.2,0.5-0.3,0.6-0.5c0.2-0.3,0.3-0.5,0.4-0.5
			c0.1,0,0.2,0,0.2,0.1v0.1l-0.4,1v0.2c0,0.8,0.4,1.4,1.2,1.8c0.1-0.8,0.2-1.1,0.5-1.5l0.6-1c0.2-0.4,0.4-0.8,0.4-1.6
			c0-0.4,0-0.8-0.1-1.2v-0.3c0,0,0.1-0.3,0.2-0.3c0.1,0,0.2,0,0.2,0.1l0.2,0.7c0,0,0.2,0.2,0.4,0.2c0.4,0,0.8-0.4,1.3-1.3
			c0.2-0.3,0.3-0.6,0.3-1v-0.5l-0.2-0.6V70c0-0.2,0.1-0.4,0.3-0.4c0.1,0,0.2,0,0.2,0.1l0.2,0.8c0.1,0.3,0.3,0.5,0.5,0.5
			c0.2,0,0.7-0.4,0.9-0.9c0.2-0.4,0.3-0.9,0.3-1.5c0-0.8,0.1-1,0.4-1c0.1,0,0.2,0,0.2,0.1l0.2,0.5c0,0,0.2,0.3,0.3,0.3
			c0.2,0,0.6-0.4,0.8-0.9c0.1-0.1,0.1-0.2,0.1-0.4c0-0.2-0.1-0.3-0.3-0.5c-0.4-0.3-0.4-0.4-0.4-0.8c0-0.5,0.1-0.7,0.4-1.3
			c0.2-0.3,0.3-0.6,0.5-0.9c0.5-0.9,0.6-1.2,0.8-1.2c0.2,0,0.3,0.2,0.3,0.3c0,0.1,0,0.2-0.1,0.3c-0.1,0.2-0.2,0.4-0.2,0.4
			c0,0.2,0.1,0.3,0.3,0.3c0.2,0,0.4-0.1,0.6-0.2c0.1,0,0.4-0.2,1-0.4l1.2-0.4c0,0,0.4-0.1,0.7-0.1c0.2,0,0.4,0,0.6,0.1
			c0.4,0.1,0.7,0.2,0.8,0.2c0.3,0,0.6-0.3,0.6-0.6c0-0.2-0.2-0.7-0.6-1.1c-0.1-0.2-0.2-0.2-0.2-0.3v-0.2c0,0,0.2-0.2,0.2-0.2
			c0.2,0,0.8,0.6,1.4,1.4c3.1,4.9,4.3,6.1,6.4,6.8c2.2,0.6,2.7,1.2,2.7,2.4c0,0.7-0.4,1.5-1.2,2.6c-1.6,2.2-2,3.1-2,4.6v0.3
			c0,0,0.3-0.1,0.4-0.2c0.3-0.2,0.5-0.2,0.6-0.2l0.9-0.2c0.3,0,0.5-0.4,0.5-0.8v-0.1l-0.1-0.8v-0.1c0-0.3,0.1-0.6,0.3-0.8
			c0.1,0,0.1-0.1,0.2-0.1c0.1,0,0.2,0.1,0.3,0.2l0.6,1.2c0.2,0.5,0.5,0.8,1.3,1.1"/>
		<path class="st3" d="M121.5,51.9c-0.3,0-0.4,0.2-0.4,0.7l-0.1,0.7c-0.1,0.6-0.1,0.7-0.1,0.9c0,0.5,0.2,0.9,0.4,0.9
			c0.2,0,0.6-0.4,0.8-1c0.1-0.3,0.2-0.6,0.2-0.8c0-0.2,0-0.5-0.2-0.8C122,52.1,121.8,51.8,121.5,51.9"/>
		<path class="st3" d="M118.5,46.5l0.5,0.5c0.8,0.8,1.2,2.2,1.2,4.2c0,0.4,0,0.7-0.1,1.9c0,0.6-0.1,1.1-0.1,1.5c0,4.5,1.5,8,3.4,8
			c0.6,0,1-0.3,1.6-1.2c0.1-0.2,0.2-0.3,0.3-0.3c0.1,0,0.2,0.1,0.2,0.3l0.1,0.8l0.1,0.7l0.1,0.8l0.1,0.7v0.1c0,0.2-0.1,0.3-0.2,0.4
			l-0.6,0.1c-0.3,0-0.7,0.2-1,0.4c-0.6,0.3-0.9,0.6-1,0.7l-0.4,0.8c0,0-0.2,0.2-0.2,0.2c-0.2,0-0.6-0.4-1-1c-0.3-0.6-0.5-1-0.5-1.2
			c0-0.1,0.1-0.2,0.3-0.2h0.6h0.3h0.3c0,0,0.2-0.2,0.2-0.3c0-0.1-0.1-0.2-0.2-0.2l-1.6-0.7c-0.5-0.2-1-0.6-1.2-1.2
			c-0.4-0.9-0.7-1.4-0.7-1.6c0-0.2,0.1-0.4,0.3-0.4c0.1,0,0.2,0,0.2,0.1c0.2,0.1,0.4,0.2,0.5,0.2c0.2,0,0.3-0.1,0.3-0.2
			c0-0.1-0.1-0.3-0.3-0.4c-1.4-1-2.2-2.2-2.2-3.1c0-0.3,0.1-0.4,0.2-0.4h0.3l0.5,0.1l0,0c0,0,0.3-0.1,0.3-0.3c0-0.1-0.1-0.2-0.3-0.3
			c-0.3-0.2-0.5-0.3-0.6-0.3c-0.2-0.1-0.4-0.3-0.5-0.5c0-0.1-0.3-0.5-0.6-1.2l-0.5-1c-0.2-0.4-0.3-0.6-0.3-0.6c0,0-0.1-0.2-0.2-0.3
			c0.5-0.2,0.8-0.3,1.2-0.3c0.5,0,0.8,0.3,1.2,1.2c0.2,0.6,0.5,0.9,0.6,0.9c0.1,0,0.1-0.1,0.1-0.4c0-0.4,0-0.7-0.2-1.1
			c-0.1-0.3-0.1-0.6-0.1-0.8l-0.1-0.5l-0.4-0.2c0,0-0.2-0.2-0.3-0.4c-0.2-0.3-0.3-0.6-0.3-0.8c0-0.2,0-0.4,0.1-0.7
			c0.4-1.4,0.5-2,0.5-2.4v-0.3L118.5,46.5L118.5,46.5z"/>
		<path class="st3" d="M122.9,72.9c-0.5-0.1-0.8-0.1-1.1-0.2c-0.1,0-0.3-0.1-0.7-0.3c-0.6-0.2-1-0.4-1.4-0.4c-0.6,0-1,0.2-1.5,0.6
			l0.3,0.2l0.7,0.5l0.7,0.6c0,0,0.4,0.2,0.6,0.2C121.3,74.2,121.9,73.9,122.9,72.9"/>
		<path class="st3" d="M137,79.5c0.2-0.4,0.3-0.6,0.7-1c1-0.9,1.5-1.5,1.5-2v-0.8c0-0.5,0.1-0.6,0.3-0.6c0.1,0,0.2,0,0.2,0.1
			l0.2,0.4c0,0,0.2,0.2,0.3,0.2c0.2,0,0.4-0.2,0.5-0.4l0.4-0.5c0.2-0.2,0.3-0.5,0.3-0.7c0-0.2,0-0.3-0.1-0.4c0-0.1-0.1-0.3-0.2-0.6
			c-0.1-0.2-0.2-0.4-0.2-0.6c0-0.2,0.1-0.4,0.3-0.4c0.1,0,0.2,0,0.3,0.1l0.3,0.4c0,0,0.2,0.1,0.3,0.1s0.3-0.1,0.4-0.3l0.3-0.6
			c0,0,0.1-0.3,0.1-0.3c0-0.1-0.1-0.2-0.3-0.3l-0.5-0.2c-0.6-0.3-1.1-1.3-1.1-2.4c0-0.2,0-0.3,0.1-0.4l0.2-0.6c0,0,0.1-0.4,0.1-0.6
			c0-0.4-0.1-0.8-0.4-1.1c-0.3-0.4-0.4-0.7-0.5-0.8c-0.2-0.6-0.3-0.8-0.5-0.8h-0.2l-0.2,0.2l-0.4,0.2l-0.5,0.6l-0.5,0.2
			c-0.3,0.2-0.6,0.8-0.6,1.4c0,1,0.1,1.2,1.4,3.4c0.5,0.8,0.8,1.6,0.8,2.1c0,1.5-1.4,2.6-4,3.2l-1.7,0.4c-1.2,0.3-2,1.2-2.2,2.6
			c0.5-0.3,0.7-0.3,1.6-0.3h0.5h0.1c0.5,0,0.6,0,0.9-0.5c0.4-0.5,0.7-0.8,1.2-1l0.6-0.2l0.5-0.2h0.2c0,0,0.2,0,0.2,0.1
			c0,0.2-0.1,0.4-0.4,0.6c-0.4,0.5-0.6,0.9-0.6,1.4C136.6,78.9,136.7,79.1,137,79.5"/>
		<path class="st3" d="M132.3,73.9c0.4,0.3,0.8,0.6,1.1,1c0.4,0.5,0.4,0.5,0.8,0.5c0.2,0,0.3,0,0.5-0.1l0.3-0.1
			c0.6-0.1,0.8-0.2,0.8-0.4c0-0.1-0.1-0.2-0.2-0.3l-0.4-0.4l-0.4-0.4c-0.2-0.2-0.8-0.4-1.2-0.4S133,73.5,132.3,73.9"/>
		<path class="st3" d="M144.2,75.8h0.2l0.3-0.1h0.3l0.2,0c0.8,0,1.6-0.7,1.6-1.4c0-0.2-0.2-0.4-0.6-0.4
			C145.2,74,144.6,74.6,144.2,75.8"/>
		<path d="M130.6,50.6c0,0.3,0.2,0.6,0.4,0.6c0.2,0,0.3-0.4,0.7-1c0.5-0.9,1-1.7,1-2.2c0-0.2-0.1-0.3-0.2-0.3l0,0l-0.4,0.4
			c-0.3,0.3-0.5,0.4-1.2,0.6c-0.4,0.2-0.6,0.3-0.6,0.6v0.3l0.2,0.5L130.6,50.6L130.6,50.6z"/>
		<path d="M128.4,48.7L129,49c0,0,0.3,0.2,0.3,0.4v0.2c-0.1,0.3-0.1,0.6-0.1,0.8c0,0.6-0.5,0.6-0.7,0.6c-0.1,0,0-0.1-0.4-0.4
			l-0.8-0.9c-0.2-0.3-0.5-0.9-0.6-1.6V48c0-0.2,0-0.3,0.2-0.3c0.1,0,0.3,0.1,0.4,0.2L128.4,48.7L128.4,48.7z"/>
		<path d="M129.7,52.5h-0.2h-0.4c0,0-0.2-0.1-0.4-0.3c-0.2-0.1-0.4-0.2-0.5-0.2c-0.3,0-0.6,0.2-0.6,0.5c0,0.3,0.2,0.8,0.5,1.6
			l0.5,1.2c0.4,1,0.8,1.5,1.4,1.5c0.5,0,0.6-0.5,0.9-1.3c0.7-1.8,1.2-2.1,1.2-2.8c0-0.4-0.1-0.6-0.5-0.6l-0.4-0.1l-0.6,0.4H129.7
			L129.7,52.5z"/>
		<path class="st3" d="M129.7,53.6h-0.5c0,0-0.2,0-0.2,0.1l-0.1,0.2l0.2,0.9l0.2,0.8c0.1,0.4,0.2,0.6,0.6,0.6c0.4,0,0.6-0.2,0.6-0.7
			l0.1-0.8c0-0.5,0.1-0.8,0.1-0.8c0-0.1,0-0.2-0.1-0.2c0,0-0.1-0.1-0.2-0.1l0,0L129.7,53.6L129.7,53.6z"/>
	</g>
	<g>
		<path d="M215.6,62.4l0.2,0.6c0.1,0.5,0.2,0.9,0.3,1.2c0.4,2.1,0.8,2.6,1.9,2.6c0.6,0,1.1-0.3,1.2-0.8l0.2-0.7c0,0,0.2-0.3,0.4-0.3
			c0.4,0,0.6,0.4,0.6,1.3c0,0.3,0.1,0.9,0.2,1.8c0.1,0.6,0.2,1.2,0.2,1.7c0,0.4,0,0.6-0.2,1l0.1,0.4c0.1,0.7,0.2,1,0.2,1.4
			c0,1.6-0.1,2-0.4,2.6c0.2,0.6,0.2,0.9,0.2,1.3c0,0.3,0,0.7-0.1,1.3l-0.2,1.1v0.6c0.1,0.2,0.2,0.4,0.2,0.4c0,0.1-0.1,0.2-0.2,0.2
			l-0.7-0.3l-0.8-0.4c-0.3-0.2-0.4-0.3-0.8-0.6c-0.7,0.6-0.8,0.7-1.6,0.9c-1.2,0.3-1.7,0.5-1.9,0.7c-0.2,0.2-0.4,0.2-0.5,0.2
			c-0.3,0-0.5-0.6-0.5-1.4c0-1.2,0.1-1.8,0.2-2.2c-0.7-0.2-1.1-0.3-1.3-0.3c-0.1,0-0.2,0-0.5,0.1h-0.2c0,0-0.2-0.1-0.2-0.3
			c0-0.4,0.2-1.1,0.6-1.7c0.4-0.8,1.2-1.5,1.8-1.6l1.3-0.2c0.8-0.2,1.2-0.6,1.2-1.1s-0.4-0.9-1.2-1.2l-1.6-0.6
			c-0.5-0.2-1-0.4-1.5-0.7c-0.4-0.2-0.6-0.4-0.8-0.5c-0.1-0.1-0.3-0.1-0.4-0.1c-0.3,0-0.5,0.2-0.5,0.6c0,0.6,0.5,1.1,1.1,1.1
			c0.1,0,0.2,0,0.4-0.1c0.2-0.1,0.3-0.1,0.3-0.1c0.2,0,0.3,0.2,0.3,0.4c0,0.6-0.4,1.8-0.8,2.3l-0.4,0.6l-0.3,0.4c-0.1,1-1,2.3-2,2.9
			c-0.2,0.2-0.4,0.2-0.4,0.3c0,0-0.1,0.2-0.3,0.5c-0.1,0.2-0.3,0.4-0.7,0.9c-0.3,0.3-0.6,0.6-0.9,0.8c-0.4,0.3-0.6,0.5-0.7,0.7
			l-0.4,0.6c0,0-0.2,0.2-0.3,0.2c-0.3,0-0.6-0.4-0.8-0.9c-0.1-0.4-0.2-0.6-0.5-0.6c-0.2,0-0.4,0-0.6,0.1l-0.5,0.1h-1.3
			c-0.7,0-1.6,0.2-2,0.4c-0.2,0.1-0.3,0.1-0.4,0.1c-0.2,0-0.3-0.2-0.3-0.6c0-1.2,0.9-2.9,2-4.1c-0.2-0.7-0.5-1.1-1-1.2
			c-0.4-0.1-0.6-0.2-0.7-0.2c-0.1,0-0.1-0.1-0.1-0.2c0-0.2,0.3-0.5,0.8-0.8c1-0.5,1.4-0.6,1.9-0.6c0.7,0,1.2,0.2,1.9,0.8
			c1,0.8,1.3,0.9,1.8,0.9c0.8,0,1.5-0.7,1.5-1.5c0-0.5-0.3-1.1-1-2c-1-1.2-1.3-2.1-1.3-3.1c0-0.7,0.2-1.1,0.8-2.1
			c0.1-0.2,0.2-0.3,0.2-0.4c0-0.2-0.3-0.4-0.7-0.4s-0.9,0.2-1.6,0.4c-1.1,0.5-1.8,1-1.8,1.3c0,0.1,0.1,0.2,0.2,0.3l0.4,0.2
			c0,0,0.1,0.1,0.1,0.2s-0.1,0.2-0.2,0.3c-0.1,0.1-0.3,0.4-0.7,1c-0.5,0.7-1,1.2-1.5,1.6c-0.2,0.2-0.3,0.3-0.4,0.4l-0.3,0.6
			c-0.2,0.4-1,1.2-1.6,1.6c-0.3,0.2-0.4,0.3-0.5,0.4c-0.1,0.1-0.2,0.2-0.3,0.5c-0.4,0.7-1,1.5-1.4,1.9l-1,1
			c-0.3,0.3-0.7,1.2-1.1,2.3c-0.3,0.9-0.5,1.3-0.6,1.3c-0.1,0-0.2-0.1-0.3-0.2c-0.7-0.8-1.4-1.3-1.7-1.3c-0.1,0-0.2,0.1-0.4,0.2
			c-0.3,0.2-0.6,0.3-1,0.4l-1.3,0.2c-1.1,0.2-1.6,0.4-2,1.1c-0.1,0.2-0.2,0.2-0.3,0.2c-0.1,0-0.2-0.2-0.2-0.4v-0.3
			c0,0,0.1-0.4,0.2-1c0.2-1,0.4-1.9,0.7-2.4l0.7-1.1c0.1-0.2,0.2-0.4,0.2-0.6c0-0.8-0.8-1.5-2-1.7c-0.2,0-0.4-0.1-0.4-0.3
			c0-0.2,0.3-0.5,0.7-0.8c0.8-0.6,1.6-1,2.2-1c0.4,0,1,0.2,1.7,0.4l0.8,0.3c0.3,0.1,0.6,0.2,0.8,0.2c0.8,0,1.7-0.8,2.7-2.5
			c0.5-0.8,0.7-1.4,0.7-1.9c0-0.9-0.4-1.5-1.2-1.5c-0.6,0-1.1,0.2-1.6,0.7c-0.4,0.4-0.6,0.8-0.6,1.2v0.4v0.2c0,0.3-0.1,0.4-0.3,0.4
			c-0.3,0-0.6-0.3-1.2-1c-0.3-0.3-0.6-0.7-1-1.2c-1.1-1.3-1.4-1.8-1.4-3.1c-1.2-1.6-1.6-2.5-1.6-3.4v-0.8c-0.8-1.1-1-1.5-1-2.5
			c0-0.5,0-0.6,0.2-1c-0.4-0.6-0.6-0.9-0.7-1.4l-0.2-0.8c-0.1-0.5-0.3-1-0.6-1.4c-0.3-0.5-0.4-0.6-0.4-0.7c0-0.4,0.4-0.6,1.3-0.8
			l0.3-0.1c0-0.4-0.1-0.6-0.1-0.8c0-0.2,0-0.4,0.1-0.9l0.2-1.4c0.1-0.5,0.2-0.9,0.2-1.2c0-0.3,0-0.6-0.2-1.2
			c-0.1-0.4-0.2-0.6-0.4-0.8c-0.2-0.2-0.2-0.4-0.2-0.5c0-0.1,0.1-0.2,0.3-0.2c0.1,0,0.2,0,0.4,0.1c1.2,0.7,2.6,1.8,3.5,2.8
			c0.8,0.9,1.1,1.7,1.3,3.7c1.1,0.8,1.6,1.6,1.6,2.8c0,0.7-0.2,1.4-0.7,2.2c-0.4,0.7-0.7,1.1-0.7,1.1c-0.2,0.4-0.3,0.8-0.3,1.2
			c0,0.7,0.2,1.3,0.7,2.2c0.6,1,1,1.4,1.6,1.4c1,0,1.8-1.7,1.8-3.5v-0.4v-1l0.1-0.9l0.1-1.1l0.1-0.9v-0.5c0-0.4,0-0.5-1.2-1.7
			c-1.2-1.3-1.8-2.5-1.8-3.5c0-1,0.8-1.8,1.9-1.8c0.2,0,0.4,0,0.8,0.2v-1.2l0.2-1c0.2-0.8,0.2-0.9,0.5-0.9h0.2l0.7,0.6l0.8,0.5
			l0.2,0.2c0-0.4,0.1-0.6,0.5-1c0.2-0.2,0.4-0.5,0.5-0.7l0.4-0.6l0.2-0.3c0.2-0.2,0.2-0.3,0.3-0.3c0.1,0,0.2,0.1,0.3,0.5
			c0,0.2,0.2,0.3,0.3,0.5l0.5,0.4c0.4,0.3,0.6,0.8,0.8,1.5c0.3-0.4,0.4-0.5,0.7-0.7l0.6-0.3c0.2-0.1,0.4-0.2,0.4-0.2
			c0,0,0.1,0.1,0.2,0.2c0.1,0.2,0.2,0.4,0.3,0.6c0.5,0.8,0.5,0.9,0.5,1.4v0.3v0.4c1.2,0.3,1.6,1,1.6,2.3c0,1-0.4,2-1.4,3.1
			c-0.6,0.8-0.7,1-0.7,1.6c0,2.6,2,4.1,5.2,4.2h2.4c1.6,0.1,2.6,0.2,4,0.7c1.7,0.6,2.2,0.7,2.8,0.7c0.4,0,0.7-0.2,0.7-0.4
			c0-0.5-0.9-1-3.8-1.8c-6-1.7-8.6-4.1-8.6-8.1c0-3.1,2.6-5.5,5.9-5.5c1,0,2.7,0.3,3.6,0.6l1.5,0.6c0.3,0.1,0.6,0.2,0.8,0.2
			c0.5,0,0.7-0.3,0.8-1.3c0-0.4,0.2-0.6,0.4-0.6c0.4,0,1.1,0.6,1.7,1.4c0.6,0.8,1,1.8,1,2.4c0,0.8-0.4,1.4-1.3,1.9
			c-0.8,1.2-1.8,1.8-3.2,1.8c-1,0-2.8-0.7-5-2c-0.9-0.5-1.3-0.6-1.8-0.6c-0.7,0-1.1,0.4-1.1,1c0,0.5,0.4,0.9,1.5,1.2
			c1.7,0.6,2.1,0.8,2.6,1.4c1.9,0.3,2.7,0.6,3.8,1.5c3.3,1.1,5.2,3.1,5.2,5.8c0,2.4-1.6,4.1-3.9,4.1
			C216.9,62.6,216.6,62.6,215.6,62.4"/>
		<path class="st3" d="M219.2,78.4c-0.1-0.3-0.1-0.5-0.1-0.7v-0.5c0.1-0.7,0.2-1,0.2-1.4c0-0.3-0.1-0.5-0.3-0.7l-0.4-0.6
			c-0.3-0.4-0.4-0.7-0.4-1c0-0.2,0-0.3,0.2-0.3h0.2c0,0,0.1,0.1,0.3,0.2c0.2,0.1,0.3,0.1,0.4,0.1c0.2,0,0.3-0.4,0.3-1
			c0-1-0.2-1.4-0.7-1.8l-0.5-0.4c0,0-0.2-0.2-0.2-0.3c0-0.2,0.1-0.3,0.3-0.3c0.1,0,0.2,0,0.4,0.1l0.4,0.1h0.2c0,0,0.2-0.1,0.2-0.3
			v-0.1l-0.1-0.8c-0.1-0.8-0.2-1.1-0.5-1.1h-0.1l-1,0.2h-0.2c-1.2,0-2.5-1.1-2.8-2.3l-0.7-2.4c-0.2-0.7-0.8-1.5-1.8-2.2
			c-0.3-0.2-0.6-0.4-0.8-0.4l-0.6-0.1c0,0-0.2-0.1-0.2-0.2c0-0.2,0.1-0.2,0.4-0.2c0.9,0,1.9,0.2,3.2,0.6c1.2,0.4,1.9,0.5,2.4,0.5
			c1.8,0,3-1,3-2.6c0-0.8-0.3-1.8-0.7-2.4c-0.4-0.6-1-1.1-1.7-1.6c-0.1-0.1-0.2-0.1-0.3-0.1c-0.1,0-0.2,0.1-0.2,0.2v0.5v0
			c0,0.2-0.1,0.3-0.2,0.3c-0.2,0-0.4-0.2-0.6-0.7c-0.7-1.4-1.8-2.3-2.9-2.3c-0.2,0-0.4,0.1-0.4,0.2c0,0.1,0.1,0.3,0.2,0.5
			c0.1,0.2,0.2,0.4,0.3,0.6c0,0.2,0.1,0.2,0.1,0.3s0,0.1-0.2,0.1c-0.2,0-0.4-0.2-0.6-0.4c-0.4-0.4-0.6-0.6-0.6-0.6l-0.5-0.7
			c-0.4-0.6-0.8-0.9-1.5-1.3l-0.9-0.5c0,0-0.4-0.2-0.5-0.2c-0.1,0-0.2,0-0.2,0.2c0,0.1,0,0.3,0.2,0.4c0.2,0.3,0.3,0.6,0.3,0.7
			c0,0.1-0.1,0.2-0.2,0.2c-0.2,0-0.7-0.5-1.4-1.4c-0.5-0.6-0.7-1.4-0.7-2.1c0-1.6,1.2-2.8,2.7-2.8c0.8,0,1.8,0.3,2.8,0.9l1.8,1.1
			c0.6,0.4,1.5,0.7,2,0.7c0.3,0,0.4,0,1-0.2c0.2,0,0.4-0.1,0.5-0.2c0.1,0,0.1-0.1,0.1-0.2c0-0.2-0.1-0.2-0.3-0.2
			c-0.8-0.1-2.5-0.7-3.6-1.4c-0.6-0.4-1-0.6-1.2-0.7c-0.3-0.1-0.5-0.3-0.5-0.4c0,0,0.1-0.1,0.2-0.1h0.2l1.6,0.6l1.5,0.6
			c0.8,0.3,1.9,0.5,2.5,0.5c0.7,0,1.2-0.5,1.2-1.2c0-0.4-0.1-0.8-0.2-1c-0.2-0.4-0.5-0.8-0.6-0.8c-0.2,0-0.2,0.2-0.2,0.4v0.2
			l0.1,0.5c0,0.5-0.3,0.8-0.7,0.8c-0.2,0-0.4,0-0.6-0.1l-2.4-0.8c-2.1-0.7-2.9-0.8-3.9-0.8c-2.9,0-5,2-5,4.5c0,2.9,2,4.7,7.1,6.5
			c5,1.7,5.6,2.1,5.6,3.4c0,0.8-0.7,1.4-1.6,1.4c-0.3,0-0.6,0-0.8-0.1c-0.2,0-1-0.2-2.5-0.6c-1.5-0.4-2.8-0.5-4.5-0.5
			c-3.6,0-5.4,0.6-7.3,2.3c-0.4,0.4-0.6,0.5-1.1,0.5h-0.2l-0.6,0c-0.4,0-0.8,0.2-1,0.7l-0.6,1c0,0-0.2,0.2-0.4,0.2
			c-0.4,0-0.6-0.2-0.9-1.1c-0.2-0.5-0.4-0.8-0.7-1.1l-0.8-0.7c0,0-0.2-0.2-0.2-0.3c0-0.1,0.1-0.2,0.2-0.4c0.1-0.2,0.2-0.3,0.3-0.5
			c0.1-0.2,0.2-0.4,0.2-0.4v-0.3c0,0,0.2-0.2,0.3-0.2c0.2,0,0.3,0.2,0.3,1.1c0,0.2,0.1,0.6,0.3,1l0.4,0.9c0,0,0.2,0.2,0.3,0.2
			c0.4,0,0.9-0.9,1-1.8c0.1-0.8,0.2-1,0.4-1c0.2,0,0.2,0.1,0.5,0.7c0.1,0.2,0.2,0.4,0.4,0.6c0.2,0.2,0.3,0.2,0.4,0.2h0
			c0.3,0,0.4-0.2,0.5-0.9V59v-0.5v-0.4c0-0.2,0-0.4,0.2-0.4c0.1,0,0.2,0,0.3,0.2l0.4,0.4c0.2,0.2,0.5,0.4,0.7,0.4
			c0.3,0,0.5-0.1,0.5-0.4c0-0.2,0-0.3-0.4-0.8c0,0-0.1-0.2-0.2-0.5c-0.3-0.6-0.5-0.8-0.8-0.8H201l-0.5,0.2c-0.2,0-0.2,0.1-0.3,0.1
			c-0.1,0-0.1-0.1-0.1-0.2c0-0.3,0.2-0.8,0.6-1.5c0.2-0.4,0.5-1.4,0.6-2.9l0.2-1.7c0.1-1,0.2-1.4,0.4-1.4c0.1,0,0.1,0,0.2,0.1
			l0.1,0.6V50c0,0.5,0,1,0.1,1c0.2,0,0.4-0.2,0.6-0.5c0.2-0.2,0.3-0.5,0.4-0.7c0.1-0.4,0.2-0.7,0.2-1c0-0.8-0.4-1.2-1.5-1.5
			c-0.1,0-0.2-0.1-0.2-0.1v-0.3v-0.6l-0.1-0.4l-0.2-0.4l-0.2-0.4l-0.3,0.2c-0.8,0.5-0.9,0.6-1.2,0.9c-0.3,0.4-0.4,0.5-0.6,0.5
			c-0.1,0-0.2-0.1-0.2-0.2l0.2-0.6v-0.1c0-0.8-0.4-1.6-1.2-2.2l-0.2,0.3l-0.2,0.4l-0.4,0.5c-0.2,0.3-0.4,0.7-0.4,1.1v0.1v0.1
			c0,0.3,0,0.4-0.2,0.4h-0.1l-0.3-0.4l-0.4-0.4l-0.7-0.4l-0.3-0.2c-0.4,0.8-0.4,0.8-0.4,1.8v0.3c0,0.3-0.1,0.5-0.3,0.5
			c-0.1,0-0.2-0.1-0.4-0.2c-0.2-0.1-0.4-0.2-0.6-0.2c-0.5,0-0.9,0.4-0.9,1.1c0,0.7,0.2,1.1,0.6,1.9c0.3,0.5,0.7,0.9,0.8,0.9
			c0,0,0.1-0.3,0.1-0.8l-0.1-0.6v-0.3c0-0.2,0-0.4,0.2-0.4c0.2,0,0.3,0.2,0.5,0.8l0.3,1.4l0.3,1.7c0.1,0.5,0.2,1,0.4,1.5
			c0.3,0.7,0.5,1.1,0.6,1.3c0.4,0.5,0.4,0.6,0.4,0.7c0,0.1-0.1,0.2-0.2,0.2c-0.1,0-0.2,0-0.3-0.1c-0.1-0.1-0.3-0.1-0.4-0.2h-0.3
			c-0.6,0-0.7,0.4-0.7,2.9c0,1.5,0.3,3.5,0.7,4.5l0.8,2c0.1,0.3,0.2,0.6,0.2,0.9c0,2.7-3.6,6.9-7.4,8.8c-1.5,0.7-1.9,1.4-2,3.5
			c0.6-0.3,0.9-0.4,1.3-0.5c1.1-0.3,1.3-0.4,1.5-1l0.2-0.5c0.1-0.2,0.2-0.3,1-0.7c0.3-0.2,0.5-0.3,0.6-0.5c0.2-0.3,0.3-0.5,0.4-0.5
			s0.2,0.1,0.2,0.2l0,0l-0.4,1.1v0.2c0,0.8,0.4,1.4,1.2,1.8c0-0.2,0.1-0.3,0.1-0.4c0.1-0.6,0.2-0.9,0.4-1.1l0.7-1
			c0.2-0.4,0.3-0.6,0.3-1.6v-1.2L194,73c0-0.2,0.1-0.3,0.2-0.3c0.1,0,0.2,0,0.2,0.1l0.1,0.7c0,0,0.2,0.2,0.4,0.2
			c0.4,0,0.8-0.4,1.3-1.3c0.2-0.3,0.2-0.6,0.2-0.9c0-0.2,0-0.8-0.1-1.2v-0.2c0,0,0.1-0.3,0.3-0.3c0.1,0,0.2,0,0.2,0.1l0.2,0.8
			c0.1,0.3,0.3,0.5,0.5,0.5c0.6,0,1.2-1.2,1.2-2.4c0-0.8,0.1-1,0.4-1c0.1,0,0.2,0,0.2,0.1l0.2,0.5c0,0,0.2,0.3,0.3,0.3
			c0.1,0,0.3-0.2,0.5-0.4c0.1-0.2,0.2-0.3,0.3-0.5c0.1-0.1,0.1-0.3,0.1-0.4c0-0.2,0-0.2-0.3-0.4c-0.3-0.2-0.4-0.5-0.4-0.8
			c0-0.5,0.2-1.1,0.9-2.2c0.6-1,0.7-1.2,0.8-1.2c0.1,0,0.2,0.1,0.2,0.3c0,0.1,0,0.2-0.1,0.3c-0.1,0.2-0.2,0.4-0.2,0.4
			c0,0.2,0.1,0.3,0.3,0.3c0.2,0,0.4-0.1,0.7-0.2c0.2-0.1,0.5-0.2,1-0.4c0.7-0.2,1.1-0.4,1.2-0.4c0.2-0.1,0.5-0.1,0.8-0.1
			c0.2,0,0.4,0,0.6,0.1c0.4,0.1,0.7,0.2,0.8,0.2c0.3,0,0.6-0.2,0.6-0.6c0-0.2-0.1-0.4-0.2-0.6c-0.2-0.3-0.3-0.5-0.3-0.5
			c-0.2-0.2-0.2-0.3-0.2-0.3V61c0,0,0.2-0.2,0.2-0.2c0.3,0,0.8,0.6,1.4,1.4c2.9,4.7,4.3,6.2,6.4,6.8c2.2,0.7,2.7,1.1,2.7,2.4
			c0,0.7-0.4,1.5-1.2,2.6c-1.5,2-2,3.2-2,4.6V79c0,0,0.3-0.1,0.4-0.2c0.3-0.2,0.5-0.2,0.6-0.2l0.9-0.2c0.3,0,0.5-0.4,0.5-0.8v-0.1
			l-0.1-0.8v-0.1c0-0.4,0.2-0.8,0.5-0.8c0.1,0,0.2,0.1,0.3,0.2l0.6,1.2c0.2,0.5,0.5,0.8,1.3,1.1"/>
		<path class="st3" d="M189.3,53.3v0.6l0,0.4c0,0.6,0.1,0.8,0.3,0.8c0.2,0,0.6-0.4,0.8-1c0.1-0.3,0.2-0.8,0.2-1c0-0.2,0-0.4-0.2-0.7
			c-0.2-0.4-0.3-0.6-0.5-0.6C189.5,51.8,189.4,52.2,189.3,53.3"/>
		<path class="st3" d="M186.7,46.5l0.5,0.5c0.8,0.8,1.3,2.3,1.3,3.7v0.6l-0.1,1.7v1.4c0,4.8,1.4,8.1,3.4,8.1c0.5,0,1.2-0.5,1.6-1.2
			c0.1-0.2,0.2-0.3,0.3-0.3c0.1,0,0.2,0.1,0.2,0.3l0.1,0.8L194,63c0,0.3,0.1,0.6,0.1,0.8c0.1,0.4,0.1,0.6,0.1,0.7
			c0,0.4-0.1,0.4-1,0.5c-0.3,0-0.7,0.2-1,0.4c-0.6,0.4-0.9,0.6-1,0.7l-0.4,0.8c0,0-0.2,0.2-0.2,0.2c-0.2,0-0.5-0.3-0.9-1
			c-0.4-0.6-0.5-1-0.5-1.2c0-0.1,0.1-0.2,0.3-0.2h0.1h0.4h0.3l0.3-0.1c0.1,0,0.2-0.1,0.2-0.3c0-0.1,0-0.2-0.2-0.2l-1.6-0.7
			c-0.4-0.2-0.8-0.6-1.2-1.2c-0.4-0.7-0.7-1.3-0.7-1.6c0-0.3,0.1-0.4,0.3-0.4c0.1,0,0.2,0,0.3,0.1c0.2,0.1,0.4,0.2,0.4,0.2
			c0.1,0,0.1,0,0.2-0.1c0.1,0,0.1-0.1,0.1-0.2c0-0.1-0.1-0.2-0.3-0.4c-1.4-1-2.2-2.2-2.2-3.1c0-0.3,0.1-0.4,0.2-0.4h0.3
			c0,0,0.4,0.1,0.5,0.1c0.2,0,0.3-0.1,0.3-0.3c0-0.1-0.1-0.2-0.3-0.3c-0.9-0.4-1.2-0.7-1.7-2c-0.4-1-0.7-1.4-1.1-1.9
			c0.5-0.2,0.7-0.3,1.2-0.3c0.5,0,0.8,0.3,1.2,1.2c0.2,0.6,0.5,0.9,0.6,0.9c0.1,0,0.1-0.1,0.1-0.4c0-0.4,0-0.7-0.2-1.1
			c-0.1-0.3-0.1-0.6-0.1-0.8l-0.1-0.5l-0.4-0.2c-0.4-0.2-0.6-0.7-0.6-1.2c0-0.2,0-0.4,0.1-0.7c0,0,0.1-0.3,0.2-0.8
			c0.2-0.6,0.2-1.2,0.2-1.6v-0.3C186.4,46.2,186.7,46.5,186.7,46.5z"/>
		<path class="st3" d="M191.1,72.9c-0.8-0.1-0.9-0.2-1.8-0.6c-0.6-0.3-1-0.4-1.4-0.4c-0.6,0-1,0.2-1.6,0.6l0.3,0.2l0.7,0.5l0.7,0.6
			c0,0,0.4,0.2,0.6,0.2C189.5,74.2,190.1,73.8,191.1,72.9"/>
		<path class="st3" d="M205.2,79.5c0.2-0.4,0.3-0.6,0.7-1c1-0.9,1.5-1.5,1.5-2v-0.8c0-0.5,0.1-0.6,0.3-0.6c0.1,0,0.2,0,0.2,0.1
			l0.2,0.4c0,0,0.2,0.2,0.3,0.2c0.3,0,0.4-0.2,0.9-0.9c0.2-0.3,0.3-0.5,0.3-0.7c0-0.1,0-0.3-0.1-0.4c0-0.1-0.1-0.3-0.2-0.6
			c-0.1-0.2-0.2-0.4-0.2-0.6c0-0.2,0.1-0.4,0.3-0.4c0.1,0,0.2,0,0.3,0.1l0.3,0.4c0,0,0.1,0.1,0.2,0.1s0.4-0.1,0.5-0.3l0.3-0.6
			c0,0,0.1-0.3,0.1-0.3c0-0.1-0.1-0.2-0.3-0.3l-0.5-0.2c-0.6-0.2-1.1-1.3-1.1-2.3c0-0.1,0-0.3,0.1-0.5l0.2-0.6
			c0.1-0.2,0.1-0.4,0.1-0.6c0-0.4-0.1-0.7-0.4-1.1c-0.2-0.4-0.4-0.7-0.4-0.8c-0.2-0.6-0.3-0.7-0.5-0.7c-0.1,0-0.2,0-0.5,0.2
			l-0.4,0.2l-0.5,0.6l-0.5,0.2c-0.3,0.2-0.6,0.8-0.6,1.4c0,0.8,0.2,1.2,1.4,3.3c0.5,0.9,0.8,1.6,0.8,2.1c0,1.5-1.5,2.7-4,3.2
			c-3,0.6-3.6,1.1-3.9,3c0.5-0.3,0.7-0.3,1.6-0.3h0.5h0.1c0.5,0,0.6,0,0.9-0.5c0.4-0.5,0.7-0.8,1.2-1l0.6-0.2l0.5-0.2h0.2
			c0,0,0.2,0,0.2,0.1s-0.1,0.3-0.4,0.6c-0.4,0.4-0.6,0.9-0.6,1.2c0,0.5,0.1,0.7,0.4,1.2"/>
		<path class="st3" d="M200.6,73.9c0.4,0.3,0.8,0.6,1.1,1c0.4,0.5,0.4,0.5,0.8,0.5c0.2,0,0.3,0,0.5-0.1l0.3-0.1
			c0.6-0.1,0.8-0.2,0.8-0.4c0-0.1,0-0.2-0.2-0.3l-0.4-0.4l-0.4-0.4c-0.2-0.2-0.8-0.4-1.2-0.4C201.5,73.5,201.1,73.6,200.6,73.9"/>
		<path class="st3" d="M212.4,75.8h0.2l0.4-0.1h0.3l0.2,0c0.4,0,0.6,0,0.7-0.2c0.2-0.2,0.4-0.4,0.7-0.8c0.1-0.2,0.2-0.3,0.2-0.4
			c0-0.2-0.2-0.4-0.6-0.4C213.4,74,212.7,74.6,212.4,75.8"/>
		<path d="M198.8,50.6c0,0.4,0.2,0.6,0.4,0.6c0.2,0,0.4-0.5,0.8-1.2c0.5-0.9,1-1.6,1-2.1c0-0.2-0.1-0.3-0.2-0.3h0l-0.4,0.4
			c-0.2,0.2-0.8,0.5-1.2,0.6c-0.5,0.2-0.6,0.3-0.6,0.6v0.3l0.4,0.6L198.8,50.6L198.8,50.6z"/>
		<path d="M195.6,47.9c0,0-0.3-0.2-0.4-0.2c-0.2,0-0.2,0.1-0.2,0.3v0.1c0,0.2,0.1,0.4,0.2,0.6c0.2,0.6,0.4,0.9,0.5,1l0.6,0.9
			c0.2,0.3,0.6,0.4,0.8,0.5l0,0c0,0,0.2,0,0.2-0.2l0.1-0.7l0.2-0.7v-0.2c0,0-0.1-0.3-0.2-0.4l-0.6-0.3L195.6,47.9L195.6,47.9z"/>
		<path d="M198,52.5h-0.2h-0.4c0,0-0.2-0.1-0.4-0.3c-0.2-0.1-0.4-0.2-0.5-0.2c-0.3,0-0.5,0.2-0.5,0.6c0,0.3,0.2,0.8,0.5,1.5
			c0.1,0.3,0.3,0.7,0.5,1.2c0.4,1,0.8,1.5,1.4,1.5c0.5,0,0.8-0.4,1.2-1.2l0.4-1.6c0.2-0.5,0.7-0.7,0.7-1.1c0-0.4-0.5-0.8-0.9-0.8
			h-0.2l-0.6,0.4L198,52.5L198,52.5z"/>
		<path class="st3" d="M198,53.6h-0.4c0,0-0.1,0-0.2,0.1c-0.1,0.1-0.1,0.2-0.1,0.2l0.2,0.9l0.2,0.8c0.1,0.4,0.2,0.6,0.5,0.6
			c0.4,0,0.7-0.2,0.7-0.7l0.1-0.8c0-0.5,0.1-0.8,0.1-0.8c0-0.1,0-0.2-0.1-0.2c0,0-0.1-0.1-0.2-0.1l0,0L198,53.6L198,53.6z"/>
	</g>
	<g>
		<path d="M148.1,131.4c0.3,0.8,0.4,1.2,0.5,1.7l0.1,1.5c0,1.6,0.6,2.3,1.6,2.3c0.4,0,0.6-0.1,0.8-0.2l0.4-0.4h0.2
			c0.2,0,0.4,0.1,0.4,0.4v0.6c-0.1,0.3,0,0.8,0.1,1.7c0.1,0.5,0.1,1,0.1,1.5c0,0.8,0,1.1-0.3,1.8c0.2,0.7,0.4,1.5,0.4,2.2
			c0,0.8-0.1,1.3-0.4,1.8c0.2,0.6,0.2,0.9,0.2,1.2s0,0.8-0.2,1.4c-0.1,0.8-0.2,1.4-0.2,1.8v0.1c0,0.2-0.1,0.4-0.2,0.4
			s-0.3-0.1-0.4-0.3c-0.2-0.3-0.4-0.4-0.5-0.4c-0.2,0-0.3,0.1-0.7,1.2c-0.1,0.4-0.4,0.8-0.9,1.4c-0.4,0.4-0.6,0.8-0.7,1.1
			c-0.1,0.4-0.2,0.7-0.2,0.8c0,0.1-0.1,0.2-0.2,0.2h0c-0.6,0-1.3-1.3-2-3.7c-0.2-0.7-0.4-1-0.8-1c-0.3,0-0.5,0.2-0.6,0.4l-0.2,0.5
			c0,0-0.1,0.2-0.2,0.2c-0.3,0-0.7-0.5-1-1.2c-0.2-0.6-0.4-1.2-0.4-1.7c0-1.2,0.8-2,3.4-3.4c1.1-0.6,1.6-1.4,1.6-2.8
			c0-1.1-0.4-1.8-1.3-2.5c-0.8-0.6-1.2-0.8-1.6-0.8c-0.4,0-0.6,0.2-0.6,0.5c0,0.4,0.2,0.6,0.7,0.7c0.6,0.2,0.8,0.4,0.8,0.6
			s-0.2,0.7-0.6,1.3c-0.4,0.6-0.6,0.8-1.2,1.2c-0.2,1-0.6,1.6-1.8,2.4c-0.2,0.6-0.4,0.8-0.7,1.4l-0.8,1c-0.2,0.3-0.5,0.9-0.6,1.1
			c-0.1,0.6-0.1,0.6-0.4,0.6c-0.3,0-0.9-0.5-1.5-1.3c-0.4-0.4-0.4-0.7-0.5-1.2c-0.4,0.3-0.5,0.4-1.2,0.4c-0.4,0.1-0.8,0.2-1,0.3
			c-0.6,0.3-0.8,0.4-0.8,0.4c-0.2,0-0.2-0.1-0.2-0.3v-0.8c0-1.1,0.4-2.4,1.1-3.3c-0.6-0.6-1.3-0.9-1.8-1c-0.2,0-0.3,0-0.3-0.1
			c0-0.1,0.2-0.4,0.4-0.7c0.3-0.4,0.5-0.6,0.7-0.7c0.5-0.4,1.4-0.8,2.1-0.8c0.5,0,1.2,0.2,2.1,0.5c0.3,0.1,0.6,0.2,0.9,0.2
			c0.4,0,0.6-0.3,0.6-0.7c0-0.7-0.3-1.7-1.1-3.4c-0.5-1.1-0.7-1.9-0.7-2.4c0-1.3,0.6-2.6,1.4-3c-0.4-0.2-0.5-0.2-0.8-0.2
			c-0.4,0-0.6,0.1-1.1,0.4c-0.6,0.3-0.8,0.6-0.8,0.8c0,0.1,0.1,0.2,0.3,0.3c0.3,0.2,0.3,0.3,0.3,0.6c0,0.9-0.8,2.1-1.8,2.9
			c-0.2,1.3-0.8,2.1-2,2.6c-0.2,0.7-0.2,0.9-0.8,1.7c-1,1.4-1.2,1.8-1.4,2.5c-0.1,0.4-0.2,0.6-0.3,0.6c-0.2,0-0.5-0.2-0.8-0.6
			c-0.3-0.3-0.5-0.6-0.6-0.7c-0.2-0.2-0.2-0.5-0.4-1.2c-0.3,0.1-0.3,0.1-0.5,0.1h-0.5h-0.4c-0.8,0-1.6,0.2-2.1,0.4
			c-0.2,0.1-0.3,0.2-0.3,0.2c-0.2,0-0.4-0.5-0.4-1.1c0-1.3,0.4-2.4,1.2-3.6c-0.3-0.3-0.4-0.4-0.7-0.6c-0.1-0.1-0.2-0.2-0.3-0.2
			l-0.4-0.2c0,0-0.2-0.2-0.2-0.2c0-0.2,0.5-0.7,1.2-1.1c0.7-0.4,1.3-0.7,1.8-0.7c0.6,0,0.9,0.2,1.7,0.8c0.5,0.4,0.9,0.7,1.1,0.7
			c0.2,0,0.4-0.1,0.5-0.3c0.1-0.2,0.2-0.4,0.2-0.6c0-0.7-0.8-1.9-1.8-2.5c-0.7-0.4-1.4-0.7-2.2-0.7c-1,0-1.9,0.5-2.3,1.3l-0.4,0.8
			c0,0-0.2,0.3-0.4,0.3c-0.2,0-0.4-0.1-1.2-1.1l-1-1.1c-0.3-0.3-0.5-0.7-0.6-1c-0.1-0.3-0.2-0.4-0.2-0.5c0,0-0.2-0.2-0.4-0.3
			c-0.7-0.5-1.3-1.6-1.6-3c0-0.1,0-0.3-0.1-0.5c-0.9-1.1-1.4-2.5-1.4-3.6c0-0.2,0-0.2,0.1-0.5c-0.5-0.5-0.6-0.6-1-2
			c-0.3-1-0.5-1.4-0.8-1.9c-0.1-0.1-0.2-0.2-0.2-0.3c0-0.2,0.3-0.4,0.8-0.4c0.5-0.1,0.5-0.1,0.7-0.1h0.7l0-1c0-0.6,0-1,0.2-1.7
			c0.1-0.4,0.1-0.6,0.1-0.8c0-0.1,0-0.3-0.1-0.6c0-0.3-0.1-0.4-0.1-0.6c0-0.1-0.1-0.2-0.1-0.3c0-0.1,0.1-0.2,0.2-0.2
			c0.1,0,0.2,0,0.5,0.2c0.6,0.3,1.2,0.6,1.6,1c1.3,1,2.2,2.5,2.2,3.4v0.3c-0.1,0.3-0.1,0.5-0.1,0.5c0,0.2,0.1,0.4,0.2,0.6l0.4,0.6
			c0.4,0.5,0.6,1,0.6,1.4c0,0.4-0.1,0.5-0.7,1.4c-0.4,0.6-0.6,1.1-0.6,1.6c0,0.7,0.3,1.5,0.7,2.3c0.4,0.8,0.9,1.2,1.4,1.2
			c0.8,0,1.2-0.7,1.3-2.7c0.1-1,0.2-1.9,0.3-2.8v-0.5c0-0.2,0-0.4-0.3-0.7l-1.1-1.3c-1-1.2-1.4-1.8-1.4-2.7c0-1,0.7-1.7,1.6-1.7h0.4
			v-0.2c0-0.2,0.1-0.6,0.2-1c0.2-0.8,0.5-1.4,0.7-1.4c0,0,0.2,0,0.4,0.2c0,0,0.3,0.1,0.7,0.2c0.2,0.1,0.4,0.2,0.7,0.4
			c0.2-0.6,0.3-0.9,0.6-1.3c0.5-0.6,1-1.1,1.2-1.1c0.1,0,0.3,0.2,0.6,0.4l0.7,0.7c0,0,0.2,0.4,0.4,0.7l0.2,0.3c0,0,0.4-0.2,0.4-0.2
			c0.3-0.2,0.5-0.3,0.6-0.3c0.4-0.2,0.7-0.3,0.7-0.3c0.2-0.1,0.3-0.2,0.4-0.2c0.1,0,0.2,0.2,0.5,1.4c0.2,0.8,0.2,1,0.2,1.6
			c1.2,0.2,1.7,0.8,1.7,2.1c0,1.2-0.6,2.4-1.8,3.7c-0.4,0.4-0.4,0.6-0.4,0.9c0,3.2,1.1,4.3,5.2,4.7c2.5,0.3,3.2,0.4,6.2,1.3
			c1.6,0.5,2.5,0.7,3.1,0.7c0.7,0,1.1-0.2,1.1-0.7c0-0.7-0.5-0.9-3.4-1.5c-6.8-1.4-9.4-3.7-9.4-8.2c0-3.2,2.4-5.6,5.6-5.6
			c1.4,0,2.7,0.4,4.6,1.6c1.8,1.1,2.2,1.2,2.6,1.2c0.5,0,0.7-0.3,0.7-1.1c0-0.5,0.2-0.8,0.5-0.8c0.3,0,0.7,0.3,1.1,0.8
			c0.6,0.7,0.8,1.1,0.8,2.1c0,1.3-0.7,2.2-2.1,2.6c-0.2,0.2-0.2,0.3-0.3,0.4c-0.8,0.8-1.4,1.1-2.6,1.1c-1,0-2.4-0.4-3.2-1.1
			l-1.8-1.2c-0.8-0.5-1.3-0.8-1.8-0.8c-0.8,0-1.2,0.4-1.2,1.2s0.5,1.3,1.3,1.6l1.6,0.5c0.6,0.2,0.9,0.3,1.6,0.6
			c0.4,0,0.6-0.1,0.8-0.1c1,0,2.1,0.3,3.1,0.8c0.3,0.2,0.5,0.2,0.7,0.3l0.9,0.2c2.1,0.6,3.8,2.9,3.8,5.2c0,2.6-1.7,4.2-4.4,4.2
			L148.1,131.4L148.1,131.4z"/>
		<path class="st3" d="M147.4,153.1l0.2-0.4l0.5-0.6c0.4-0.5,0.7-1.1,0.7-1.9c0-0.4-0.1-0.8-0.2-1.2c-0.1-0.3-0.2-0.6-0.2-0.6
			c0-0.2,0.2-0.4,0.4-0.4c0.1,0,0.2,0.1,0.3,0.2l0.6,0.6c0.4,0.4,0.4,0.4,0.9,0.6v-0.5l0.1-0.6c0-0.9-0.3-1.8-0.8-2.5
			c-0.3-0.4-0.4-0.6-0.4-0.7s0.1-0.3,0.2-0.3c0,0,0.1,0,0.2,0.1c0.4,0.3,0.5,0.4,0.6,0.4c0.2,0,0.3-0.4,0.3-0.9c0-0.7-0.3-1.5-0.8-2
			c-0.2-0.3-0.4-0.5-0.4-0.6c0-0.1-0.1-0.1-0.1-0.2c0-0.2,0.1-0.3,0.3-0.3c0.1,0,0.2,0,0.4,0.2c0.1,0.1,0.2,0.1,0.3,0.1
			c0.3,0,0.4-0.4,0.4-1.5v-0.4l0-0.7c0-0.8-0.1-0.9-0.4-0.9h-0.3c-1.8,0-2.6-1.1-3.1-4.2c-0.3-2.2-1.2-3.7-2.2-4.1
			c-0.6-0.2-0.8-0.3-0.8-0.5c0-0.1,0.2-0.2,0.4-0.2c0.1,0,0.4,0.1,0.7,0.2c1.5,0.6,2.7,0.9,3.7,0.9c1.8,0,3.1-1.3,3.1-2.9
			c0-1.2-0.6-2.5-1.7-3.5c-0.3-0.3-0.6-0.5-0.9-0.6h-0.1l-0.2,0l0.1,0.5l0.2,0.4v0.2c0,0,0,0.1-0.1,0.1s-0.2,0-0.3-0.2l-0.6-1
			c-0.5-0.8-1.7-1.4-2.5-1.4c-0.3,0-0.5,0.1-0.5,0.4c0,0.1,0.1,0.3,0.2,0.4c0.2,0.2,0.3,0.5,0.3,0.6v0.2c0,0-0.1,0.1-0.2,0.2l0,0
			c0,0-0.3-0.1-1.1-1c-0.6-0.8-2-1.5-2.7-1.5c-0.1,0-0.2,0-0.3,0.1c0,0-0.1,0.1-0.1,0.2c0,0.1,0.1,0.2,0.2,0.4
			c0.2,0.2,0.4,0.4,0.4,0.6c0,0.1-0.1,0.1-0.2,0.1c-0.2,0-0.7-0.3-1.6-1c-1.4-1.1-2-2.1-2-3.3c0-1.4,1-2.5,2.3-2.5
			c0.8,0,1.8,0.4,2.4,0.9l1.8,1.4c0.8,0.6,1.8,1,2.9,1c0.2,0,0.4,0,0.6-0.2c0.2-0.1,0.2-0.2,0.2-0.2c0,0-0.1-0.1-0.3-0.2
			c-0.6-0.2-1.2-0.4-1.6-0.6l-1.8-1.4c-0.7-0.5-1.2-0.8-1.4-1c-1-0.5-1.2-0.6-1.2-0.7c0,0,0.1-0.1,0.2-0.1c0.1,0,0.2,0,0.3,0.1
			l1,0.4c0.3,0.1,0.8,0.4,1.6,0.9c2,1.3,3,1.7,4.1,1.7s1.9-0.8,1.9-1.8c0-0.2,0-0.4-0.2-0.6l-0.2-0.4c0,0-0.2-0.2-0.2-0.2l-0.1,0.2
			l-0.1,0.8c0,0,0,0.1-0.1,0.2c-0.1,0.2-0.2,0.3-0.2,0.4c-0.2,0.2-0.4,0.2-0.7,0.2c-0.6,0-1.2-0.3-2.9-1.4c-1.7-1.1-3.3-1.7-4.5-1.7
			c-2.6,0-4.7,2.1-4.7,4.7c0,3.7,2.2,5.3,9.2,6.9c2.7,0.6,3.8,1.4,3.8,2.6c0,1.1-0.9,1.8-2.3,1.8c-0.4,0-0.8,0-1-0.1
			c-0.2,0-1.5-0.4-3.8-1c-1.6-0.4-3.3-0.7-4.9-0.7c-2.8,0-4.6,0.8-5.9,2.6c-0.2,0.2-0.3,0.3-0.4,0.3c-0.1,0-0.2,0-0.3-0.2l-0.5-0.4
			c-0.4-0.3-0.9-0.5-1.3-0.5c-0.3,0-0.6,0.1-0.8,0.3c-0.2,0.2-0.3,0.2-0.4,0.2c-0.2,0-0.6-0.5-0.9-1.1c-0.4-0.8-0.6-1.7-0.6-2.5
			c0-0.4,0.1-0.6,0.3-0.6c0.1,0,0.2,0.1,0.3,0.3l0.3,1.1c0.2,0.6,0.5,1.1,0.8,1.1c0.1,0,0.3-0.2,0.5-0.4c0.1-0.2,0.2-0.4,0.3-0.5
			c0.2-0.7,0.3-0.8,0.5-0.8c0.2,0,0.3,0.1,0.5,0.8c0,0.1,0.1,0.3,0.2,0.6c0.2,0.3,0.3,0.5,0.4,0.6c0.1,0.1,0.2,0.2,0.4,0.2
			c0.3,0,0.6-0.5,0.6-1.1v-0.2l0-0.7c0-0.3,0-0.4,0.2-0.4c0.1,0,0.2,0,0.2,0.2c0.2,0.2,0.4,0.4,0.6,0.5c0.2,0.1,0.4,0.2,0.5,0.2
			s0.2-0.1,0.4-0.2c0.1-0.1,0.2-0.2,0.2-0.3c0-0.1-0.1-0.3-0.5-0.7c-0.2-0.2-0.4-0.7-0.7-1.5c-0.1-0.3-0.2-0.5-0.4-0.5
			c0,0-0.1,0-0.2,0.1l-0.5,0.2l-0.3,0.2h-0.1c0,0-0.3-0.1-0.3-0.2s0.3-0.5,0.7-0.9c0.3-0.2,0.5-0.6,0.5-1c0-0.6,0.1-1.1,0.2-1.1
			l0.1-1.3c0-0.6,0.3-1.9,0.6-2.5c0-0.1,0.1-0.2,0.2-0.2c0.1,0,0.2,0.3,0.2,0.6v0.2v0.4c0,0.5,0.1,0.7,0.2,0.7
			c0.2,0,0.4-0.2,0.5-0.6l0.3-0.8c0.1-0.2,0.2-0.5,0.2-0.7c0-0.7-0.4-1.2-1-1.2H134l-0.2,0.1c-0.2,0-0.4-0.2-0.4-0.5v-0.5v-0.7
			l-0.2-0.8v-0.4l-0.4,0.2l-0.4,0.3l-0.6,0.5l-0.5,0.4c0,0-0.2,0.1-0.3,0.1c-0.3,0-0.3-0.1-0.3-0.6v-0.2c0-0.5-0.2-0.8-1-1.7
			c0,0-0.1-0.1-0.2-0.2l-0.2,0.2l-0.4,0.6l-0.4,1l-0.1,0.6c0,0-0.1,0.3-0.2,0.3c-0.1,0-0.2-0.1-0.4-0.3c-0.6-0.6-0.7-0.8-1.6-1.1
			l-0.1,0.2c-0.1,0.4-0.2,0.7-0.2,0.8v0.7v0.3v0.2c0,0.2-0.1,0.3-0.2,0.3l0,0c0,0-0.1-0.1-0.2-0.2c-0.1-0.1-0.2-0.1-0.4-0.1
			c-0.7,0-1.1,0.4-1.1,1c0,0.4,0.2,0.8,0.8,1.8c0.3,0.4,0.6,0.8,0.8,0.8c0.1,0,0.2-0.2,0.2-0.5l-0.1-0.4c-0.1-0.2-0.1-0.4-0.1-0.6
			c0-0.2,0-0.3,0.2-0.3c0.3,0,0.7,1,0.8,2.3l0.2,1.4c0,0.5,0.2,1,0.4,1.5c0.3,0.7,0.7,1.2,1,1.4c0.4,0.2,0.6,0.5,0.6,0.6
			c0,0.1-0.1,0.2-0.2,0.2c0,0-0.3-0.1-0.8-0.3h-0.3c-0.7,0-1,0.4-1,1.6c0,1.5,1,3.7,2.2,4.6l1.7,1.4c0.8,0.7,1.5,1.8,1.5,2.6
			c0,1.1-1.2,2.1-3.2,2.9l-1.2,0.4c-0.9,0.4-1.3,1-1.7,2.7c0.5-0.2,0.7-0.2,1-0.2h0.2h0.6c0.5,0,0.8-0.3,0.8-0.7v-0.3
			c0,0,0.1-0.2,0.3-0.3c0.3-0.2,0.5-0.2,0.5-0.2l0.4-0.3c0,0,0.1-0.1,0.2-0.1c0.1,0,0.2,0.1,0.2,0.2c0,0.1,0,0.2-0.1,0.3
			c-0.1,0.3-0.2,0.8-0.2,1.3c0,0.9,0.2,1.4,0.6,2c0-0.2,0.1-0.4,0.1-0.5c0.1-0.2,0.3-0.5,0.6-1c0.6-0.8,1-1.7,1-2.2v-0.2l-0.1-0.8
			c0-0.2,0.1-0.3,0.2-0.4c0.1-0.1,0.2-0.1,0.2-0.1c0.2,0,0.2,0.1,0.4,0.4c0.1,0.2,0.2,0.3,0.3,0.3c0.1,0,0.4-0.3,0.6-0.7
			c0.1-0.3,0.2-0.6,0.2-0.8c0-0.1,0-0.3-0.1-0.5c-0.1-0.2-0.1-0.3-0.1-0.4c0-0.1,0-0.1,0.2-0.2c0.1,0,0.1-0.1,0.2-0.1
			c0.1,0,0.2,0,0.2,0.1l0.3,0.2c0,0,0.2,0.1,0.3,0.1c0.2,0,0.4-0.2,0.5-0.4c0.3-0.5,0.5-0.9,0.5-1c0-0.1-0.1-0.2-0.3-0.3
			c-0.7-0.5-1.2-1.3-1.2-2c0-0.2,0-0.3,0.1-0.5l0.4-1c0.2-0.5,0.3-0.8,0.3-0.8h0.1c0,0,0.2,0.1,0.2,0.2c0,0.1,0,0.3-0.1,0.4
			c-0.1,0.2-0.2,0.5-0.2,0.7c0,0.3,0.1,0.4,0.4,0.4c0.2,0,0.4,0,0.6-0.2c1.1-0.5,2-0.7,2.5-0.7c0.5,0,0.8,0.1,1.3,0.5
			c0.1,0.1,0.2,0.2,0.3,0.2c0.1,0,0.2,0,0.2-0.2c0-0.1,0.1-0.1,0.1-0.2c0-0.1-0.1-0.3-0.2-0.5c-0.2-0.2-0.2-0.4-0.2-0.5
			c0-0.1,0.1-0.2,0.2-0.2c0.6,0,1.5,1.8,2.3,4.7c0.7,2.3,0.9,2.5,3,3.7c1.8,1,2.6,2.1,2.6,3.7c0,1.7-0.4,3.7-1.4,6.5
			c-0.3,0.9-0.4,1.5-0.4,2c0,0.4,0.1,0.8,0.4,1.8c0.1,0.5,0.2,0.8,0.2,0.8c0,0.1,0.2,0.3,0.3,0.6"/>
		<path class="st3" d="M139,148c0.2-0.5,0.3-0.6,0.7-1.2c0.6-0.9,0.8-1.4,0.8-1.8v-0.6c0-0.6,0.1-0.8,0.3-0.8c0.1,0,0.2,0,0.2,0.1
			l0.2,0.3c0,0,0.2,0.2,0.2,0.2c0.1,0,0.3-0.2,0.4-0.3c0.3-0.4,0.4-0.9,0.4-1.3v-0.4l-0.1-0.4c0-0.2,0.1-0.3,0.3-0.3
			c0.2,0,0.2,0,0.3,0.3c0.1,0.2,0.2,0.3,0.3,0.3c0.1,0,0.2-0.1,0.3-0.2l0.3-0.4l0.2-0.3v-0.2c0,0,0-0.2-0.2-0.3
			c-0.7-0.5-1-1.2-1-2.6c0-1-0.1-1.7-0.2-2c0-0.1-0.2-0.6-0.7-1.6c-0.2-0.4-0.3-0.8-0.4-1.3c-0.1-0.3-0.2-0.4-0.4-0.4
			c-1,0-1.8,0.8-1.8,2c0,0.7,0.3,1.7,0.8,3c0.7,1.8,0.9,2.4,0.9,3c0,1.4-0.5,1.9-2.4,2.6c-2.1,0.8-3.1,1.8-3.4,3.7
			c0.2-0.1,0.3-0.1,0.4-0.2c0.2-0.1,0.4-0.2,0.5-0.2l0.6-0.2c0.5-0.1,0.9-0.4,1-0.7l0.2-0.5c0,0,0.1-0.2,0.2-0.2l0.3-0.2l0.3-0.2
			l0.1,0.2l-0.2,0.5c0,0-0.1,0.4-0.1,0.8C138.3,146.9,138.5,147.4,139,148"/>
		<path class="st3" d="M119.3,114.2c0,0.2,0.1,0.4,0.1,0.4c0,0.1,0,0.4-0.2,1l-0.1,0.8c0,0.6,0.1,1.4,0.3,1.9
			c0.2,0.5,0.2,0.7,0.2,0.8v0.2c0,0-0.1,0.3-0.2,0.3c-0.1,0-0.2-0.1-0.4-0.2c-0.4-0.4-0.9-0.6-1.4-0.6c-0.2,0-0.4,0-0.6,0.1l0.2,0.4
			l0.6,1.4l0.8,1.2l0.8,0.6c0,0,0.2,0.1,0.2,0.2c0.1,0.1,0.1,0.2,0.1,0.2c0,0.1-0.1,0.1-0.2,0.1H119c0,0-0.2,0.1-0.2,0.2
			c0,0.1,0.1,0.5,0.3,1.1l0.4,1.1l0.6,0.6l0.6,0.5c0,0,0.3,0.3,0.3,0.4c0,0.1-0.1,0.2-0.1,0.2h-0.4c0,0-0.2,0.2-0.2,0.3
			c0,0.3,0.2,0.8,0.7,1.4c0.6,0.8,1,1,1.6,1h0.6c0.3,0,0.4,0.1,0.4,0.3c0,0.2-0.1,0.3-0.4,0.3c-0.5,0.1-0.7,0.2-0.7,0.4
			c0,0.1,0.1,0.2,0.2,0.4l0.3,0.4c0.2,0.3,0.5,0.6,0.7,0.6c0.1,0,0.3-0.1,0.5-0.3c0.3-0.4,0.7-0.7,1.2-0.8c1.3-0.3,1.6-0.4,1.6-0.8
			c0-0.1,0-0.2-0.2-0.4c-0.4-0.7-0.6-1.2-0.6-1.8c0-0.4-0.1-0.8-0.3-0.8c-0.1,0-0.2,0.1-0.3,0.3c-0.3,0.5-0.8,0.8-1.3,0.8
			c-1.3,0-2.8-2-3.5-4.6c-0.2-0.6-0.3-1.3-0.3-2c0-0.6,0.1-1.5,0.3-2.2c0.2-1.1,0.4-1.7,0.4-1.8v-0.5
			C121.4,116.2,120.6,115,119.3,114.2"/>
		<path class="st3" d="M122,119.3c-0.3,0.5-0.5,1.7-0.5,2.4c0,0.4,0.1,0.8,0.3,0.8c0,0,0.1-0.1,0.2-0.2l0.4-0.7c0,0,0.1-0.2,0.3-0.4
			c0.2-0.2,0.2-0.4,0.2-0.6C122.9,120.1,122.5,119.5,122,119.3"/>
		<path class="st3" d="M126,135.7c0,0,0.1,0.1,0.2,0.2c0.2,0.2,0.2,0.2,0.3,0.3c0.7,0.8,0.8,0.8,1.2,0.8c0.3,0,1-0.2,1.4-0.4
			c0.2-0.1,0.2-0.2,0.2-0.2c0,0-0.1-0.2-0.4-0.4l-0.4-0.4c-0.3-0.3-0.8-0.5-1-0.5C127.1,135.1,126.7,135.3,126,135.7"/>
		<path class="st3" d="M134.5,142.3c0.4,0.2,0.5,0.2,0.7,0.4c0.3,0.2,0.5,0.3,0.6,0.4c0.1,0,0.3,0.1,0.6,0.1c0.2,0,0.3,0,0.4-0.1
			l0.8-0.3l0.7-0.2c0,0,0.3-0.2,0.3-0.3c0,0-0.2-0.1-0.4-0.2c-0.2,0-0.4-0.1-0.6-0.2c-0.9-0.4-1-0.4-1.4-0.4
			C135.6,141.5,134.9,141.8,134.5,142.3"/>
		<path class="st3" d="M143.7,149.7c0.2-0.6,0.4-0.7,1.2-0.7c1,0,1.8-1.7,1.8-2.9c0-0.1,0-0.2-0.1-0.2c-0.1,0-0.1,0-0.2,0.1
			c-0.3,0.2-0.4,0.3-0.6,0.3l-1.1,0.5c-0.7,0.3-1.3,1.3-1.3,2C143.5,149.1,143.6,149.3,143.7,149.7"/>
		<path d="M128,117.9l0.4,0.5c0,0,0.7,0.6,0.8,0.6c0.1,0,0.2-0.1,0.2-0.3l0.2-0.6v-0.6c0-0.5-0.2-0.7-1.2-0.9
			c-0.2-0.1-0.4,0-0.5-0.2c-0.2-0.1-0.4-0.2-0.4-0.2s-0.2,0-0.2,0.1v0.2l0.2,0.6L128,117.9L128,117.9z"/>
		<path d="M131.9,117.9l-0.5,0.8c0,0-0.2,0.2-0.2,0.2l0,0c0,0-0.4-0.4-0.4-0.9l-0.1-0.7c0-0.3,0.2-0.4,0.7-0.5
			c0.4-0.1,0.6-0.1,0.7-0.2c0.4-0.2,0.6-0.4,0.6-0.4h0.1c0,0,0.2,0,0.2,0.2l0,0l-0.2,0.7L131.9,117.9L131.9,117.9z"/>
		<path d="M130.9,120.4l0.6-0.3c0,0,0.2-0.1,0.3-0.1c0.3,0,0.5,0.2,0.5,0.6c0,0.4-0.3,1-0.8,1.8c-0.5,0.9-0.8,1.5-1.2,1.5
			c-0.5,0-1.3-0.8-2-2.2c-0.2-0.3-0.3-0.7-0.3-1c0-0.5,0.2-0.7,0.6-0.7c0.2,0,0.3,0,0.4,0.1l0.3,0.2c0.3,0.2,0.6,0.3,0.9,0.3
			C130.5,120.6,130.7,120.5,130.9,120.4"/>
		<path class="st3" d="M130.1,121.3l-0.4-0.1h-0.1c-0.2,0-0.4,0.1-0.4,0.4c0,0.4,0.3,1,0.7,1.6c0.1,0.1,0.2,0.2,0.3,0.2
			c0.2,0,0.4-0.4,0.5-1.2l0.1-0.6v-0.1c0-0.2,0-0.3-0.2-0.3h-0.1"/>
	</g>
	<g>
		<path d="M211.7,130.9c0.6,0.8,1.5,1.4,2.3,1.4c0.2,0,0.6,0,1-0.2c0.2,0,0.4-0.1,0.5-0.1c0.2,0,0.2,0.1,0.2,0.2
			c0,0.1-0.1,0.4-0.2,0.7c-0.1,0.3-0.2,0.5-0.2,0.6l-0.2,0.8l-0.4,0.6l-0.5,0.5l-0.2,0.2v0.5c0,0.9-0.3,1.4-1,1.9
			c0,0-0.2,0.1-0.2,0.2l-0.1,0.3c-0.2,0.7-0.3,1.1-0.4,1.3c-0.1,0.2-0.3,0.5-0.7,1c-0.4,0.6-0.7,1-0.9,1.5c-0.2,0.4-0.3,0.5-0.5,0.5
			c-0.4,0-0.7-0.4-0.8-1c-0.1,0.1-0.2,0.2-0.2,0.2l-0.4,0.3l-0.7,0.5c-0.3,0.2-0.5,0.4-0.6,0.4l-0.4,0.4c0,0-0.2,0.1-0.2,0.1
			c-0.2,0-0.4-0.3-0.6-0.9l-0.4-1.2c-0.1-0.3-0.2-0.7-0.2-1.2c0-0.6,0-0.8,0.2-1.3c-0.7,0.1-1,0.1-1.3,0.2c-0.1,0-0.2,0.1-0.3,0.1
			c-0.1,0-0.2-0.1-0.2-0.2c0-0.1,0.1-0.3,0.2-0.6l0.5-1.2c0.4-1,1.6-1.8,2.5-1.8c0.2,0,0.5,0.1,0.9,0.2c0.2,0.1,0.4,0.1,0.6,0.1
			c0.4,0,0.8-0.3,0.8-0.7c0-0.2-0.1-0.4-0.3-0.5c-0.1,0-0.5-0.2-1.3-0.4c-0.6-0.2-0.9-0.4-1.6-1.2c-0.5-0.6-0.7-0.8-0.9-0.8
			c-0.2,0-0.2,0.1-0.2,0.2v0.5l0,0.2c0,1-0.3,2-1,3.3l-1,1.9c-0.5,0.9-0.7,1.6-0.7,2.2c0,0.7,0.3,1.4,0.7,1.5l0.6,0.2
			c0,0,0.1,0,0.2,0.1c0.1,0.1,0.1,0.2,0.1,0.2c0,0.1-0.1,0.2-0.2,0.3c-0.1,0.1-0.3,0.4-0.7,0.8c-0.6,0.8-1,1.1-1.8,1.4
			c-0.4,1.1-1.2,1.7-2.4,2.1l-0.2,0.2c-0.4,0.8-1.4,1.5-2,1.5h-0.1c-0.1,0.7-0.6,1.4-1.3,1.9c-0.5,0.4-0.8,0.6-0.8,0.6
			c0,0-0.1,0.2-0.2,0.3c-0.2,0.4-0.3,0.5-0.5,0.5c-0.4,0-0.7-0.4-1-1.1c-0.2,0.1-0.2,0.2-0.3,0.2c-0.4,0.3-0.6,0.4-0.7,0.5
			c-0.2,0.1-0.6,0.2-1.3,0.4c-0.9,0.2-1.7,0.6-1.9,0.9l-0.3,0.6l-0.2,0.1c0,0-0.4-0.2-0.5-0.6c-0.2-0.8-0.3-1.6-0.3-2
			c0-1.3,0.4-2.2,1.8-3.5v-0.3c0-2,1.6-3.4,3.8-3.4h0.4l1.2,0.1h0.1c0.7,0,1.3-0.2,2-0.8c0.9-0.7,1.2-1.2,1.2-2
			c0-0.3-0.1-0.6-0.4-1.5c-0.2-0.6-0.3-1.2-0.3-1.7c0-1.5,1.1-3.4,2.6-4.4c0.4-0.3,0.7-0.6,0.7-0.8c0-0.1,0-0.2-0.1-0.2
			c-0.1,0-0.3,0.1-0.5,0.3c-0.2,0.2-0.5,0.4-0.9,0.6l-0.6,0.3l-0.7,0.2c-0.2,0.1-0.3,0.2-0.3,0.3c0,0.1,0,0.2,0.1,0.3
			c0,0.1,0.1,0.2,0.1,0.3c0,0.1-0.1,0.2-0.2,0.4l-0.5,0.8c-0.5,0.8-0.9,1.2-1.5,1.5c-0.4,1.2-1,1.8-1.9,2c-0.7,1.4-1.3,1.9-2.5,2
			c-0.2,0.5-0.5,1-1.1,1.7c-0.3,0.3-0.4,0.5-0.5,0.6c-0.3,0.5-0.3,0.6-0.4,0.6c-0.2,0-0.6-0.2-0.8-0.6c-0.1-0.1-0.2-0.3-0.3-0.4
			l-0.3-0.6c0,0-0.2-0.3-0.4-0.3h-0.2l-0.8,0.1c-0.5,0.1-1.2,0.5-1.5,0.8l-0.4,0.7c0,0-0.1,0.1-0.2,0.1c-0.3,0-0.5-0.7-0.5-1.9
			c0-1,0.2-1.8,0.5-2.2l1-1.4c0,0,0.2-0.4,0.2-0.6c0-0.2-0.1-0.3-0.2-0.5c-0.2-0.2-0.4-0.4-0.6-0.4l-0.8-0.1c0,0-0.2,0-0.2-0.1
			c0-0.1,0-0.2,0.1-0.2c0.2-0.3,0.6-0.6,0.9-0.8c0.9-0.6,1.5-0.8,2.1-0.8s1.3,0.2,1.9,0.6l1.1,0.7c0,0,0.3,0.2,0.5,0.2
			c0.5,0,0.9-0.3,1.2-1c0.3-0.6,0.5-1.2,0.5-1.7c0-1.4-1-2.4-2.4-2.4c-0.6,0-1.3,0.2-1.9,0.7c-0.2,0.2-0.3,0.3-0.4,0.4l-0.3,0.7
			c0,0-0.2,0.2-0.3,0.2c-0.2,0-0.6-0.5-1-1.2c-0.2-0.4-0.4-0.8-0.5-1.3c-0.2-0.7-0.3-1.2-0.3-1.8v-1c-0.4-0.8-0.6-1.4-0.6-2.3
			c0-0.3,0-0.6,0.2-1.3c-0.3-0.5-0.4-0.9-0.4-1.6v-0.4l0.2-0.5l0.1-0.4c-0.4-0.5-0.4-0.8-0.8-2.4c-0.2-0.9-0.3-1.3-0.5-1.6
			c-0.1-0.1-0.1-0.2-0.1-0.2c0-0.2,0.5-0.4,1.1-0.4h0.5c-0.1-0.3-0.2-0.4-0.2-0.7c0-0.4,0.1-1,0.3-1.5c0.2-0.6,0.2-0.7,0.2-0.9
			c0-0.4-0.1-0.9-0.2-1.1l-0.3-0.7c0,0-0.1-0.3-0.1-0.4c0-0.1,0-0.1,0.2-0.1c0.7,0,2.1,0.8,3.1,1.8c1.1,1,1.4,1.8,1.4,3.3l-0.1,0.8
			c1,0.9,1.4,1.6,1.4,2.4c0,0.6-0.2,1-0.7,1.5c-1,1-1.2,1.5-1.2,2.8c0,2,0.6,3,1.6,3c1,0,1.7-1,1.8-2.5l0.1-1.4
			c0-0.4,0.1-0.8,0.2-1.3c0.1-0.3,0.1-0.8,0.1-1c0-0.5-0.3-1.1-1.3-2.2c-1-1.2-1.4-1.8-1.4-2.8c0-1.1,0.8-2,1.8-2
			c0.3,0,0.4,0,0.7,0.2c0-0.6,0-0.8,0.4-1.6c0.3-0.7,0.6-1.2,0.7-1.2c0,0,0.1,0,0.2,0.2c0.2,0.2,0.3,0.3,0.5,0.4
			c0.2,0.2,0.4,0.2,0.4,0.2c0.1,0.1,0.2,0.2,0.3,0.3c0.2-0.8,0.5-1.2,1.1-1.9c0.5-0.5,0.7-0.6,0.8-0.6s0.2,0.1,0.3,0.2l0.4,0.6
			l0.6,0.7c0.2,0.3,0.3,0.5,0.4,1.1l0.4-0.2l0.6-0.3c0,0,0.2-0.2,0.4-0.3c0.1-0.1,0.2-0.1,0.2-0.1c0.1,0,0.1,0.1,0.2,0.3l0.2,0.8
			l0.5,1c0.2,0.3,0.2,0.5,0.2,1v0.2h0.2c0.7,0,1.4,0.8,1.4,1.8c0,1.3-1,3-2.4,3.9c-0.1,0.4-0.2,0.6-0.2,1c0,2.9,0.8,3.5,5.2,4.2
			c1.1,0.2,2.1,0.4,3,0.6c0.2,0,1.1,0.4,2.9,1c1,0.3,1.6,0.5,2.2,0.5c0.6,0,0.8-0.2,0.8-0.4c0-0.5-0.7-1-3-1.8l-3.2-1.2
			c-3.2-1.3-4.7-3.2-4.7-6.1c0-3.4,2.6-5.9,5.9-5.9c1.3,0,2.5,0.3,4.3,0.9c2.3,0.8,2.4,0.9,2.7,0.9c0.4,0,0.7-0.3,0.8-1
			c0-0.6,0.2-0.8,0.5-0.8c0.4,0,0.9,0.4,1.3,1.1c0.3,0.6,0.5,1.3,0.5,1.9c0,1.2-0.6,2-1.8,2.2c-0.8,1-1.8,1.5-3,1.5
			c-1.5,0-2.2-0.3-4.7-1.8c-0.9-0.6-1.3-0.7-1.9-0.7c-0.9,0-1.5,0.6-1.5,1.3c0,0.7,0.6,1.1,1.8,1.4c0.7,0.2,0.8,0.2,1.2,0.6
			c0.3-0.1,0.4-0.1,0.6-0.1c1.2,0,2.7,0.6,3.9,1.7c2.3,0.7,4.3,3.1,4.3,5.2c0,2.3-2,4.3-4.1,4.3c-0.6,0-1.8-0.2-2.8-0.4"/>
		<path class="st3" d="M210.4,141l0.2-0.4l0.2-0.5c0,0,0.2-0.3,0.4-0.6c0.4-0.5,0.6-1.1,0.6-1.8c0-0.2,0-0.4-0.2-0.7
			c-0.1-0.2-0.1-0.2-0.1-0.3c0,0,0-0.1,0.1-0.2c0-0.1,0.1-0.1,0.2-0.1l0,0c0,0,0.2,0.1,0.4,0.2c0.2,0.2,0.3,0.3,0.4,0.3
			c0.2,0,0.3-0.3,0.4-0.7c0-0.2,0.1-0.4,0.1-0.4c0-0.2-0.2-0.6-0.3-1c-0.1-0.2-0.1-0.3-0.1-0.4c0-0.1,0.1-0.2,0.2-0.2
			c0.1,0,0.3,0.1,0.5,0.3c0.1,0.1,0.2,0.2,0.3,0.2c0.2,0,0.4-0.2,0.6-0.8c0.1-0.4,0.2-0.5,0.2-0.6c0-0.1,0-0.2-0.1-0.2h-0.1l-0.4,0
			c-0.7,0-1.6-0.5-2-1l-1-1.2c-0.4-0.5-1-1.2-0.9-1.2l-0.8-0.6c0,0-0.2-0.2-0.2-0.3c0-0.1,0.1-0.2,0.4-0.2c0.2,0,0.8,0.2,1.9,0.7
			c1,0.4,2.7,0.8,3.7,0.8c1.8,0,3.2-1.4,3.2-3.1c0-1-0.4-1.8-1.4-3c-0.2-0.2-0.5-0.4-0.7-0.4c-0.1,0-0.2,0.1-0.2,0.2s0,0.2,0.1,0.4
			c0,0.1,0.1,0.2,0.1,0.3c0,0.2-0.1,0.3-0.2,0.3c-0.2,0-0.5-0.4-0.7-1c-0.2-0.8-0.7-1.3-1.8-1.9c-0.4-0.2-1-0.4-1.2-0.4
			c-0.1,0-0.1,0.1-0.1,0.2c0,0.1,0,0.3,0.2,0.4c0.2,0.2,0.3,0.5,0.3,0.7l0,0c0,0-0.1,0.2-0.2,0.2c-0.2,0-0.3-0.1-0.8-0.9
			c-0.3-0.4-1-1-1.6-1.2c-0.2-0.1-0.4-0.1-0.6-0.2l0,0c0,0-0.2,0.1-0.2,0.2c0,0,0,0.2,0.2,0.3v0.2c0,0,0,0.2-0.1,0.2
			c-0.2,0-0.9-0.6-1.4-1.2c-0.6-0.7-1-1.5-1-2.2c0-1.4,1.4-2.6,2.8-2.6c0.4,0,0.7,0.1,0.9,0.2l1.3,0.6l1.5,1c0.9,0.6,2,1,2.8,1
			c0.3,0,0.5,0,1.2-0.2c0.4-0.1,0.6-0.2,0.6-0.4l0,0l-0.1-0.1l-0.8-0.1c-0.4,0-1.5-0.5-2.3-1l-1.7-1.1l-1.5-0.6c0,0-0.2-0.1-0.2-0.2
			s0.1-0.1,0.2-0.1c0,0,0.2,0,0.4,0.1l1.4,0.4c0.4,0.1,0.9,0.4,1.7,0.8c1.5,0.8,2.5,1.2,3.2,1.2c0.8,0,1.5-0.6,1.5-1.4
			c0-0.3,0-0.7-0.2-1c0-0.2-0.1-0.3-0.2-0.5c-0.1-0.1-0.1-0.2-0.2-0.2c-0.1,0-0.2,0.1-0.2,0.3v0.2v0.2c0,0.7-0.3,0.9-1,0.9
			c-0.6,0-1.4-0.2-3.3-1c-1.8-0.7-2.8-1-3.9-1c-2.8,0-5.2,2.2-5.2,4.8c0,2.2,1.5,3.9,4.5,5.1l3.1,1.3c2.6,1,3.5,1.8,3.5,2.8
			c0,0.8-0.8,1.4-2,1.4c-0.5,0-1.2-0.2-2.4-0.5c-2.9-0.9-4.8-1.3-6.5-1.3c-2.7,0-4.6,0.8-6.2,2.4c-0.2,0.2-0.3,0.3-0.5,0.3
			c-0.1,0-0.2,0-0.5-0.2c-0.3-0.2-0.6-0.3-0.8-0.3c-0.3,0-0.7,0.2-0.9,0.5l-0.4,0.5c0,0-0.2,0.2-0.3,0.2c-0.3,0-0.7-0.4-1-1
			c-0.2-0.3-0.3-0.6-0.4-1c0-0.2-0.1-0.6-0.1-1v-0.7l0.2-0.7c0-0.4,0.1-0.6,0.1-0.6c0-0.1,0.1-0.2,0.2-0.2c0.2,0,0.3,0.2,0.3,0.6
			v0.2v0.2c0,1,0.4,2,0.9,2c0.4,0,0.7-0.6,0.9-1.9c0-0.2,0.2-0.4,0.3-0.4c0.2,0,0.2,0.2,0.4,0.7c0.1,0.4,0.3,0.8,0.6,1.2
			c0.2,0.2,0.3,0.3,0.4,0.3c0.3,0,0.5-0.4,0.6-1.5c0.1-0.4,0.2-0.7,0.3-0.7c0,0,0.1,0,0.2,0.1c0,0,0.1,0.2,0.2,0.4
			c0.1,0.2,0.2,0.3,0.4,0.4c0.2,0.1,0.3,0.2,0.4,0.2c0.1,0,0.2,0,0.4-0.2c0.2-0.2,0.2-0.2,0.2-0.3c0,0-0.1-0.2-0.2-0.3
			c-0.2-0.2-0.4-0.6-0.6-1.2c-0.2-0.4-0.3-0.7-0.3-0.8c0-0.1-0.1-0.2-0.2-0.2h-0.1h-0.2c0,0-0.3,0.1-0.8,0.2h-0.2c0,0-0.2,0-0.2-0.1
			c0-0.1,0.1-0.3,0.3-0.4c0.9-0.7,1.5-2,1.7-3.7c0.1-1.1,0.3-1.5,0.7-2.2c0.1-0.1,0.2-0.2,0.2-0.2c0.2,0,0.2,0.1,0.2,0.3
			c0,0.2,0,0.3-0.1,0.5c0,0.2-0.1,0.3-0.1,0.4v0.1l0.1,0.2l0.4-0.2l0.4-0.5c0.3-0.3,0.5-1,0.5-1.5c0-0.4-0.1-0.6-0.3-0.8
			c-0.2-0.3-0.4-0.4-0.6-0.4h-0.2H201c-0.2,0-0.4-0.1-0.4-0.2l0.1-0.3v-0.4l-0.2-0.9l-0.2-0.4l-0.1-0.4l-0.2,0.2l-0.6,0.3
			c0,0-0.3,0.2-0.4,0.4c-0.5,0.6-0.6,0.7-0.8,0.7c-0.1,0-0.2,0-0.2-0.1v-0.2c0.1-0.3,0.1-0.6,0.1-0.8c0-0.6-0.5-1.6-1-2.1
			c-0.8,0.7-1.2,1.5-1.2,2.3v0.4c0,0,0,0.2-0.2,0.2l0,0c0,0-0.2-0.1-0.2-0.2l-0.4-0.6c0,0-0.2-0.2-0.6-0.5c-0.1,0-0.2-0.1-0.3-0.2
			l-0.2,0.3c-0.4,0.7-0.5,1.2-0.5,1.8c0,0.5,0,0.6-0.2,0.6c0,0-0.1,0-0.2-0.1c-0.6-0.3-0.6-0.3-0.8-0.3c-0.6,0-1.1,0.5-1.1,1.2
			c0,0.3,0.2,0.7,0.4,1.2c0.3,0.6,0.8,1.2,1.1,1.2c0.1,0,0.1,0,0.1-0.2v-0.1v-0.6l-0.1-0.5v-0.1c0,0,0-0.2,0.2-0.2
			c0.3,0,0.6,1,0.9,2.9c0.2,1.7,0.7,2.9,1.4,3.5c0.2,0.2,0.3,0.3,0.3,0.4s-0.1,0.1-0.2,0.1c-0.1,0-0.3-0.1-0.5-0.2
			c-0.1-0.1-0.3-0.1-0.4-0.1c-0.4,0-0.8,0.4-0.8,0.9l-0.3,2.1l-0.2,2.9c0,0.6,0,1.3,0.2,2.2c0.2,0.8,0.2,1.4,0.2,1.7
			c0,2.2-1.4,3.9-3.6,4.6l-2.4,0.7c-1.5,0.4-2.2,1.4-2.4,3.2c0.4-0.3,0.5-0.4,1.1-0.4l0.7-0.1c0.3,0,0.5-0.1,0.6-0.2
			c0.1,0,0.2-0.2,0.4-0.4l0.6-0.7c0.2-0.3,0.4-0.4,0.6-0.4c0.1,0,0.2,0.1,0.2,0.2c0,0.1-0.1,0.4-0.2,0.6c-0.2,0.3-0.3,0.6-0.3,1
			c0,0.5,0.1,0.8,0.6,1.4c0.1-0.2,0.1-0.4,0.2-0.4c0.1-0.1,0.2-0.4,0.6-0.8c0.5-0.6,0.9-1.4,0.9-1.6c0-0.6,0.1-0.8,0.2-0.8
			c0.1,0,0.2,0,0.2,0.4c0,0.1,0,0.2,0.1,0.2c0.1,0.1,0.2,0.2,0.2,0.2c0,0,0.2,0,0.3-0.2c0.2-0.2,0.4-0.4,0.6-0.5
			c0.2-0.2,0.3-0.4,0.4-0.7c0.1-0.3,0.2-0.6,0.2-0.7v-0.5c0,0,0-0.2,0.1-0.2c0.1,0,0.3,0.2,0.4,0.4c0.1,0.2,0.1,0.2,0.2,0.2l0,0
			c0,0,0.2-0.1,0.3-0.2c0.4-0.4,0.7-1,0.7-1.4v-0.7l-0.2-0.6l0,0c0,0,0.1-0.2,0.2-0.2c0.2,0,0.4,0.2,0.6,0.8
			c0.1,0.2,0.2,0.4,0.3,0.4c0.2,0,0.3-0.1,0.6-0.6l0.3-0.5c0,0,0.1-0.2,0.1-0.4c0-0.1,0-0.2-0.1-0.4l-0.3-0.4c0,0-0.1-0.2-0.1-0.4
			c0-0.5,0.2-1.1,0.6-1.7c0.3-0.5,0.4-0.8,0.5-0.9c0-0.2,0.1-0.2,0.2-0.2s0.1,0.1,0.1,0.2v0.4v0.3v0.3c0,0,0.1,0.2,0.3,0.2
			c0.1,0,0.2,0,0.4-0.1l0.9-0.3c0.2-0.1,0.5-0.2,0.8-0.4c1.4-0.8,1.9-1,2.6-1c0.4,0,1,0.2,1.7,0.5c0.2,0.1,0.3,0.1,0.4,0.1
			c0.1,0,0.2-0.1,0.3-0.2c0.1-0.1,0.1-0.2,0.1-0.3c0-0.1,0-0.3-0.2-0.4c-0.1-0.2-0.2-0.4-0.2-0.6c0-0.1,0.1-0.2,0.2-0.2
			c0.1,0,0.2,0.1,0.3,0.2c0.1,0.2,0.4,0.7,0.8,1.5c0.7,1.2,1.6,2.1,2.4,2.2l1.6,0.4c0.5,0.1,0.6,0.3,0.6,0.9c0,1.1-0.5,2.2-1.5,2.7
			l-1.3,0.8c-0.5,0.3-0.9,1.2-0.9,1.8c0,0.4,0.1,1.2,0.2,1.9l0.2-0.2l0.6-0.4l0.6-0.6l0.3-0.8l0.3-0.7c0.2-0.4,0.3-0.6,0.4-0.6
			s0.2,0.2,0.2,0.6v0.1v0.1c0,0.5,0.1,0.8,0.5,1.6"/>
		<path class="st3" d="M188.8,151.4c0-1.8,0.6-2.5,3.1-3.8c5-2.5,7.7-4.8,7.7-6.6c0-0.4-0.1-0.9-0.4-2c-0.2-0.7-0.3-1.2-0.3-1.6
			c0-0.8,0.7-2,1.5-2.8l0.7-0.6c0.4-0.4,0.7-0.8,0.7-1.2v-0.2v-0.2c0-0.4,0.2-0.5,0.5-0.5h0.3l0.3-0.1c0.1,0,0.2,0.1,0.3,0.2
			l0.2,0.3l0.2,0.3c0,0,0.2,0.2,0.2,0.2c0,0,0.2,0,0.3-0.1c0.2-0.1,0.3-0.1,0.4-0.1c0.2,0,0.3,0.1,0.3,0.3c0,0.7-0.5,1.8-1.3,2.9
			c-1.4,1.9-1.9,2.9-1.9,4.1c0,1,0.3,1.8,0.8,2.5c0.1,0.1,0.2,0.2,0.2,0.3c0,0.1-0.1,0.3-0.2,0.5c-0.1,0.1-0.1,0.2-0.2,0.3
			c-0.3,0.4-0.5,0.6-0.7,0.6c-0.2,0-0.3-0.1-0.4-0.3l-0.2-0.4c0,0-0.1-0.2-0.2-0.2c0,0-0.1,0.1-0.2,0.2c-0.1,0.1-0.2,0.3-0.2,0.4
			v0.6c0,0.2-0.1,0.5-0.2,0.7c-0.2,0.2-0.3,0.4-0.5,0.6c-0.1,0.1-0.2,0.2-0.3,0.2c-0.1,0-0.2-0.1-0.3-0.3l-0.2-0.7
			c0,0-0.1-0.2-0.2-0.2c-0.1,0-0.2,0.2-0.2,0.5c-0.1,0.8-0.2,1.3-0.4,1.6l-0.5,0.5c0,0-0.4,0.3-0.5,0.3s-0.2,0-0.2-0.1l-0.2-0.6
			c0,0-0.1-0.1-0.2-0.1c-0.2,0-0.2,0.3-0.3,0.8c-0.1,1.3-0.4,1.9-1.1,2.4c-0.6,0.4-0.7,0.5-0.9,1c-0.3-0.5-0.4-0.9-0.4-1.5
			c0-0.3,0-0.5,0.2-0.7c0.2-0.3,0.2-0.5,0.2-0.6c0-0.1,0-0.2-0.1-0.2c0,0-0.1,0-0.2,0.2c-0.1,0.1-0.3,0.2-0.5,0.4
			c-0.6,0.4-0.8,0.5-0.9,1.2c-0.2,1-0.7,1.4-1.7,1.6c-1.2,0.2-1.3,0.3-1.8,0.7v-0.6V151.4z"/>
		<path class="st3" d="M186.4,113.7v0.9c0,0,0,0.3-0.1,0.6c-0.1,0.5-0.2,0.7-0.2,0.8c0,0.7,0.1,1,0.5,1.8c0.2,0.4,0.4,0.9,0.4,1.2
			c0,0.2,0,0.2-0.2,0.2c-0.1,0-0.1,0-0.2-0.1l-0.3-0.4c-0.2-0.3-0.4-0.4-1-0.4h-0.6c0.2,0.7,0.3,0.9,0.4,1.3c0.3,1.2,0.3,1.3,1,1.9
			c0.6,0.6,0.7,0.7,0.7,0.9c0,0.2-0.1,0.3-0.2,0.3h-0.2l-0.2,0c-0.2,0-0.4,0.4-0.4,0.8c0,0.2,0.1,0.6,0.2,0.9
			c0.1,0.2,0.2,0.4,0.2,0.4l0.4,0.4c0,0,0.2,0.2,0.2,0.4c0,0.2-0.1,0.3-0.2,0.3c-0.1,0-0.2,0-0.3-0.1c-0.1,0-0.2-0.1-0.2-0.1
			c-0.2,0-0.2,0.1-0.2,0.3v0.6l0.3,1c0,0.2,0.2,0.4,0.4,0.7c0.2,0.2,0.4,0.4,0.6,0.4c0.5,0.2,0.7,0.3,0.7,0.3c0.1,0,0.1,0.2,0.1,0.3
			s-0.1,0.2-0.2,0.2c0,0-0.2,0-0.4-0.1h-0.4c-0.4,0-0.4,0-0.4,0.3c0,0.2,0,0.4,0.1,0.6l0.2,0.6c0.2,0.6,0.4,1,0.6,1
			c0,0,0.2,0,0.3-0.2c0.5-0.4,1.6-0.8,2.3-0.8s1.5,0.1,1.8,0.2c0.2,0,0.3,0.1,0.4,0.1s0.1-0.1,0.1-0.4l0.1-0.7l0.2-1.1l0.1-0.8v-0.5
			c0,0-0.2,0.2-0.3,0.2c-0.6,0.6-1,0.8-1.7,0.8c-1.7,0-2.6-1.9-2.6-5.2c0-1.4,0.2-3.3,0.6-5.5c0.1-0.5,0.1-0.8,0.1-1
			c0-1.2-0.8-2.4-2.1-3.2"/>
		<path class="st3" d="M188.8,121.9l0.3-0.3l0.3-0.3c0.3-0.2,0.5-0.8,0.5-1.1c0-0.2,0-0.3-0.1-0.5c-0.1-0.3-0.4-0.5-0.5-0.5
			c-0.1,0-0.2,0.3-0.3,0.8l-0.1,0.6l-0.1,0.6v0.6V121.9L188.8,121.9z"/>
		<path class="st3" d="M185.6,136.8c0.4,0.1,0.4,0.2,0.8,0.6c0.5,0.6,0.8,0.7,1.5,0.7c0.2,0,0.4,0,0.5-0.1l0.5-0.2l0.4-0.1
			c0,0,0.3-0.1,0.3-0.2c0-0.1-0.3-0.3-0.7-0.6c-0.3-0.2-0.6-0.4-0.9-0.5c-0.3-0.2-0.6-0.2-0.8-0.2
			C186.6,136.3,186.2,136.4,185.6,136.8"/>
		<path class="st3" d="M190.6,147.1c0-1.2,1.2-2.2,2.6-2.2c0.7,0,1.1,0.2,1.1,0.4c0,0.2-0.3,0.4-1,0.8c-0.1,0-0.4,0.2-1.1,0.6
			c-0.7,0.4-1,0.5-1.6,0.8L190.6,147.1L190.6,147.1z"/>
		<path class="st3" d="M205.5,138.3c0.5-0.1,0.7-0.2,1-0.2h0.7c0,0,0.2-0.1,0.4-0.3c0.1-0.1,0.3-0.2,0.5-0.4
			c0.7-0.5,0.8-0.5,0.8-0.7c0-0.2-0.3-0.3-0.9-0.3C206.7,136.4,206.1,137,205.5,138.3"/>
		<path d="M194.4,116l0.5,0.3c0.3,0.2,0.5,0.3,0.7,0.4c0.6,0.2,0.8,0.3,0.8,0.5c0,0.1,0,0.3-0.1,0.4c0,0.2-0.1,0.3-0.1,0.5
			c0,0.5-0.4,0.6-0.6,0.6c-0.2,0-0.5-0.4-0.9-1.1c-0.2-0.3-0.4-1-0.6-1.5V116c0,0,0-0.2,0.1-0.2"/>
		<path d="M199.4,117.3l-0.8,0.8c-0.3,0.4-0.3,0.7-0.4,0.8c0,0-0.2,0.1-0.2,0.1h0c-0.2,0-0.4-0.2-0.4-0.4V118l-0.1-0.6l0,0
			c0-0.3,0.1-0.4,0.3-0.4l0.8-0.2l0.8-0.4c0.2-0.1,0.3-0.2,0.4-0.2c0.1,0,0.2,0.1,0.2,0.2c0,0,0,0.1-0.1,0.2L199.4,117.3
			L199.4,117.3z"/>
		<path d="M195.6,119.8l0.6,0.4c0,0,0.3,0.1,0.5,0.1c0.2,0,0.6-0.1,0.9-0.2l0.5-0.2c0,0,0.2-0.1,0.3-0.1c0.3,0,0.5,0.3,0.5,0.7
			c0,0.6-0.4,1.1-1,1.9l-0.4,0.8c-0.3,0.4-0.5,0.6-0.8,0.6c-0.4,0-0.6-0.2-1.3-1.6c-0.5-0.9-0.7-1.5-0.7-2c0-0.4,0.2-0.6,0.5-0.6
			C195.3,119.7,195.5,119.7,195.6,119.8"/>
		<path class="st3" d="M196.1,121.8v0.7c0,0.3,0.3,0.6,0.6,0.6c0.3,0,0.6-0.5,0.7-1.3c0.1-0.4,0.1-0.4,0.1-0.5
			c0-0.3-0.1-0.4-0.4-0.4h-0.2h-0.2h-0.2c-0.2,0-0.3,0.2-0.3,0.6"/>
	</g>
	<g>
		<path d="M154.9,105.2h3.6v7.3h4.2v-7.3h10.6v7.3h4.2v-7.3h3.6V86.4H177l-0.2-0.2c-0.5-0.7-1.2-1.1-2-1.1c-0.8,0-1.5,0.5-1.9,1.3
			h-3c-0.3-0.8-1.1-1.3-2-1.3c-0.9,0-1.7,0.5-2.1,1.3h-3.2c-0.5-1-1.1-1.3-2-1.3c-0.9,0-1.5,0.4-2,1.3h-3.9L154.9,105.2L154.9,105.2
			z"/>
		<rect x="156.5" y="87.9" class="st2" width="23.2" height="15.9"/>
		<path class="st3" d="M158.9,91.5c-0.6,0-1.1,0.5-1.1,1.1s0.5,1.1,1.1,1.1c0.6,0,1.1-0.5,1.1-1.1S159.5,91.5,158.9,91.5"/>
		<path d="M158.9,93.9c-0.7,0-1.2-0.6-1.2-1.3c0-0.7,0.6-1.2,1.2-1.2s1.3,0.6,1.3,1.2S159.6,93.9,158.9,93.9z M158.9,91.7
			c-0.5,0-1,0.4-1,1c0,0.5,0.4,1,1,1c0.5,0,1-0.4,1-1C159.8,92.1,159.4,91.7,158.9,91.7z"/>
		<path class="st3" d="M177.1,91.5c-0.6,0-1.1,0.5-1.1,1.1s0.5,1.1,1.1,1.1c0.6,0,1.1-0.5,1.1-1.1S177.8,91.5,177.1,91.5"/>
		<path d="M177.1,93.9c-0.7,0-1.3-0.6-1.3-1.3c0-0.7,0.6-1.2,1.3-1.2s1.3,0.6,1.3,1.2S177.9,93.9,177.1,93.9z M177.1,91.7
			c-0.5,0-1,0.4-1,1c0,0.5,0.4,1,1,1s1-0.4,1-1C178.1,92.1,177.7,91.7,177.1,91.7z"/>
		<path class="st3" d="M158.9,100.2c-0.6,0-1.1,0.5-1.1,1.1c0,0.6,0.5,1.1,1.2,1.1c0.6,0,1.1-0.5,1.1-1.1
			C160,100.7,159.5,100.2,158.9,100.2"/>
		<path d="M158.9,102.6c-0.7,0-1.3-0.6-1.3-1.2s0.6-1.3,1.2-1.3s1.3,0.6,1.3,1.3C160.2,102,159.6,102.6,158.9,102.6z M158.9,100.4
			c-0.5,0-1,0.4-1,1c0,0.5,0.4,1,1,1c0.5,0,0.9-0.4,0.9-1C159.8,100.8,159.4,100.4,158.9,100.4z"/>
		<path class="st3" d="M177.1,100.2c-0.6,0-1.1,0.5-1.1,1.1c0,0.6,0.5,1.1,1.1,1.1c0.6,0,1.1-0.5,1.1-1.1
			C178.3,100.7,177.8,100.2,177.1,100.2"/>
		<path d="M177.1,102.6c-0.7,0-1.3-0.6-1.3-1.2s0.6-1.3,1.3-1.3s1.3,0.6,1.3,1.3C178.4,102,177.9,102.6,177.1,102.6z M177.1,100.4
			c-0.5,0-1,0.4-1,1c0,0.5,0.4,1,1,1s1-0.4,1-1C178.1,100.8,177.7,100.4,177.1,100.4z"/>
		<path class="st3" d="M162.4,96.8c1.5,1.9,3.4,2.8,5.7,2.8c2.2,0,3.7-0.8,5.4-2.8c-1.8-1.8-3.4-2.6-5.5-2.6
			C165.8,94.3,163.8,95.2,162.4,96.8"/>
		<path d="M163.5,96.8c1.6-1.2,2.8-1.7,4.5-1.7s2.8,0.5,4.4,1.7c-1.4,1.4-2.6,1.9-4.5,1.9C166.3,98.7,164.8,98.1,163.5,96.8"/>
		<path class="st3" d="M165.3,96.5c0.9,0.6,1.7,0.8,2.5,0.8c1,0,1.9-0.2,2.7-0.8c-0.9-0.4-1.8-0.6-2.6-0.6
			C167,95.9,166.1,96.1,165.3,96.5"/>
		<rect x="156.1" y="88.7" width="23.9" height="0.8"/>
		<path d="M180.1,89.6h-24v-0.9h24V89.6z M156.2,89.5H180v-0.7h-23.8V89.5z"/>
		<path class="st3" d="M159.8,87.7V90c0,0.6,0.4,1,1,1c0.6,0,1-0.4,1-1v-2.2c0-0.9-0.4-1.4-0.9-1.4c-0.1,0-0.3,0-0.4,0.1
			c-0.1,0-0.2,0.1-0.2,0.2c-0.1,0.1-0.2,0.2-0.2,0.3c-0.1,0.2-0.2,0.3-0.2,0.4"/>
		<path class="st3" d="M167,89.6V90c0,0.6,0.4,1,1,1c0.6,0,1-0.4,1-1v-2.2c0-0.9-0.4-1.4-0.9-1.4c-0.6,0-1.1,0.5-1.1,1.4"/>
		<path class="st3" d="M174,87.7V90c0,0.6,0.4,1,1,1c0.6,0,1-0.4,1-1v-2.2c0-0.9-0.4-1.4-0.9-1.4c-0.1,0-0.3,0-0.4,0.1
			c-0.1,0-0.2,0.1-0.2,0.2c-0.1,0.1-0.2,0.2-0.2,0.3c-0.1,0.2-0.2,0.3-0.2,0.4"/>
		<rect x="159.3" y="106.9" class="st3" width="2.2" height="2.8"/>
		<rect x="159.3" y="110.4" class="st3" width="2.2" height="0.9"/>
		<rect x="174.1" y="106.9" class="st3" width="2.2" height="2.8"/>
		<rect x="174.1" y="110.4" class="st3" width="2.2" height="0.9"/>
	</g>
</g>
<g>
	<path class="st0" d="M74,293.9c1,0.1,2,0.2,3.3,0.2c4.1,0,5.7,0,6.3-3.4c0.1-0.4,0.4-0.7,0.8-0.7c0.3,0,0.7,0.2,0.7,0.5
		c0,1.2-0.2,2.5-0.2,4.7c0,2.4,0.2,3.2,0.2,4.1c0,0.4-0.3,0.5-0.7,0.5c-0.4,0-0.8-0.2-0.8-0.7c-0.4-3.1-2.1-3.1-6.2-3.1
		c-1.2,0-2.4,0.1-3.4,0.2v2.4c0,4.8,0.1,6.7,0.2,7.7c0.3,2.1,1.8,2.4,6.5,2.4c4.7,0,6.1-2.9,7.2-5.4c0.2-0.4,0.5-0.6,0.8-0.6
		c0.4,0,0.7,0.2,0.6,0.7l-1,6.6c-0.1,0.7-0.7,0.9-1.2,0.9H66c-0.4,0-0.5-0.3-0.5-0.7c0-0.4,0.2-0.7,0.7-0.8c2.9-0.4,3.3-0.9,3.5-3
		c0.1-1,0.2-2.8,0.2-7.7v-6c0-4.8-0.1-7-0.2-8c-0.2-2.1-0.4-2.6-3.3-3c-0.4-0.1-0.7-0.4-0.7-0.8c0-0.3,0.2-0.7,0.5-0.7h20
		c1,0,1.2,0.4,1.2,1.4v5.8c0,0.4-0.4,0.7-0.7,0.7c-0.4,0-0.8-0.2-0.8-0.8c-0.3-3.3-1.9-5.1-4.5-5.1h-5.3c-0.6,0-1.7,0.1-2.1,0.2
		L74,293.9L74,293.9z"/>
	<path class="st0" d="M100,306.5c0,2.2,0.4,2.5,3.2,2.9c0.4,0.1,0.7,0.5,0.7,0.9c0,0.3-0.2,0.7-0.5,0.7H92.4c-0.4,0-0.5-0.3-0.5-0.7
		c0-0.4,0.2-0.7,0.7-0.8c2.9-0.4,3.3-0.9,3.5-3c0.1-1,0.2-2.9,0.2-5.2v-1.5c0-4.4-0.1-7.4-3-7.4h-0.9c-0.4,0-0.6-0.4-0.6-0.7
		c0-0.3,0.2-0.7,0.6-0.8c1.4-0.4,5.3-1,6.3-1c1.3,0,1.4,0.8,1.4,2.9l2-1.1c1.4-0.8,3.7-2.2,6.3-2.2c3.1,0,5.6,1.6,5.6,5.5v11.6
		c0,2.2,0.4,2.5,3.2,2.9c0.4,0.1,0.7,0.5,0.7,0.9c0,0.3-0.2,0.7-0.5,0.7h-11.1c-0.4,0-0.5-0.3-0.5-0.7c0-0.4,0.2-0.7,0.7-0.8
		c2.9-0.4,3.5-0.4,3.5-8.9v-4.2c0-3.3-1.7-3.8-3.3-3.8c-2.1,0-3.9,0.9-6.6,2.3L100,306.5L100,306.5z"/>
	<path class="st0" d="M126.4,305.2c0,2.2,1.2,3.1,3.1,3.1c1.7,0,2.8-0.6,3.3-0.6c0.2,0,0.4,0.1,0.4,0.4c0,0.9-3.2,3.3-6.4,3.3
		c-2.6,0-4.7-1.6-4.7-4.9c0-3.6,0.2-11.2,0.2-14.6H120c-0.6,0-0.9-0.2-0.9-0.6c0-0.7,1.3-1.2,3.4-3.5c2.3-2.5,2.6-3.3,3.3-3.3
		c0.3,0,0.5,0.2,0.5,0.8v4.6c1.7-0.1,4.2-0.3,5.2-0.3c0.8,0,1.2,0.6,1.2,1.2c0,0.5-0.4,1.3-1.3,1.3h-5.1L126.4,305.2L126.4,305.2z"
		/>
	<path class="st0" d="M144.9,311.4c-5.1,0-9.8-3.2-9.8-10.1s4.1-11.9,10.6-11.9c2.9,0,7.1,1.7,7.1,7.9c0,1.3-1.1,1.9-2.3,1.9
		l-11.4,0.3c0,6.2,3.1,8.4,6.7,8.4c5,0,5.7-3.1,6.7-3.1c0.4,0,0.5,0.3,0.5,0.7C153,308.4,149.2,311.4,144.9,311.4L144.9,311.4z
		 M139.2,297.7l7.7-0.4c1.2-0.1,1.7-0.7,1.7-1.3c0-3.2-1.7-4.3-3.7-4.3C141.9,291.5,139.7,294.2,139.2,297.7L139.2,297.7z"/>
	<path class="st0" d="M170.4,289.4c1.8,0,3.1,1,3.1,3c0,2-2.1,2.6-2.7,2.6c-0.2-0.6-0.8-1.4-1.9-1.4c-1.8,0-4.5,2.8-4.5,6.7
		c0,4.3,0.1,5.2,0.2,6.2c0.3,2.1,1.7,2.6,4.5,3c0.4,0.1,0.7,0.4,0.7,0.8c0,0.3-0.2,0.7-0.7,0.7h-12c-0.5,0-0.7-0.3-0.7-0.7
		c0-0.4,0.2-0.7,0.7-0.8c2.9-0.4,3.3-0.9,3.5-3c0.1-1,0.2-2.9,0.2-5.2v-2.4c0-4.4-0.2-6.4-3.1-6.4h-0.7c-0.6,0-0.8-0.4-0.8-0.7
		c0-0.3,0.2-0.7,0.6-0.8c1.4-0.4,4.9-1,5.9-1c1.3,0,1.9,2.8,1.9,5.8C166.3,290.6,168.4,289.4,170.4,289.4L170.4,289.4z"/>
	<path class="st0" d="M182.3,311.4c0,2.4,0.2,4.2,0.3,5.2c0.3,2.1,0.4,2.5,3.1,3c0.4,0.1,0.7,0.4,0.7,0.8c0,0.3-0.2,0.7-0.5,0.7
		h-11.1c-0.4,0-0.5-0.3-0.5-0.7c0-0.4,0.2-0.7,0.7-0.8c2.9-0.4,3.3-0.9,3.5-3c0.1-1,0.2-2.9,0.2-5.2v-8c0-8.6-0.2-11.1-3.1-11.1
		h-0.7c-0.5,0-0.7-0.4-0.7-0.7c0-0.3,0.2-0.7,0.6-0.8c1.4-0.4,5.6-1,6.5-1s1.1,1.4,1.1,3.6c0.9-1.6,3.3-4,6.8-4
		c4.8,0,8.5,3.7,8.5,9.6c0,7.9-4.9,12.3-11.4,12.3c-1.5,0-3-0.4-3.7-1.2L182.3,311.4L182.3,311.4z M182.3,305.5c0,2.1,1.4,3.8,4,3.8
		c4,0,6.6-3.6,6.6-8.9c0-3.8-1.3-8-5.5-8c-2.5,0-4.3,1.7-5.2,3.6L182.3,305.5L182.3,305.5z"/>
	<path class="st0" d="M215.1,289.4c1.8,0,3.1,1,3.1,3c0,2-2.1,2.6-2.7,2.6c-0.2-0.6-0.8-1.4-1.9-1.4c-1.8,0-4.5,2.8-4.5,6.7
		c0,4.3,0.1,5.2,0.2,6.2c0.3,2.1,1.7,2.6,4.5,3c0.4,0.1,0.7,0.4,0.7,0.8c0,0.3-0.2,0.7-0.7,0.7h-12c-0.5,0-0.7-0.3-0.7-0.7
		c0-0.4,0.2-0.7,0.7-0.8c2.9-0.4,3.3-0.9,3.5-3c0.1-1,0.2-2.9,0.2-5.2v-2.4c0-4.4-0.2-6.4-3.1-6.4h-0.7c-0.6,0-0.8-0.4-0.8-0.7
		c0-0.3,0.2-0.7,0.6-0.8c1.4-0.4,4.9-1,5.9-1c1.3,0,1.9,2.8,1.9,5.8C211,290.6,213.2,289.4,215.1,289.4L215.1,289.4z"/>
	<path class="st0" d="M227.9,299.8v1.5c0,2.4,0.1,4.2,0.2,5.2c0.3,2.1,0.4,2.6,3.1,3c0.4,0.1,0.7,0.4,0.7,0.8c0,0.3-0.2,0.7-0.5,0.7
		h-11.1c-0.4,0-0.5-0.3-0.5-0.7c0-0.4,0.2-0.7,0.7-0.8c2.9-0.4,3.3-0.9,3.5-3c0.1-1,0.2-2.9,0.2-5.2v-1.5c0-4.4-0.1-7.4-3-7.4h-0.9
		c-0.4,0-0.6-0.4-0.6-0.7c0-0.3,0.2-0.7,0.6-0.8c1.4-0.4,5.5-1,6.4-1c0.8,0,1.4,0.5,1.4,1.7S227.8,295.3,227.9,299.8L227.9,299.8z
		 M225.4,279.4c1.5,0,2.8,1.3,2.8,2.8c0,1.5-1.3,2.8-2.8,2.8s-2.8-1.3-2.8-2.8C222.6,280.6,223.8,279.4,225.4,279.4z"/>
	<path class="st0" d="M248.5,292.8c0,1.7-1.2,2.4-3.3,2.4c-0.1-1.8-0.7-3.7-3.4-3.7c-1.9,0-3.1,0.9-3.1,2.4c0,1.7,1.1,2.4,4.2,4.3
		c3.9,2.3,6.5,3.9,6.5,7.6c0,4.3-4.5,5.7-8.3,5.7c-4.5,0-7.1-1.1-7.1-3.6c0-1.9,1.7-3,3.6-2.7c0,1.6,0,4.1,3.7,4.1
		c2.5,0,4.3-0.6,4.3-2.7c0-1.8-1.2-2.8-5.3-5.1c-2.8-1.6-5.4-3.3-5.4-6.7c0-4,4-5.4,7.2-5.4C244.6,289.4,248.5,290,248.5,292.8
		L248.5,292.8z"/>
	<path class="st0" d="M263.1,311.4c-5.1,0-9.8-3.2-9.8-10.1s4.1-11.9,10.6-11.9c2.9,0,7.1,1.7,7.1,7.9c0,1.3-1.1,1.9-2.3,1.9
		l-11.4,0.3c0,6.2,3.1,8.4,6.7,8.4c5,0,5.7-3.1,6.7-3.1c0.4,0,0.5,0.3,0.5,0.7C271.2,308.4,267.4,311.4,263.1,311.4L263.1,311.4z
		 M257.5,297.7l7.7-0.4c1.2-0.1,1.7-0.7,1.7-1.3c0-3.2-1.7-4.3-3.7-4.3C260.2,291.5,257.9,294.2,257.5,297.7L257.5,297.7z"/>
</g>
</svg>
