<?xml version="1.0" encoding="UTF-8"?> <svg xmlns="http://www.w3.org/2000/svg" width="2372" height="1816" viewBox="0 0 2372 1816" fill="none"> <path d="M387.501 950.319L392.441 949.803L397.637 949.022L409.848 947.461L423.355 944.596L437.125 941.478L450.639 937.576L464.668 933.41L478.695 928.47L489.351 925.085L493.767 923.007L497.924 920.406L501.558 917.024L504.936 913.382L507.537 908.959L574.828 767.439L682.646 1036.43L683.949 1039.55L685.768 1042.41L688.106 1045.02L690.7 1047.1L693.822 1048.92L696.936 1049.96L700.313 1050.74H703.691L795.404 1051L627.57 690.696H528.319L387.501 950.319Z" fill="#29756E"></path> <path d="M857.762 712.288V647.251L693.821 736.742L692.259 737.522L688.881 738.819L685.247 739.864H681.87L679.012 739.343L675.891 738.303L673.296 737.262L672.257 736.742L673.552 740.904L676.154 749.229L679.532 757.814L683.948 766.399L689.145 774.203L694.597 780.707L699.793 785.389L704.47 787.991L708.887 789.031H713.307L717.46 788.511L720.582 787.471L723.176 786.43L724.215 785.65L857.762 712.288Z" fill="#B01E24"></path> <path d="M1186.42 935.494H1184.6L1183.04 935.755L1181.49 936.015L1180.45 936.539L1179.15 937.312L1178.11 938.096L1177.07 939.133L1176.29 940.434L1163.82 961.506H1220.2V998.71L1215.78 1000.01L1211.88 1001.05L1208.24 1001.83L1204.35 1002.61L1200.71 1003.39L1195.77 1003.91L1191.88 1004.43L1188.5 1004.69H1177.33L1173.43 1004.17L1167.98 1003.65L1164.6 1003.13L1161.22 1002.35L1157.84 1001.58L1154.46 1000.53L1151.35 999.231L1147.45 997.149L1144.33 995.328L1141.74 993.247L1139.13 991.166L1136.54 988.821L1134.2 986.48L1131.86 983.882L1130.04 981.017L1127.7 977.114L1126.15 973.996L1124.84 970.614L1123.81 967.229L1123.03 963.847L1122.25 960.205L1121.73 956.827L1121.47 953.184V942.775L1121.99 939.397L1122.77 936.275L1123.81 932.889L1124.84 929.771L1126.15 926.649L1127.7 923.524L1129.01 921.703L1131.08 918.845L1133.42 916.24L1135.76 913.638L1138.36 911.301L1140.96 909.22L1144.59 906.878L1147.71 905.057L1151.09 903.236L1154.73 901.935L1158.1 900.631L1163.04 899.334L1166.93 898.55L1170.83 898.033L1174.47 897.513L1178.37 897.253L1182.26 896.989L1186.16 896.729H1189.8L1193.69 896.989L1197.59 897.253L1201.49 897.773L1205.39 898.297L1209.28 898.81L1213.18 899.594L1217.08 900.114L1220.97 900.891L1224.87 901.935L1228.77 902.712L1232.67 903.756L1236.3 904.793L1240.2 905.838L1242.02 906.354V879.299L1237.6 877.998L1233.97 876.701L1230.07 875.657L1226.17 874.88L1222.53 874.096L1218.64 873.319L1214.74 872.539L1207.72 871.502L1203.83 870.978L1199.93 870.458L1196.03 870.194L1192.14 869.934L1188.5 869.674H1168.75L1164.86 869.934L1160.96 870.194L1157.06 870.718L1153.42 871.238L1149.79 871.755L1145.89 872.799L1142.26 873.836L1137.32 875.14L1133.68 876.181L1130.3 877.478L1126.67 879.042L1123.55 880.603L1120.17 882.164L1117.05 884.245L1113.93 886.066L1110.3 888.671L1107.44 891.006L1104.58 893.347L1101.98 895.952L1099.39 898.81L1096.79 901.415L1094.71 904.273L1092.63 907.399L1090.55 910.517L1088.73 913.638L1086.4 918.061L1085.1 921.19L1083.79 924.828L1082.5 928.21L1081.72 931.852L1080.68 935.494L1080.16 939.133L1079.64 942.775L1079.38 947.461V954.745L1079.9 958.384L1080.42 962.29L1080.94 965.928L1081.98 969.57L1082.76 973.212L1084.06 976.598L1085.36 979.98L1087.17 983.882L1088.73 987.264L1090.55 990.382L1092.37 993.507L1094.45 996.626L1096.79 999.491L1098.87 1002.35L1101.46 1004.95L1104.58 1007.81L1107.7 1010.16L1110.82 1012.24L1114.2 1014.32L1117.57 1016.14L1120.95 1017.96L1124.33 1019.78L1127.97 1021.08L1131.34 1022.64L1134.98 1023.94L1139.13 1025.24L1143.03 1026.03L1146.93 1026.8L1150.83 1027.33L1154.73 1027.85L1158.62 1028.37L1162.78 1028.62L1166.41 1029.14L1170.58 1029.41H1174.47L1181.22 1029.67L1185.12 1029.41H1188.76L1192.66 1029.14L1196.81 1028.88L1200.71 1028.62L1204.61 1028.11L1208.5 1027.59L1212.4 1027.06L1216.56 1026.8L1220.2 1026.03L1224.1 1025.51L1227.99 1024.72L1231.89 1023.94L1235.78 1023.42L1239.68 1022.38L1243.58 1021.34L1247.48 1020.56L1251.37 1019.52L1254.75 1018.48V935.494H1186.42ZM1341.27 687.834L1344.13 688.094L1347.5 688.875L1350.1 689.655L1352.18 690.435L1354.52 691.736L1356.34 693.037L1358.16 694.598L1359.97 696.419L1361.79 698.76L1362.84 701.101L1363.87 703.183L1364.39 705.524L1364.91 708.125V711.768L1364.65 714.109L1364.13 716.19L1363.35 718.531L1362.05 720.613L1360.49 722.694L1358.93 724.775L1356.34 727.116L1354 728.677L1351.4 729.978L1348.8 730.758L1346.2 731.799L1343.61 732.319L1340.75 732.579H1315.03L1313.73 732.839L1312.17 733.36L1311.13 733.62L1309.83 734.4L1308.79 735.441L1308.01 736.482L1307.49 737.002L1295.8 758.334L1332.7 758.074L1370.11 814.006H1414.27L1371.41 748.708L1375.05 747.668L1378.16 746.367L1381.28 744.806L1385.44 742.725L1388.29 740.904L1390.89 739.083L1393.49 737.002L1395.83 734.661L1397.91 732.059L1400.5 728.677L1402.32 726.076L1403.88 723.214L1404.92 720.352L1405.96 717.751L1406.74 714.889L1407 711.507L1407.26 708.386V706.044L1407 702.923L1406.48 699.801L1405.7 696.679L1404.66 693.557L1403.62 690.435L1402.06 687.314L1400.24 684.452L1398.17 681.59L1396.09 678.989L1393.75 676.648L1391.41 674.306L1388.81 672.225L1385.95 670.144L1383.1 668.583L1379.98 667.022L1376.86 665.721L1373.74 664.681L1370.63 663.64L1367.25 662.86L1363.87 662.6L1360.49 662.339L1357.12 662.079L1354.26 662.339H1244.62V814.006H1284.11V687.834L1338.93 687.574L1341.27 687.834ZM1528.85 652.974L1550.42 628H1513.52L1501.31 652.974H1528.85ZM1934.16 814.526H1973.91V689.655H2018.34L2019.63 689.395L2021.19 689.135L2022.23 688.875L2023.27 688.354L2024.05 687.834L2024.57 687.054L2025.35 686.273L2025.61 685.493L2026.13 684.452L2026.39 683.932L2026.65 683.672L2033.92 663.12H1891.03L1889.73 663.64L1888.69 663.9L1887.65 664.681L1886.61 665.461L1885.83 666.242L1885.05 667.282L1884.53 668.323L1884.27 668.843L1874.14 689.655H1934.16V814.526ZM1414.27 958.648L1417.39 957.603L1420.51 956.566L1423.37 955.006L1427.26 952.924L1429.86 951.363L1432.2 949.282L1434.54 947.201L1436.62 944.856L1438.44 942.262L1440.26 939.657L1441.81 936.792L1442.85 933.673L1443.89 930.552L1444.67 927.426L1445.19 924.048L1445.46 920.666V917.801L1445.19 914.419L1444.67 911.301L1444.15 908.175L1443.11 905.057L1442.07 902.192L1440.52 899.07L1439.22 896.989L1437.4 894.131L1435.32 891.53L1432.98 889.185L1430.64 886.843L1426.75 883.985L1423.63 882.164L1420.51 880.603L1417.13 879.042L1411.68 877.225L1408.04 876.181L1404.14 875.397L1400.5 874.62L1396.87 874.096L1392.97 873.576L1389.07 873.319L1385.18 873.059H1288.27V1024.98H1328.02V900.631H1381.02L1382.84 900.891L1385.44 901.155L1388.03 901.675L1390.38 902.452L1393.49 904.02L1395.57 905.057L1397.13 906.354L1398.69 907.659L1400.24 909.996L1401.29 912.078L1402.32 914.419L1403.1 916.764L1403.62 918.845L1403.88 920.926V922.227L1403.62 924.308L1403.36 926.649L1402.58 928.47L1401.55 930.815L1400.24 933.15L1398.69 934.971L1396.09 937.836L1393.75 939.133L1391.41 940.694L1389.07 941.738L1386.22 942.775L1383.62 943.299L1381.02 943.819H1355.56L1354.52 944.079L1353.48 944.596L1352.18 945.12L1351.14 945.64L1350.1 946.417L1349.06 947.201L1348.29 947.985L1347.5 948.758L1346.98 949.803L1336.59 969.31H1371.15L1410.9 1024.98H1454.03L1410.64 959.685L1414.27 958.648ZM951.294 872.799L874.127 1024.98H916.74L932.588 990.642H978.834L980.65 990.122L982.468 989.605L984.027 988.821L985.59 987.784L986.885 986.48L988.184 985.179L989.223 983.622L989.487 983.098L1001.44 963.334H945.059L976.752 896.729L1033.91 1024.47H1074.96L1004.82 872.799H951.294ZM1856.48 662.6H1817.76V814.526H1856.48V662.6ZM1083.02 792.413L1085.88 795.015L1088.73 797.356L1091.59 799.697L1094.71 801.779L1097.83 803.856L1100.94 805.941L1104.32 807.762L1107.7 809.323L1110.3 810.363L1113.93 811.404L1117.57 812.705L1121.21 813.745L1125.11 814.786L1128.74 815.566L1132.64 816.087L1136.28 816.867L1140.96 817.387L1144.85 817.648L1148.75 817.908H1152.64L1156.55 818.168H1160.44L1164.34 817.908L1170.06 817.648L1173.95 817.387L1177.85 817.127L1181.49 816.607L1185.38 816.087L1189.02 815.306L1192.66 814.526L1196.55 813.745L1200.19 812.965L1204.09 811.664L1207.72 810.884L1211.36 809.583L1215 808.282L1217.86 807.502V778.886L1216.3 779.666L1212.66 780.967L1209.02 782.528L1205.39 783.568L1201.75 784.869L1198.11 785.91L1194.21 786.69L1188.76 787.731L1185.38 788.251L1181.49 788.771L1177.85 789.292L1174.21 789.552L1170.31 789.812H1162.52L1158.88 790.072L1155.5 789.812L1151.87 789.552L1148.49 789.031L1144.85 788.251L1141.48 787.21L1137.58 786.17L1134.46 785.129L1131.34 783.828L1128.49 782.268L1125.63 780.446L1123.03 778.625L1120.43 776.544L1117.05 773.423L1114.98 770.821L1112.89 768.22L1110.82 765.358L1109.26 762.496L1107.96 759.375L1106.66 756.253L1105.36 751.31L1104.58 747.928L1104.06 744.286V733.88L1104.58 730.498L1105.36 725.555L1106.14 722.434L1107.18 719.052L1108.22 715.93L1109.78 713.068L1111.34 710.207L1113.93 706.565L1116.27 703.963L1118.61 701.622L1121.47 699.28L1124.07 697.199L1126.93 695.118L1131.6 692.517L1134.72 690.956L1138.36 689.655L1141.74 688.614L1145.37 687.574L1150.31 686.533L1153.94 686.273L1157.84 685.753H1169.27L1174.73 686.013L1178.63 686.273L1182.53 686.793L1186.42 687.314L1189.8 687.834L1193.69 688.614L1197.33 689.395L1201.23 690.435L1204.87 691.216L1208.5 692.517L1212.14 693.557L1213.96 694.338L1218.38 695.638L1218.64 667.282L1216.3 666.762L1212.66 665.721L1209.02 664.421L1205.13 663.38L1201.49 662.6L1197.59 661.559L1193.95 660.779L1190.06 659.998L1185.64 659.218L1181.74 658.697L1178.11 658.177L1174.21 657.657L1170.31 657.397L1166.41 657.137H1151.35L1147.71 657.397L1143.81 657.657L1139.92 658.177L1136.28 658.697L1132.64 659.478L1129.01 660.258L1125.36 661.299L1121.73 662.339L1117.57 663.64L1114.2 664.941L1110.82 666.242L1107.18 667.803L1104.06 669.624L1100.69 671.445L1097.56 673.266L1094.45 675.347L1091.59 677.688L1088.73 680.03L1086.13 682.371L1083.54 684.972L1080.94 687.574L1078.6 690.435L1076.26 693.297L1074.18 696.419L1072.11 699.28L1070.55 702.662L1068.73 705.784L1066.65 710.727L1065.35 714.109L1064.31 717.491L1063.27 721.133L1062.49 724.775L1061.71 728.417L1061.45 733.62L1061.19 737.262V744.546L1061.71 748.188L1062.23 751.83L1062.75 755.472L1063.79 758.854L1064.83 762.496L1066.65 767.699L1068.21 771.081L1069.77 774.203L1071.59 777.585L1073.41 780.707L1075.48 783.568L1077.56 786.43L1079.9 789.552L1083.02 792.413ZM1482.86 1024.98H1522.88V873.319H1483.12L1482.86 1024.98ZM1960.66 873.319H1923.5V1024.98H2041.72L2053.15 997.926H1960.66V873.319ZM1599.26 787.991H1477.93V688.354H1593.54L1583.93 662.339H1439.48V814.006H1586.27L1599.26 787.991ZM2155.26 997.41H2106.15V899.334H2221.77L2212.67 872.799H2066.4V1024.72H2215.79L2227.74 997.41H2155.26Z" fill="black"></path> <path d="M2134.21 934.194L2133.18 934.454H2131.87L2130.31 934.71L2129.01 935.231L2127.98 936.015L2126.68 936.792L2125.64 937.836L2125.38 938.356L2110.31 960.729H2176.56L2177.6 960.469L2178.9 960.205L2180.2 959.685L2181.5 959.168L2182.54 958.384L2183.57 957.347L2184.09 956.566L2200.2 934.194H2134.21ZM1908.95 944.079L1908.69 940.43L1908.18 937.572L1907.65 933.93L1906.87 930.548L1905.83 926.906L1904.79 923.517L1903.24 920.135L1901.94 916.753L1900.12 913.628L1898.3 910.51L1895.96 907.391L1893.63 904.526L1891.29 901.668L1888.69 898.803L1886.09 896.205L1883.24 893.6L1880.38 891.259L1876.99 888.917L1873.88 886.836L1870.5 884.762L1867.12 882.941L1863.48 881.373L1860.1 879.552L1856.72 878.255L1853.08 876.958L1849.45 875.653L1845.81 874.616L1842.17 873.572L1838.28 872.795L1834.64 872.011L1830.74 871.234L1826.84 870.974L1823.21 870.714L1819.57 870.454H1816.19L1814.89 870.194H1813.07L1809.95 870.454H1806.84L1803.2 870.714L1799.56 870.974L1795.66 871.234L1792.03 871.751L1788.13 872.535L1784.49 873.319L1780.85 874.096L1777.22 875.14L1773.58 876.177L1770.2 877.474L1766.82 879.043L1763.18 880.603L1760.06 882.164L1756.42 884.506L1753.57 886.327L1750.45 888.668L1747.6 891.002L1744.74 893.343L1742.13 895.948L1739.54 898.806L1737.2 901.412L1734.6 904.794L1732.52 907.659L1730.45 910.777L1728.62 913.895L1727.07 917.284L1725.79 920.666L1724.23 924.048L1723.19 927.69L1721.89 932.637L1721.37 936.279L1720.86 940.181L1720.33 943.823V954.225L1720.86 958.127L1721.11 961.769L1721.89 965.412L1722.67 969.061L1723.45 972.443L1724.75 976.345L1726.05 979.987L1727.61 983.369L1729.17 986.487L1730.98 989.876L1733.06 992.994L1736.18 997.681L1738.51 1000.54L1741.11 1003.14L1743.72 1006L1746.31 1008.61L1749.17 1010.95L1752.55 1013.55L1755.67 1015.63L1758.78 1017.45L1762.16 1019.53L1765.54 1021.09L1769.18 1022.91L1772.56 1024.22L1776.2 1025.78L1781.13 1027.07L1784.77 1028.12L1788.67 1028.89L1792.57 1029.68L1796.2 1030.2L1800.1 1030.72L1803.74 1030.98L1807.64 1031.5H1811.53L1814.91 1031.76H1819.07L1822.96 1031.5L1826.86 1031.24L1830.76 1030.98L1834.4 1030.46L1840.63 1029.42L1844.27 1028.64L1847.91 1027.86L1851.55 1026.82L1855.18 1025.78L1858.82 1024.22L1862.21 1022.91L1865.58 1021.35L1870.52 1018.76L1873.89 1016.93L1877.01 1015.11L1879.87 1013.03L1882.73 1010.69L1885.59 1008.35L1888.19 1005.75L1890.79 1003.15L1894.17 998.985L1896.24 995.867L1898.32 992.741L1900.14 989.36L1901.7 986.241L1903.26 982.852L1904.56 979.21L1905.85 975.828L1906.63 972.186L1907.67 968.544L1908.2 964.902L1908.72 961.26L1909.24 957.358L1909.5 953.716V951.635L1909.24 947.992L1908.95 944.079ZM1866.35 950.579V953.705L1866.09 957.347L1865.57 960.989L1865.05 963.847L1864.27 967.489L1863.48 971.131L1862.19 974.52L1860.89 977.902L1859.59 981.284L1857.77 984.666L1855.96 987.531L1853.62 990.129L1851.28 992.47L1848.95 994.812L1846.34 997.153L1843.23 998.974L1840.37 1000.8L1837.25 1002.09L1834.14 1003.14L1831.02 1004.17L1827.9 1004.96L1822.97 1005.73L1819.33 1005.99H1812.58L1808.93 1005.47L1805.56 1004.95L1802.18 1004.17L1798.8 1003.13L1795.42 1002.09L1792.04 1000.79L1788.14 998.71L1785.29 996.889L1782.69 994.808L1780.09 992.467L1777.75 990.126L1774.11 985.703L1772.29 983.098L1770.73 980.24L1769.17 977.115L1767.87 973.996L1766.58 970.614L1765.54 967.225L1764.76 963.843L1763.98 958.904L1763.46 955.262V948.231L1763.98 943.812L1764.5 939.91L1765.02 936.268L1765.8 932.879L1766.84 929.237L1768.14 926.118L1769.44 922.736L1771.25 919.871L1772.81 916.753L1775.15 914.148L1777.23 911.55L1779.57 909.209L1782.16 907.128L1786.06 904.262L1788.92 902.701L1792.04 901.141L1795.15 899.843L1798.27 898.799L1801.39 898.022L1806.58 897.238L1811.52 896.714H1814.9L1816.46 896.454L1821.65 896.978L1827.89 898.022L1831 898.799L1834.39 899.843L1837.5 901.141L1840.36 902.438L1843.48 904.259L1846.08 906.08L1848.67 908.161L1851.27 910.502L1853.61 912.844L1855.95 915.449L1857.76 918.307L1859.58 921.172L1860.88 924.29L1862.19 927.408L1863.48 930.534L1864.26 933.652L1864.78 936.257L1865.3 939.899L1865.82 943.541L1866.34 946.923L1866.35 950.579ZM1507.81 724.515H1506.51L1504.95 724.775L1503.13 725.035L1501.83 725.816L1500.27 726.336L1499.24 727.376L1497.93 728.677L1481.83 750.53H1546L1547.56 750.269L1549.12 750.009L1550.42 749.489L1551.97 748.709L1553.27 747.668L1554.32 746.888L1555.35 745.587L1556.13 744.806L1570.16 724.515H1507.81ZM1727.35 811.404L1732.54 810.103L1736.18 808.803L1739.56 807.502L1742.94 806.201L1746.32 804.38L1751.51 801.519L1754.63 799.697L1757.48 797.876L1760.6 795.795L1763.2 793.454L1765.8 790.852L1768.14 788.511L1771.25 784.869L1773.33 782.007L1775.15 779.146L1776.97 776.028L1778.79 772.646L1780.09 769.264L1781.65 765.362L1782.43 761.459L1783.47 757.817L1784.25 754.175L1784.77 750.533L1785.03 746.895L1785.29 742.993L1785.55 739.611L1785.81 736.225V733.36L1785.55 729.978L1785.02 726.336L1784.5 722.694L1783.72 719.312L1782.68 715.67L1781.64 712.284L1780.34 708.902L1778.79 705.517L1777.23 702.399L1775.41 699.277L1773.33 696.155L1770.73 692.513L1768.39 689.651L1765.8 687.05L1763.19 684.448L1760.34 682.107L1757.48 680.286L1754.62 678.205L1751.76 676.384L1748.65 674.563L1745.79 672.998L1742.67 671.437L1739.55 670.137L1736.18 668.84L1733.06 667.799L1729.68 666.758L1726.57 665.718L1723.18 664.937L1719.8 664.157L1716.42 663.637L1713.31 663.116L1709.93 662.856L1706.81 662.596L1703.43 662.336H1702.39L1700.32 662.596H1620.03V814.266H1708.89L1712.53 814.006L1716.17 813.485L1719.8 812.965L1723.7 812.185L1727.35 811.404ZM1717.99 785.65L1714.88 786.69L1711.76 787.471L1708.64 787.991L1705.53 788.511H1659.02V687.834H1697.21L1700.85 688.094H1702.41L1704.23 688.351L1707.35 689.131L1710.73 689.912L1713.84 690.952L1716.96 692.249L1720.08 693.814L1722.93 695.375L1725.8 697.196L1728.65 699.277L1730.99 701.618L1733.07 703.436L1735.4 706.041L1737.22 708.642L1739.04 711.504L1740.34 714.365L1741.9 717.487L1742.94 720.349L1743.72 723.731L1744.24 725.816L1745.02 729.197L1745.54 732.579V742.208L1745.02 745.59L1744.5 748.972L1743.46 752.354L1742.68 755.216L1741.64 758.598L1740.34 761.98L1738.78 765.101L1736.96 768.223L1735.14 771.341L1733.07 774.207L1730.99 776.808L1728.91 779.146L1726.31 780.967L1723.71 782.788L1720.86 784.349L1717.99 785.65ZM1702.4 992.203L1699.55 993.247L1695.65 994.284L1692.01 995.328L1688.12 996.365L1684.22 997.15L1680.58 997.926L1676.68 998.71L1672.79 998.971L1669.41 999.491L1665.51 1000.01L1661.87 1000.27L1658.24 1000.53H1654.34L1650.7 1000.27L1646.81 1000.01L1641.87 999.747L1638.49 999.231L1634.86 998.71L1631.74 997.926L1628.36 996.626L1625.24 995.589L1621.6 993.768L1618.49 992.203L1615.89 990.382L1613.03 988.561L1610.43 986.48L1607.31 983.098L1605.24 980.504L1603.16 977.899L1601.34 975.033L1599.78 972.175L1598.48 969.057L1596.92 963.847L1596.15 960.205L1595.89 956.566L1595.62 953.185V949.542L1595.89 945.9L1596.15 942.515L1596.67 939.133L1597.18 935.755L1598.22 932.633L1599.26 929.508L1600.56 926.65L1602.64 923.007L1604.46 920.142L1606.53 917.284L1608.87 914.943L1611.21 912.602L1613.81 910.257L1616.67 908.175L1619.78 906.354L1622.9 904.794L1626.28 903.236L1629.66 901.936L1633.04 900.891L1636.93 900.114L1640.57 899.594L1644.21 899.07L1648.1 898.81L1651.74 898.55L1656.68 898.81L1660.32 899.07L1664.47 899.594L1668.37 899.854L1672.01 900.631L1675.9 901.155L1679.8 901.936L1683.44 902.976L1687.34 904.02L1690.97 905.057L1694.87 906.094L1698.51 907.399L1702.14 908.699H1702.4L1706.56 910.257V881.12L1705.27 880.603L1702.4 879.559L1701.63 879.299L1697.99 877.998L1694.09 876.701L1690.45 875.657L1685.78 874.62L1682.14 873.836L1678.24 873.059L1674.35 872.539L1670.45 872.015L1662.91 871.238L1659.02 870.978L1655.12 870.718L1651.22 870.458L1646.55 870.194H1639.01L1635.11 870.458L1631.22 870.718L1625.24 871.502L1621.34 872.015L1617.71 872.799L1614.07 873.576L1610.43 874.62L1607.05 875.917L1602.38 877.738L1599 879.043L1595.62 880.864L1592.51 882.685L1589.13 884.506L1586.27 886.587L1582.63 889.445L1579.77 891.79L1577.18 894.131L1574.32 896.729L1571.98 899.594L1569.64 902.452L1566.26 906.615L1564.19 909.996L1562.37 913.122L1560.55 916.504L1559.25 919.882L1557.95 922.487L1556.65 926.129L1555.61 929.508L1554.83 933.15L1554.05 936.792L1553.27 942.775L1553.01 946.417V953.708L1553.27 958.384L1553.79 962.026L1554.57 965.668L1555.35 969.31L1556.13 972.952L1557.95 977.638L1559.25 981.017L1560.81 984.399L1562.63 987.524L1564.45 990.902L1567.04 995.068L1569.39 997.926L1571.72 1000.79L1574.06 1003.65L1576.92 1006.25L1580.55 1009.37L1583.41 1011.71L1586.53 1014.06L1589.65 1015.88L1593.28 1018.22L1596.67 1019.78L1600.3 1021.34L1603.94 1022.64L1607.31 1023.94L1610.95 1024.98L1618.23 1026.54L1622.12 1027.06L1626.02 1027.59L1629.92 1028.11L1633.81 1028.37L1639.79 1028.62L1643.69 1028.88H1651.48L1655.38 1028.62H1659.28L1663.43 1028.11L1667.07 1027.85L1670.45 1027.59L1674.35 1027.06L1678.24 1026.54L1682.14 1025.77L1685.78 1024.98L1689.67 1023.94L1693.57 1022.9L1697.21 1021.86L1700.85 1020.82L1702.4 1020.3L1702.66 1020.04L1706.82 1018.75L1707.08 990.382L1703.18 991.95L1702.4 992.203Z" fill="black"></path> <path d="M857.763 821.03V744.026L803.722 774.723L751.5 804.12L702.652 831.175L658.224 855.369L618.217 876.701L582.359 895.168L549.627 911.041L520.264 924.308L492.728 936.015L466.487 945.64L440.502 954.222L415.304 961.506L390.103 967.489L365.68 972.696L342.554 976.598L320.733 979.72L301.247 981.801L283.836 982.838L269.291 983.622L256.556 983.098L237.334 981.017L224.08 977.899L214.467 973.996L206.676 968.793L200.441 962.81L195.501 955.782L192.643 947.985L191.603 938.873L192.643 927.95L196.543 915.467L202.779 901.936L211.093 888.148L221.485 874.36L233.173 861.092L245.124 848.862L257.339 838.199L270.59 827.793L285.399 816.607L300.728 806.461L315.537 797.356L330.866 788.771L346.714 780.707L362.559 773.683L378.671 767.179L394 761.976L408.289 757.554L421.02 754.692L432.712 752.871L444.403 752.351L456.614 753.391L463.11 754.172L459.732 742.205L453.756 721.913L449.076 707.605L445.442 699.02L442.585 694.338L439.727 691.476L436.605 689.395L431.672 687.574L423.878 686.793L412.706 687.314L398.676 689.135L382.828 692.517L366.456 697.199L349.309 703.439L332.684 710.467L316.832 717.751L301.503 725.816L286.438 734.4L271.109 744.026L255.261 754.692L239.672 765.878L225.902 777.065L213.687 787.21L202.779 797.616L192.123 808.543L182.254 820.509L173.16 832.996L165.106 845.744L158.611 859.531L153.411 873.319L150.553 887.364L149.258 900.891L150.297 915.467L152.892 930.816L157.052 946.157L162.505 960.729L168.74 973.996L176.018 985.703L184.592 997.15L194.461 1007.55L205.114 1016.66L216.545 1024.47L229.28 1030.7L244.349 1036.17L262.272 1041.11L281.498 1044.49L301.247 1046.58L320.733 1047.1L339.44 1046.05L356.327 1044.76L372.436 1042.41L388.544 1039.55L404.648 1036.43L419.721 1032.79L434.53 1029.14L450.119 1024.47L466.224 1019.78L482.336 1014.58L498.7 1008.86L515.072 1002.61L531.44 996.105L547.808 989.085L564.436 981.277L582.103 972.696L592.236 967.229L605.486 960.205L623.673 950.319L650.17 936.015L686.807 915.72L735.392 888.925L793.589 856.406L857.763 821.03Z" fill="#4284B5"></path> </svg> 