<?xml version="1.0" encoding="UTF-8"?> <svg xmlns="http://www.w3.org/2000/svg" width="2371" height="1816" viewBox="0 0 2371 1816" fill="none"> <g clip-path="url(#clip0_6_219)"> <path fill-rule="evenodd" clip-rule="evenodd" d="M2185.54 1118.68H295.456V560.323H2185.54V1118.68Z" fill="#D91433"></path> <path fill-rule="evenodd" clip-rule="evenodd" d="M1233.73 772.219H1233.77L1233.79 772.241L1233.73 772.219Z" fill="white"></path> <path fill-rule="evenodd" clip-rule="evenodd" d="M1233.77 771.779L1221.98 770.832C1205.76 770.832 1192.31 779.178 1182.95 793.783C1182.95 786.512 1182.95 773.467 1182.95 773.467H1151.61L1151.6 924.771H1185.68L1185.61 849.976C1185.61 819.607 1198.22 802.874 1221.1 802.874L1231.52 804.479L1235.73 805.689L1236.9 772.241L1233.77 771.779Z" fill="white"></path> <path fill-rule="evenodd" clip-rule="evenodd" d="M1971.94 837.352C1974.64 834.763 2038.55 773.585 2038.55 773.585H1996.74C1996.74 773.585 1952.22 818.358 1946.12 824.509C1946.12 815.586 1946.12 725.029 1946.12 725.029H1912.07L1912.04 924.828L1946.09 924.9C1946.09 924.9 1946.09 863.637 1946.09 853.996C1952.5 861.7 2004.79 924.77 2004.79 924.77H2048.14C2048.14 924.77 1974.44 840.221 1971.94 837.352Z" fill="white"></path> <path fill-rule="evenodd" clip-rule="evenodd" d="M1828.14 769.972C1807.72 769.972 1791.84 778.113 1780.41 793.352C1780.41 786.727 1780.41 773.51 1780.41 773.51H1748.77L1748.76 924.812L1782.78 924.828V848.863C1782.78 818.402 1796.13 800.224 1818.5 800.224C1827.12 800.224 1833.58 802.5 1838.24 807.167C1844.69 813.608 1847.82 824.762 1847.81 841.255V924.733H1881.85V835.113C1881.85 792.513 1863.28 769.972 1828.14 769.972Z" fill="white"></path> <path fill-rule="evenodd" clip-rule="evenodd" d="M1079 773.553V844.355C1079 865.116 1073.76 899.976 1038.77 899.976C1019.4 898.795 1011.81 885.407 1011.81 852.244L1011.82 775.586V773.542H1009.78H978.616V863.192C978.616 905.697 998.352 928.156 1035.69 928.156C1053.78 928.156 1069.9 920.489 1079.8 908.282C1079.8 914.108 1079.8 924.812 1079.8 924.812H1112.25V773.553H1079Z" fill="white"></path> <path fill-rule="evenodd" clip-rule="evenodd" d="M1377.1 791.911C1363.21 778.027 1344.44 770.682 1322.84 770.682C1277.79 770.682 1246.33 802.958 1246.33 849.178C1246.33 893.952 1279.21 927.711 1322.84 927.711C1366.32 927.711 1399.11 893.952 1399.11 849.178C1399.11 826.446 1391.3 806.114 1377.1 791.911ZM1322.84 899.464C1294.25 899.464 1281.23 873.405 1281.23 849.178C1281.24 824.804 1295.83 798.891 1322.84 798.891C1349.66 798.891 1364.12 824.804 1364.12 849.178C1364.12 873.405 1351.21 899.464 1322.84 899.464Z" fill="white"></path> <path fill-rule="evenodd" clip-rule="evenodd" d="M1542.95 788.039C1531.72 776.79 1516.9 771.09 1498.96 771.09C1479.45 771.09 1464.66 777.285 1454.33 788.889C1454.33 780.189 1454.35 725.029 1454.35 725.029H1421.07V924.715H1453.16C1453.16 924.715 1453.16 914.52 1453.16 909.277C1464.27 920.964 1480.92 928.072 1499.28 928.072C1547.19 928.072 1564.21 884.428 1564.21 847.047C1564.21 823.06 1556.47 801.547 1542.95 788.039ZM1529.3 850.467C1529.3 862.587 1525.58 879.723 1514.92 890.616C1508.87 896.754 1501.52 899.867 1493.1 899.867C1466.45 899.867 1454.32 873.964 1454.32 849.875C1454.33 825.518 1466.56 799.299 1493.37 799.299C1502.73 799.299 1510.45 802.383 1516.34 808.483C1524.63 816.961 1529.3 830.975 1529.3 847.157C1529.3 847.757 1529.3 848.354 1529.29 848.964C1529.3 849.455 1529.3 849.954 1529.3 850.467Z" fill="white"></path> <path fill-rule="evenodd" clip-rule="evenodd" d="M1715.25 924.77L1714.68 920.888C1714.69 920.918 1713.56 892.792 1713.56 892.792V832.542C1713.58 810.865 1708.54 795.277 1698.14 784.878C1687.91 774.618 1672.67 769.649 1651.61 769.649C1629.48 769.617 1611.96 777.382 1601.16 783.888L1600.06 784.566L1599.4 786.265L1602.4 815.716L1607.37 811.461C1617.6 802.786 1632.92 797.396 1647.34 797.418C1668.84 797.418 1678.41 806.257 1679.52 826.186C1675.41 826.102 1654.8 825.677 1654.8 825.677C1628.13 825.677 1582.95 836.991 1582.95 879.383C1582.95 910.891 1603.88 928.958 1640.45 928.958C1640.46 928.958 1640.48 928.958 1640.5 928.958C1661.67 928.958 1675.12 918.977 1682.77 910.953C1682.77 915.923 1682.77 924.77 1682.77 924.77H1715.25ZM1642.86 901.228C1630.03 901.06 1616.76 892.851 1616.76 879.383C1616.76 855.16 1650.8 852.543 1665.42 852.543C1665.42 852.543 1675.81 852.858 1679.92 852.984C1679.92 855.882 1679.92 864.814 1679.92 864.814C1679.92 875.538 1676.28 885.021 1669.67 891.54C1663.16 897.988 1653.9 901.354 1642.86 901.228Z" fill="white"></path> <path fill-rule="evenodd" clip-rule="evenodd" d="M949.26 844.154C949.26 797.375 924.247 768.316 883.947 768.316C840.862 768.316 811.9 800.085 811.862 847.389C811.862 897.977 840.832 929.408 887.472 929.408C906.3 929.408 921.991 926.611 935.414 920.888L936.648 920.359L937.481 918.671V888.583L932.507 891.289C919.046 898.304 906.212 901.728 893.295 901.728C866.017 901.728 849.012 885.924 845.819 858.688C850.692 858.688 949.26 858.688 949.26 858.688V844.154ZM882.455 794.772C901.687 794.772 913.505 808.714 916.269 833.655C911.812 833.655 851.154 833.655 846.491 833.655C850.149 809.739 863.631 794.772 882.455 794.772Z" fill="white"></path> <path fill-rule="evenodd" clip-rule="evenodd" d="M716.487 954.581C716.487 969.36 704.485 981.366 689.693 981.366H459.618C444.864 981.366 432.857 969.36 432.857 954.581V724.545C432.857 709.725 444.864 697.734 459.638 697.734H689.719C704.506 697.734 716.487 709.725 716.487 724.545V954.581Z" fill="white"></path> <path fill-rule="evenodd" clip-rule="evenodd" d="M578.328 868.649C579.707 869.015 581.303 869.343 583.118 869.427C600.06 870.149 614.503 857.319 615.394 840.389C616.524 819.224 600.266 801.151 579.11 800.042C567.91 799.439 557.403 802.744 548.909 808.747L548.842 808.776C508.735 837.844 524.758 922.186 601.955 924.943C639.205 926.265 672.914 904.152 687.764 872.065L687.958 871.548C674.069 919.464 629.858 954.484 577.459 954.484C513.924 954.484 462.432 902.988 462.432 839.457C462.432 775.93 513.924 724.416 577.459 724.416C605.047 724.416 630.366 734.138 650.187 750.323L650.418 750.517C676.468 771.972 684.383 799.902 684.547 821.106L684.538 822.72C684.194 834.243 681.413 845.872 675.947 856.878C669.961 868.948 660.774 878.387 649.922 884.638L649.75 884.693C623.494 900.224 588.604 893.994 578.257 868.675L578.328 868.649Z" fill="#D91433"></path> </g> <defs> <clipPath id="clip0_6_219"> <rect width="2371" height="1816" fill="white"></rect> </clipPath> </defs> </svg> 