<?xml version="1.0" encoding="UTF-8"?> <svg xmlns="http://www.w3.org/2000/svg" width="2372" height="1816" viewBox="0 0 2372 1816" fill="none"> <path d="M114.461 326.466H146.664V1278.53H114.461V326.466Z" fill="#7F3F98"></path> <path d="M466.82 369.869V389.004C476.621 389.47 483.621 391.337 487.355 392.27C485.488 381.07 477.554 372.669 466.82 369.869ZM455.152 356.335C455.152 362.868 453.752 367.069 451.886 369.869C451.886 369.869 455.152 368.935 459.353 368.935C462.153 368.935 466.353 369.869 466.82 369.869C464.953 367.069 463.553 362.868 463.553 356.335C478.021 356.335 481.288 362.868 481.288 368.469H484.088V335.8H481.288C481.288 341.4 477.554 347.934 463.553 347.934C463.553 333.466 470.087 330.199 475.687 330.199V327.399H443.018V330.199C448.619 330.199 455.152 333.933 455.152 347.934C440.685 347.934 437.418 341.4 437.418 335.8H434.618V368.469H437.418C437.418 362.868 440.685 356.335 455.152 356.335ZM451.886 369.869C441.618 372.669 433.684 381.536 431.351 392.27C435.084 391.337 442.085 389.47 451.886 389.004V369.869ZM469.62 843.569C469.62 850.103 475.221 855.704 481.754 855.704C488.288 855.704 493.889 850.103 493.889 843.569C493.889 837.036 488.288 831.435 481.754 831.435C474.754 831.902 469.62 837.036 469.62 843.569ZM475.687 843.569C475.687 840.303 478.487 837.502 481.754 837.502C485.021 837.502 487.821 840.303 487.821 843.569C487.821 846.836 485.021 849.637 481.754 849.637C478.021 849.637 475.687 847.303 475.687 843.569ZM447.685 685.358C447.685 679.291 443.018 674.624 436.951 674.624H376.28C371.146 674.624 366.946 678.824 366.946 683.958C366.946 687.692 369.746 690.492 373.48 690.492C377.214 690.492 380.014 687.692 380.014 683.491C381.414 684.891 382.814 685.825 384.681 686.758C383.747 690.492 382.814 695.626 382.347 701.693C381.414 700.293 380.014 699.826 378.614 699.826C376.28 699.826 373.947 701.693 373.947 704.493C373.947 706.826 375.813 709.16 378.614 709.16C380.014 709.16 381.414 708.226 382.347 707.293C382.347 710.56 382.347 713.827 382.814 717.56C381.881 717.094 380.947 716.627 380.014 716.627C377.68 716.627 375.347 718.494 375.347 721.294C375.347 723.628 377.214 725.961 380.014 725.961C381.414 725.961 383.281 725.028 383.747 723.628C383.747 724.094 383.747 724.561 384.214 725.028C385.147 727.828 386.081 730.628 387.014 732.962C386.548 732.495 385.614 732.495 384.681 732.495C382.347 732.495 380.014 734.362 380.014 737.162C380.014 739.495 381.881 741.829 384.681 741.829C387.014 741.829 388.881 739.962 389.348 738.095C390.748 740.895 392.615 743.696 394.948 746.496H394.015C391.681 746.496 389.348 748.363 389.348 751.163C389.348 753.963 391.215 755.83 394.015 755.83C396.348 755.83 398.682 753.963 398.682 751.163V750.696C405.682 757.697 414.55 763.764 425.284 767.964L423.417 781.965C423.417 781.965 427.617 783.832 434.151 785.699C440.685 787.565 446.752 788.499 446.752 788.499L447.685 685.358ZM392.615 690.959C392.615 690.959 393.081 690.959 393.548 691.425L426.684 758.63C385.614 739.962 389.814 706.36 392.615 690.959ZM427.617 753.496L397.282 692.359C399.148 692.825 401.015 692.825 402.882 692.825L429.017 745.562L427.617 753.496ZM429.484 739.962L406.149 692.359C408.016 692.359 409.416 691.892 410.816 691.425L430.417 731.561L429.484 739.962ZM431.351 726.428L413.616 690.959C415.016 690.492 416.416 690.025 417.816 689.092L432.284 718.027L431.351 726.428ZM433.218 712.893L420.617 687.692C422.017 686.758 423.417 685.825 424.35 684.891L434.151 704.493L433.218 712.893ZM436.484 689.558L435.084 699.826L427.15 683.491C428.084 683.025 429.017 683.025 429.951 683.025C433.684 682.558 436.951 685.825 436.484 689.558ZM407.549 415.139C407.549 411.405 410.816 408.138 414.55 408.138C418.283 408.138 421.55 411.405 421.55 415.139C421.55 419.339 418.283 422.139 414.55 422.139C410.816 422.606 407.549 419.339 407.549 415.139ZM314.676 464.609C314.676 460.875 317.943 457.608 321.676 457.608C325.877 457.608 328.677 460.875 328.677 464.609C328.677 468.809 325.41 471.609 321.676 471.609C317.943 471.609 314.676 468.343 314.676 464.609ZM310.942 446.408C310.942 442.207 314.209 439.407 317.943 439.407C321.676 439.407 324.943 442.674 324.943 446.408C324.943 450.141 321.676 453.408 317.943 453.408C314.209 453.875 310.942 450.608 310.942 446.408ZM312.342 428.206C312.342 424.473 315.609 421.206 319.343 421.206C323.543 421.206 326.343 424.473 326.343 428.206C326.343 431.94 323.076 435.207 319.343 435.207C315.609 435.207 312.342 431.94 312.342 428.206ZM322.143 412.339C322.143 408.605 325.41 405.338 329.143 405.338C333.344 405.338 336.144 408.605 336.144 412.339C336.144 416.072 332.877 419.339 329.143 419.339C325.41 419.806 322.143 416.539 322.143 412.339ZM337.077 401.604C337.077 397.871 340.344 394.604 344.078 394.604C347.811 394.604 351.078 397.871 351.078 401.604C351.078 405.805 347.811 408.605 344.078 408.605C340.344 409.072 337.077 405.805 337.077 401.604ZM355.279 398.338C355.279 394.604 358.546 391.337 362.279 391.337C366.479 391.337 369.28 394.604 369.28 398.338C369.28 402.071 366.013 405.338 362.279 405.338C358.546 405.805 355.279 402.538 355.279 398.338ZM373.013 402.071C373.013 398.338 376.28 395.071 380.014 395.071C384.214 395.071 387.014 398.338 387.014 402.071C387.014 405.805 383.747 409.072 380.014 409.072C376.28 409.538 373.013 406.271 373.013 402.071ZM390.281 409.072C390.281 405.338 393.548 402.071 397.282 402.071C401.482 402.071 404.282 405.338 404.282 409.072C404.282 413.272 401.015 416.072 397.282 416.072C393.548 416.072 390.281 412.805 390.281 409.072ZM511.156 415.139C511.156 411.405 507.89 408.138 504.156 408.138C500.422 408.138 497.155 411.405 497.155 415.139C497.155 419.339 500.422 422.139 504.156 422.139C507.89 422.606 511.156 419.339 511.156 415.139ZM604.03 464.609C604.03 460.875 600.763 457.608 597.029 457.608C592.829 457.608 590.029 460.875 590.029 464.609C590.029 468.809 593.296 471.609 597.029 471.609C600.763 471.609 604.03 468.343 604.03 464.609ZM607.763 446.408C607.763 442.207 604.496 439.407 600.763 439.407C597.029 439.407 593.762 442.674 593.762 446.408C593.762 450.141 597.029 453.408 600.763 453.408C604.496 453.875 607.763 450.608 607.763 446.408ZM605.897 428.206C605.897 424.473 602.63 421.206 598.896 421.206C594.696 421.206 591.896 424.473 591.896 428.206C591.896 431.94 595.162 435.207 598.896 435.207C603.096 435.207 605.897 431.94 605.897 428.206ZM596.563 412.339C596.563 408.605 593.296 405.338 589.562 405.338C585.828 405.338 582.562 408.605 582.562 412.339C582.562 416.072 585.828 419.339 589.562 419.339C593.296 419.806 596.563 416.539 596.563 412.339ZM581.628 401.604C581.628 397.871 578.361 394.604 574.628 394.604C570.427 394.604 567.627 397.871 567.627 401.604C567.627 405.805 570.894 408.605 574.628 408.605C578.361 409.072 581.628 405.805 581.628 401.604ZM563.427 398.338C563.427 394.604 560.16 391.337 556.426 391.337C552.226 391.337 549.426 394.604 549.426 398.338C549.426 402.071 552.693 405.338 556.426 405.338C560.16 405.805 563.427 402.538 563.427 398.338ZM545.226 402.071C545.226 398.338 541.959 395.071 538.225 395.071C534.025 395.071 531.225 398.338 531.225 402.071C531.225 405.805 534.491 409.072 538.225 409.072C542.425 409.538 545.226 406.271 545.226 402.071ZM527.958 409.072C527.958 405.338 524.691 402.071 520.957 402.071C517.224 402.071 513.957 405.338 513.957 409.072C513.957 413.272 517.224 416.072 520.957 416.072C525.157 416.072 527.958 412.805 527.958 409.072ZM520.957 518.279C520.957 514.079 517.224 510.346 513.023 510.346C508.823 510.346 505.089 514.079 505.089 518.279C505.089 522.48 508.823 526.213 513.023 526.213C517.224 526.213 520.957 522.48 520.957 518.279ZM469.153 565.883V656.423H549.426V565.883H469.153ZM547.092 654.089H471.487V568.683H546.626L547.092 654.089Z" fill="black"></path> <path d="M479.421 571.483H474.754V650.822H543.826V571.483H499.956H479.421ZM539.159 573.817V576.15H541.492V646.155H539.159V648.489H479.421V646.155H477.087V576.15H479.421V573.817H539.159Z" fill="black"></path> <path d="M535.892 594.352L532.158 598.085C532.158 598.085 531.691 598.085 531.691 598.552L524.691 605.086C522.357 606.953 521.891 610.219 523.757 612.553L527.958 618.153C528.424 618.62 528.424 619.087 528.424 620.02C528.424 620.487 527.958 621.42 527.491 621.42C527.024 621.887 526.558 621.887 525.624 621.887C525.158 621.887 524.224 621.42 524.224 620.954C524.224 620.954 520.024 615.353 518.157 612.553V604.619L527.958 595.285V587.351L524.691 584.084L528.891 579.884H511.623L507.423 584.084V588.751C507.89 588.285 508.823 588.285 509.29 588.285C511.157 588.285 513.023 590.151 513.023 592.018C513.023 593.885 511.157 595.752 509.29 595.752C508.823 595.752 507.89 595.752 507.423 595.285V600.885H501.356L494.355 591.085C495.289 590.151 495.755 588.751 495.755 587.351C495.755 584.551 493.422 582.684 491.088 582.684C490.155 582.684 489.222 583.151 488.288 583.618V591.551H488.755L495.289 600.885L498.556 605.552H506.49L502.289 609.753H493.889C493.422 607.886 491.555 606.953 489.688 606.953C487.822 606.953 485.955 608.353 485.488 609.753C485.488 610.219 485.021 610.686 485.021 611.62C485.021 612.553 485.488 613.953 485.955 614.42H505.089L508.356 619.087H495.289L500.422 626.087L503.223 629.821H496.689C496.222 627.954 494.355 626.554 492.022 626.554C490.155 626.554 488.288 627.954 487.355 629.821V631.221C487.355 632.621 487.822 633.554 488.755 634.488H512.557L509.29 629.821L506.49 626.087H513.957L516.757 629.821L520.024 634.488H531.225V639.622H529.825C529.358 637.755 527.491 636.355 525.158 636.355C522.824 636.355 521.424 637.755 520.491 639.622V641.022C520.491 642.422 520.957 643.355 521.891 644.289H535.892V629.354H526.558L521.891 623.287C522.824 624.22 523.757 625.154 525.158 625.154C526.558 625.154 527.958 625.154 529.358 624.22C530.758 623.287 531.225 621.887 531.691 620.487C531.691 619.087 531.691 617.687 530.758 616.287L526.558 610.686C525.624 609.753 526.091 607.886 527.024 607.419L528.891 605.552C530.758 606.953 533.091 606.953 534.958 605.552C535.892 604.619 536.358 603.686 536.358 602.286L535.892 594.352ZM470.087 518.28L459.353 529.014L448.619 518.28L459.353 507.545L470.087 518.28ZM397.748 518.28C397.748 514.079 401.482 510.346 405.682 510.346C409.883 510.346 413.616 514.079 413.616 518.28C413.616 522.48 409.883 526.213 405.682 526.213C401.482 526.213 397.748 522.48 397.748 518.28ZM543.826 721.761V719.427C543.826 716.16 541.492 713.827 538.225 713.827H518.157C518.157 711.493 515.824 709.16 513.49 709.16C512.09 709.16 511.157 709.627 510.223 710.56L504.156 716.627H538.225C539.625 716.627 540.559 717.56 540.559 718.961C540.559 720.361 539.625 721.294 538.225 721.294H498.556V715.694L505.556 708.693H478.021L485.021 715.694V725.961L473.821 717.094C474.754 716.16 475.221 714.76 475.221 713.36C475.221 710.56 472.887 708.693 470.554 708.693C469.62 708.693 468.22 709.16 467.287 709.627V718.027L484.555 732.028L476.621 734.362C476.154 732.495 474.287 731.095 471.954 731.095C469.154 731.095 467.287 733.428 467.287 735.762C467.287 736.695 467.753 738.095 468.22 738.562H478.021L520.957 725.028V731.561L515.357 733.895C514.89 731.561 513.023 730.161 510.69 730.161C507.89 730.161 506.023 732.495 506.023 734.828C506.023 735.762 506.49 737.162 506.956 737.629H517.69L524.224 734.362L528.424 732.495L526.558 728.295V727.361H542.425C542.425 727.828 541.959 728.761 541.959 729.228C541.492 730.161 541.025 731.561 540.559 732.495C539.625 731.561 538.225 731.095 536.825 731.095C534.025 731.095 532.158 733.428 532.158 735.762C532.158 736.695 532.625 738.095 533.091 738.562H542.892C544.292 735.762 545.226 732.495 545.692 730.628C547.092 726.428 548.026 722.694 548.026 721.294C548.493 721.761 543.826 721.761 543.826 721.761ZM492.022 722.227L487.355 717.56H496.689L492.022 722.227ZM544.292 687.225C544.759 686.292 544.759 685.825 544.759 684.891C544.759 681.625 542.425 679.291 539.159 679.291H518.157C518.157 676.958 515.824 674.624 513.49 674.624C512.09 674.624 511.157 675.091 510.223 676.024L504.156 682.091H539.625C541.025 682.091 541.959 683.025 541.959 684.425C541.959 685.825 541.025 686.758 539.625 686.758H498.556V681.158L505.556 674.157H478.021L485.021 681.158V691.425L473.821 682.558C474.754 681.625 475.221 680.224 475.221 679.291C475.221 676.491 472.887 674.624 470.554 674.624C469.62 674.624 468.22 675.091 467.287 675.557V683.958L484.088 697.492L476.154 699.826C475.687 697.959 473.821 696.559 471.487 696.559C468.687 696.559 466.82 698.892 466.82 701.226C466.82 702.159 467.287 703.559 467.753 704.493H477.554L520.491 690.959V697.959L514.89 699.826C514.423 697.959 512.557 696.559 510.223 696.559C507.423 696.559 505.556 698.892 505.556 701.226C505.556 702.159 506.023 703.559 506.49 704.493H517.224L527.958 701.226L533.091 699.359L528.891 695.626L526.091 692.825H545.226V697.959C544.292 697.026 542.892 696.092 541.492 696.092C538.692 696.092 536.825 698.426 536.825 700.759C536.825 701.693 537.292 703.093 537.758 704.026H549.893V686.758L544.292 687.225ZM492.022 687.692L487.355 683.025H496.689L492.022 687.692ZM526.558 747.896H518.157C518.157 745.562 515.824 743.229 513.49 743.229C512.09 743.229 511.157 743.696 510.223 744.629L504.156 750.696H527.024C528.424 750.696 529.358 751.63 529.358 753.03C529.358 754.43 528.424 755.363 527.024 755.363H499.489V750.696L506.49 743.696H478.954L485.955 750.696V762.364L474.754 752.096C475.687 751.163 476.621 749.763 476.621 748.363C476.621 745.562 474.287 743.696 471.954 743.696C471.02 743.696 469.62 744.162 468.687 744.629V752.563L486.421 768.897L487.355 767.964L476.154 781.498C475.221 780.565 473.821 780.565 472.887 780.565C470.087 781.032 468.22 783.365 468.687 785.699C468.687 786.632 469.154 787.565 469.62 788.499C471.487 788.499 473.821 788.032 477.554 787.565L490.155 772.631C492.022 772.164 493.422 771.231 495.289 770.764L500.422 775.431L497.622 776.831C496.222 775.898 494.355 775.431 492.955 775.898C490.622 776.831 489.222 779.632 490.155 781.965C490.622 782.898 491.088 783.365 491.555 783.832C491.555 783.832 493.422 783.365 495.289 782.432C497.156 781.498 499.022 781.032 499.022 781.032C501.356 780.098 503.223 779.165 505.089 778.231V765.631C508.356 763.764 511.157 761.897 513.49 759.563L518.157 763.764C517.224 764.697 516.29 765.164 514.89 766.097C513.49 765.164 511.623 765.164 510.223 766.097C509.29 766.564 508.356 767.964 507.89 768.897V770.764C507.89 771.231 508.356 772.164 508.356 772.631C508.823 773.564 509.756 774.031 510.69 774.498C513.023 773.098 514.89 771.698 517.224 770.298C518.624 769.364 520.491 767.964 521.891 766.564L523.291 765.164V759.097H526.558C529.825 759.097 532.158 756.763 532.158 753.496C532.158 750.696 529.825 747.896 526.558 747.896ZM492.022 756.763L487.355 752.096H496.689L492.022 756.763ZM444.418 641.955C444.885 641.022 444.885 640.555 444.885 639.622C444.885 636.355 442.552 634.021 439.285 634.021H418.283C418.283 631.688 415.95 629.354 413.616 629.354C412.216 629.354 411.283 629.821 410.349 630.754L404.282 636.821H439.751C441.152 636.821 442.085 637.755 442.085 639.155C442.085 640.555 441.152 641.488 439.751 641.488H399.149V635.888L406.149 628.887H378.614L385.614 635.888V646.155L374.413 637.288C375.347 636.355 375.814 634.955 375.814 634.021C375.814 631.221 373.48 629.354 371.147 629.354C369.746 629.354 368.813 629.821 367.88 630.288V638.688L384.681 652.222L376.747 654.556C376.28 652.689 374.413 651.289 372.08 651.289C369.28 651.289 367.413 653.623 367.413 655.956C367.413 657.356 367.88 658.29 368.346 659.223H378.147L421.083 645.689V652.689L415.483 654.556C415.016 652.689 413.15 651.289 410.816 651.289C408.016 651.289 406.149 653.623 406.149 655.956C406.149 657.356 406.616 658.29 407.082 659.223H416.883L427.617 655.956L432.751 654.556L428.551 650.822L425.75 648.022H444.885V653.156C443.952 652.222 442.552 651.289 441.152 651.289C438.351 651.289 436.485 653.623 436.485 655.956C436.485 657.356 436.951 658.29 437.418 659.223H449.552V641.955H444.418ZM391.681 642.422L387.014 637.755H396.348L391.681 642.422ZM444.418 608.819C444.885 607.886 444.885 607.419 444.885 606.486C444.885 603.219 442.552 600.885 439.285 600.885H418.283C418.283 598.552 415.95 596.218 413.616 596.218C412.216 596.218 411.283 596.685 410.349 597.619L404.282 603.686H439.285C440.685 603.686 441.618 604.619 441.618 606.019C441.618 607.419 440.685 608.353 439.285 608.353H398.682V602.752L405.682 595.752H378.147L385.148 602.752V613.02L373.947 604.152C374.88 603.219 375.347 601.819 375.347 600.885C375.347 598.085 373.013 596.218 370.68 596.218C369.28 596.218 368.346 596.685 367.413 597.152V605.552L384.214 619.087L376.28 621.42C375.814 619.553 373.947 618.153 371.613 618.153C368.813 618.153 366.946 620.487 366.946 622.82C366.946 623.754 367.413 625.154 367.88 626.087H377.68L420.617 612.553V619.553L415.016 621.42C414.55 619.553 412.683 618.153 410.349 618.153C407.549 618.153 405.682 620.487 405.682 622.82C405.682 623.754 406.149 625.154 406.616 626.087H416.883L427.617 622.82L432.751 620.954L428.551 617.22L425.75 614.42H444.885V619.553C443.952 618.62 442.552 617.687 441.152 617.687C438.351 617.687 436.485 620.02 436.485 622.354C436.485 623.287 436.951 624.687 437.418 625.621H449.552V607.886H444.418V608.819ZM391.681 609.286L387.014 604.619H396.348L391.681 609.286ZM444.418 575.217C444.885 574.284 444.885 573.817 444.885 572.883C444.885 569.617 442.552 567.283 439.285 567.283H418.283C418.283 564.95 415.95 562.616 413.616 562.616C412.216 562.616 411.283 563.083 410.349 564.016L404.282 570.083H439.285C440.685 570.083 441.618 571.017 441.618 572.417C441.618 573.817 440.685 574.75 439.285 574.75H398.682V569.15L405.682 562.149H378.147L385.148 569.15V579.417L373.947 570.55C374.88 569.617 375.347 568.216 375.347 567.283C375.347 564.483 373.013 562.616 370.68 562.616C369.28 562.616 368.346 563.083 367.413 563.549V571.95L384.214 585.484L376.28 587.818C375.814 585.951 373.947 584.551 371.613 584.551C368.813 584.551 366.946 586.884 366.946 589.218C366.946 590.618 367.413 591.551 367.88 592.485H377.68L420.617 578.951V585.951L415.016 587.818C414.55 585.951 412.683 584.551 410.349 584.551C407.549 584.551 405.682 586.884 405.682 589.218C405.682 590.618 406.149 591.551 406.616 592.485H416.416L427.151 589.218L432.284 587.818L428.084 584.084L425.284 581.284H444.418V586.418C443.485 585.484 442.085 584.551 440.685 584.551C437.885 584.551 436.018 586.884 436.018 589.218C436.018 590.618 436.485 591.551 436.951 592.485H449.085V574.75L444.418 575.217ZM391.681 576.15L387.014 571.483H396.348L391.681 576.15ZM590.496 660.623C593.762 659.69 595.163 656.423 594.229 653.623C593.762 652.222 592.829 650.822 591.429 650.356C590.029 649.422 588.629 649.422 587.229 649.889C585.829 650.356 584.428 651.289 583.962 652.689C583.028 654.089 583.028 655.489 583.495 656.889C584.428 659.69 587.695 661.09 590.496 660.623ZM574.161 673.224L575.094 678.358L593.762 675.557C594.229 675.557 612.43 684.891 612.43 684.891L611.497 678.358L598.429 671.824C599.363 670.89 609.164 662.023 609.164 662.023L608.23 655.489L607.763 655.956C607.763 655.956 593.296 669.49 592.829 669.957C592.829 670.424 574.161 673.224 574.161 673.224ZM588.629 691.425C588.629 692.825 589.095 694.225 590.496 695.626C591.429 696.559 592.829 697.492 594.696 697.026C596.096 697.026 597.496 696.559 598.896 695.159C599.83 694.225 600.296 692.825 600.296 690.959C600.296 689.558 599.83 688.158 598.429 686.758C597.496 685.825 596.096 684.891 594.229 684.891C590.962 685.358 588.629 688.158 588.629 691.425ZM575.561 700.759L575.094 705.893C575.094 705.893 589.562 707.76 590.496 708.226C590.496 708.693 590.029 712.427 590.029 712.427V714.76C590.029 717.094 590.496 719.427 591.896 721.294C593.296 723.161 595.629 724.561 598.896 725.028C605.43 725.961 610.097 722.694 611.03 716.16L612.43 705.893L575.561 700.759ZM605.43 710.093C605.43 710.56 604.963 715.227 604.963 715.227C604.497 719.894 600.763 719.894 599.363 719.427C596.563 718.961 594.696 717.094 594.696 714.76V713.827C594.696 713.827 595.163 710.093 595.163 709.16C596.096 708.693 604.963 709.627 605.43 710.093ZM572.294 721.761L566.227 739.495L571.361 741.362C571.361 741.362 575.561 728.761 575.561 728.295C576.028 728.761 584.428 731.095 585.362 731.561C584.895 732.495 581.162 743.696 581.162 743.696L586.295 745.562C586.295 745.562 590.029 733.895 590.496 733.428C590.962 733.895 599.363 736.228 599.83 736.695C599.363 737.629 595.629 749.296 595.629 749.296L600.763 751.163L606.83 733.428L572.294 721.761ZM565.294 742.762L562.96 746.496C562.96 746.496 583.495 759.563 585.362 760.964C583.028 760.964 552.226 763.764 552.226 763.764L549.893 767.497L580.695 787.099L583.495 782.898C583.495 782.898 562.96 769.831 561.093 768.431C563.427 768.431 594.696 765.164 594.696 765.164L597.029 761.43L565.294 742.762ZM553.16 786.632C549.426 787.099 546.159 788.032 543.826 785.699C542.892 784.765 541.959 781.965 544.292 779.632C546.626 777.298 549.893 776.831 553.626 777.298H555.026L549.426 771.698C545.692 772.164 542.892 773.098 540.559 775.898C538.692 777.765 537.758 780.098 537.758 782.432C537.758 785.232 538.692 787.565 541.025 789.899C545.692 794.566 550.826 793.633 555.493 792.699C558.76 791.766 561.56 791.299 563.894 793.166C564.36 794.099 564.827 794.566 564.827 795.499C564.827 796.899 564.36 797.833 562.96 799.233C561.093 801.1 558.76 802.033 555.493 801.566H554.56L559.693 806.7C562.494 806.233 564.827 805.3 566.694 803.433C569.027 801.1 569.961 798.766 569.961 796.433C569.961 794.099 569.027 791.299 566.694 789.432C562.494 784.765 557.36 785.699 553.16 786.632ZM530.758 784.765L515.357 795.033L518.157 799.7C518.157 799.7 528.891 792.232 529.825 791.766C530.291 792.232 534.958 799.7 535.425 800.166C534.958 800.633 524.691 807.634 524.691 807.634L527.491 812.301C527.491 812.301 537.758 805.3 538.225 805.3C538.692 805.767 543.359 812.767 543.826 813.701C543.359 814.167 532.625 821.168 532.625 821.168L535.425 825.835L550.826 815.567L530.758 784.765ZM395.882 809.034C395.415 808.567 381.881 800.166 381.414 799.7C381.881 799.233 389.815 786.632 389.815 786.632L385.148 783.832V784.299L366.013 814.634L370.68 817.434C370.68 817.434 378.614 804.833 379.08 804.367C379.547 804.833 393.081 813.234 393.548 813.701C393.081 814.167 385.148 826.768 385.148 826.768L389.815 829.568L409.416 798.766L404.749 795.966C404.282 795.966 396.348 808.1 395.882 809.034ZM377.214 781.965C377.68 777.298 375.814 773.098 373.013 769.831C365.079 760.964 354.345 762.83 347.345 768.897C343.145 772.631 340.811 777.298 340.811 781.965C340.344 786.632 342.211 790.832 345.478 794.566C352.012 802.033 363.213 802.5 371.147 795.499C374.413 791.766 376.747 787.099 377.214 781.965ZM371.613 781.965C371.613 785.232 369.746 788.966 366.946 791.299C361.346 796.433 353.879 796.433 349.212 790.832C346.878 788.499 345.945 785.232 346.411 782.432C346.411 779.165 348.278 775.898 351.078 773.098C353.879 770.764 357.612 769.364 360.879 769.364C364.146 769.364 366.946 770.764 368.813 773.098C370.68 775.898 371.613 778.698 371.613 781.965ZM358.079 751.63C358.079 751.63 335.677 761.897 333.811 762.83C334.744 760.964 349.212 732.495 349.212 732.495L347.345 728.295H346.878L314.209 743.696L316.543 748.363C316.543 748.363 338.944 738.095 340.811 737.162C339.878 739.029 325.41 767.497 325.41 767.497L327.277 771.231L359.946 755.83L358.079 751.63ZM310.476 727.361L311.876 732.962L346.878 724.094L345.945 718.494L345.478 718.961L310.476 727.361ZM329.144 706.826C327.743 705.893 326.343 705.426 324.943 705.893C323.543 705.893 322.143 706.826 321.21 708.226C320.276 709.627 319.81 711.027 320.276 712.427C320.276 713.827 321.21 715.227 322.61 716.16C324.01 717.094 325.41 717.56 326.81 717.094C330.077 716.627 331.944 713.827 331.477 710.56C331.01 708.693 330.077 707.76 329.144 706.826ZM326.81 692.825C329.144 689.558 331.01 686.758 334.277 686.758C335.211 686.758 336.144 687.225 337.077 688.158C338.011 689.092 338.478 690.492 338.478 691.892C338.478 694.692 336.611 697.492 333.344 699.826L332.41 700.759H340.344C342.678 697.959 343.611 695.159 343.611 691.425C343.611 689.092 342.678 686.758 341.278 684.891C339.411 683.025 336.611 682.091 333.811 682.091C327.277 682.091 324.477 686.292 321.676 690.492C319.81 693.292 318.409 696.092 315.609 696.092C314.676 696.092 313.742 695.626 313.276 695.159C312.342 694.225 311.876 692.825 311.876 691.425C311.876 689.092 313.276 686.292 315.609 684.425L316.543 683.958H309.542C307.675 686.292 306.742 688.625 306.742 691.425C306.742 694.692 307.675 697.026 309.542 698.892C311.409 700.759 313.742 701.693 316.543 701.693C321.21 700.759 324.01 696.559 326.81 692.825ZM324.477 677.424C329.61 678.824 334.744 677.891 338.944 675.557C342.678 673.224 345.478 669.49 346.411 664.823C347.345 660.156 346.878 655.489 344.545 651.756C342.211 647.555 337.544 644.289 332.41 643.355C322.143 640.555 312.342 646.155 310.009 655.956C309.542 657.356 309.542 658.756 309.542 660.156C309.542 663.423 310.476 666.223 311.876 668.557C315.143 673.224 319.343 676.491 324.477 677.424ZM316.076 657.356C317.009 654.089 318.876 651.756 321.21 649.889C324.01 648.022 327.743 647.555 331.477 648.489C335.211 649.422 338.478 651.756 339.878 654.556C341.278 657.356 341.744 660.156 341.278 663.423C339.411 669.957 332.877 673.691 325.41 671.824C318.409 670.424 314.209 664.357 316.076 657.356Z" fill="black"></path> <path d="M626.898 692.825C626.898 648.022 609.63 606.019 577.895 574.283C574.161 570.55 570.427 567.283 566.227 563.549V557.015C572.761 556.549 578.361 550.948 578.361 544.415C578.361 537.414 572.761 531.814 565.76 531.814H564.827L576.961 526.213L572.294 515.946L590.496 473.476L582.562 470.209L563.894 513.612L554.093 518.279L560.627 532.28H358.079L364.613 518.279L354.345 513.612L335.677 470.209L327.743 473.476L345.945 515.946L341.278 526.213L353.412 531.814H352.945C345.945 531.814 340.344 537.414 340.344 544.415C340.344 550.948 345.478 556.549 352.012 557.015V563.549C348.278 566.816 344.078 570.55 340.344 574.283C308.609 606.019 291.341 648.022 291.341 692.825C291.341 727.361 301.608 760.497 321.676 788.965C341.278 816.501 367.88 837.502 399.615 849.17C399.615 849.17 401.482 849.636 404.282 851.036C404.749 855.703 407.549 859.904 411.749 861.304C416.416 863.171 421.55 861.304 424.35 858.037H424.817V905.64C424.817 923.375 439.751 937.376 458.419 937.376C477.087 937.376 492.022 922.908 492.022 905.64V873.905L574.161 834.702C576.961 833.769 579.295 832.368 581.628 830.502C588.162 824.435 589.095 815.101 584.895 802.966C592.362 794.566 598.896 785.698 604.03 775.898C618.964 750.696 626.898 722.227 626.898 692.825ZM539.625 539.748L563.894 544.881L539.625 550.015V539.748ZM461.686 794.566V668.557H557.827V692.358C557.827 715.693 553.626 731.561 547.559 743.229C542.425 751.629 536.358 759.563 528.891 766.564L527.491 767.964C509.756 784.765 485.955 794.099 461.686 794.566ZM490.622 798.766C488.755 802.966 487.355 807.633 486.421 812.767C477.087 809.5 468.22 806.233 459.353 802.966C470.087 803.433 480.821 801.566 490.622 798.766ZM461.686 664.356V557.482H557.827V664.356H461.686ZM495.289 539.748L519.557 544.881L495.289 550.015V539.748ZM450.486 539.748L474.754 544.881L450.486 550.015V539.748ZM405.216 539.748L429.484 544.881L405.216 550.015V539.748ZM361.346 539.748L385.614 544.881L361.346 550.015V539.748ZM361.346 641.488V557.482H457.486V664.356H361.346V641.488ZM361.346 668.557H457.486V794.566C437.885 794.099 418.75 788.032 402.415 776.831C401.949 776.364 401.015 775.898 400.549 775.431L400.082 774.964C399.615 774.498 399.149 774.498 398.682 774.031C398.215 773.564 397.748 773.098 397.282 773.098L396.815 772.631C386.548 764.697 377.68 754.43 371.147 742.762C365.079 731.095 361.346 715.227 361.346 692.358V668.557ZM407.082 843.103C405.682 842.636 404.282 842.169 403.349 841.702C373.48 830.502 347.812 810.434 329.61 784.298C310.942 757.696 300.675 725.961 300.675 692.825C300.675 650.355 317.009 610.686 347.345 580.35C349.212 578.484 351.078 576.617 352.945 575.217V618.62C346.411 613.953 338.944 609.286 338.478 608.819C338.944 608.352 344.545 599.485 344.545 599.485L339.878 596.685V597.152L324.943 619.553L329.61 622.353C329.61 622.353 335.211 613.953 335.677 613.019C336.144 613.486 345.945 619.553 352.945 624.687V640.088L322.143 626.087V626.554L319.81 631.221L352.945 646.622V665.29C350.612 674.157 349.212 683.491 349.212 693.292C349.212 713.36 354.812 732.028 364.146 748.362C370.213 760.03 378.147 767.964 385.614 774.964C388.881 777.765 392.148 780.565 395.882 783.365C396.348 783.365 396.348 783.832 396.815 783.832C397.282 784.298 397.748 784.298 398.215 784.765C398.682 785.232 399.149 785.232 399.615 785.698L400.082 786.165C402.882 788.032 405.682 789.899 408.949 791.299C413.15 793.166 418.75 795.966 425.284 798.766L418.283 816.034L415.016 814.634C413.15 813.7 410.816 814.634 409.883 816.501C408.949 818.367 409.883 820.701 411.749 821.634L415.016 823.034L407.082 843.103ZM484.555 906.107C484.555 909.374 483.621 912.641 482.221 915.441C480.821 917.775 478.488 919.175 476.154 919.175C472.887 919.175 470.087 917.308 469.154 914.041C469.154 913.574 468.687 912.174 468.22 909.841C469.154 910.307 470.087 910.307 471.02 910.307C475.221 910.307 478.488 907.04 478.488 903.307C478.488 899.107 475.221 896.306 471.02 896.306C468.687 896.306 466.82 897.24 465.42 898.64C463.086 889.306 460.753 879.038 460.753 879.038H457.486C457.486 879.038 455.153 889.306 452.819 898.64C451.419 897.24 449.552 896.306 447.685 896.306C443.485 896.306 440.685 899.573 440.685 903.307C440.685 907.507 443.952 910.307 447.685 910.307C448.619 910.307 449.552 910.307 450.486 909.841C450.019 911.707 449.552 913.574 449.552 914.041C448.619 916.841 445.819 919.175 442.552 919.175C439.751 919.175 437.418 917.775 436.018 915.441C434.618 912.641 434.151 909.374 434.151 906.107V861.304C449.085 865.971 467.753 871.571 485.021 875.305L484.555 906.107ZM488.288 866.904C462.153 861.304 431.818 851.503 414.083 845.436C415.95 841.236 418.75 833.769 422.017 825.835L426.684 827.701V828.635C426.684 835.169 432.284 840.769 438.818 840.769C445.352 840.769 450.952 835.169 450.952 828.635C450.952 822.101 445.352 816.501 438.818 816.501C435.084 816.501 432.284 817.901 429.951 820.701L424.817 818.367C427.617 811.367 429.951 804.833 431.818 801.1C449.552 808.567 472.42 817.434 494.355 824.435C517.69 831.435 536.358 835.635 550.359 837.035C525.624 849.17 490.155 865.971 488.288 866.904ZM576.495 823.968C574.161 826.301 568.561 828.635 556.893 828.635C564.827 823.034 571.828 816.967 578.361 809.967C580.228 816.501 579.761 821.168 576.495 823.968ZM543.359 827.701C532.158 826.301 516.757 822.568 496.689 816.501C495.755 816.034 494.822 816.034 493.889 815.567C495.755 803.9 499.489 796.433 506.023 792.699C516.29 788.032 525.624 781.498 534.025 773.564C541.492 767.03 548.959 759.097 554.56 747.896C563.894 731.561 569.494 712.427 569.494 692.358C569.494 683.024 568.094 673.224 565.76 664.356V646.622L570.894 659.689L576.028 657.823C576.028 657.823 570.894 645.222 570.894 644.755C571.828 644.288 599.83 633.088 599.83 633.088L597.963 627.954H597.496L566.227 640.555V638.221L587.229 608.352L585.362 605.086H584.895L566.227 609.286V574.283C568.094 576.15 569.961 577.55 571.828 579.417C601.696 609.286 618.498 649.422 618.498 691.892C618.498 719.427 611.497 746.962 597.496 770.764C584.428 794.566 565.76 813.7 543.359 827.701ZM568.094 627.487L566.227 630.287V624.687L568.094 627.487ZM566.694 615.353C567.627 615.353 576.961 613.019 578.361 612.553C577.428 613.953 571.828 621.887 571.361 622.353C570.894 621.887 567.161 616.286 566.694 615.353Z" fill="black"></path> <path d="M584.428 424.006C577.895 414.205 567.16 410.005 559.227 410.005C548.026 410.005 536.358 414.672 525.157 419.339C512.557 424.473 499.489 429.606 486.421 428.673C487.821 424.006 489.688 419.339 492.022 415.605L484.088 411.872C485.488 409.072 486.888 405.805 487.355 402.071C486.421 401.604 475.687 397.871 458.419 397.871C441.151 397.871 431.351 401.604 430.417 402.071C430.884 405.805 431.817 409.072 433.684 411.872L425.75 415.605C428.084 419.339 429.951 424.006 431.351 428.673C418.283 430.073 405.216 424.473 392.615 419.339C381.414 414.672 369.746 410.005 358.546 410.005C350.612 410.005 339.878 414.205 333.344 424.006C328.21 431.94 324.01 446.874 335.211 470.676V470.209L351.545 463.209L352.478 466.009C347.345 468.343 342.211 474.41 348.278 488.411C362.279 482.344 362.746 474.41 360.412 469.276L363.213 468.343L370.213 484.21L377.214 500.078L374.413 501.012C372.08 495.878 366.013 490.744 352.012 496.811C358.079 510.812 368.813 516.413 377.214 516.413C391.681 516.413 401.949 507.545 400.549 498.678C399.615 492.144 393.548 489.811 391.215 490.277C388.414 490.744 386.548 494.011 387.014 495.878C387.014 496.345 387.481 496.811 387.481 497.278L387.014 497.745C383.281 497.278 380.014 494.478 379.08 490.744C378.147 486.077 381.414 481.41 386.081 480.477C388.881 480.01 391.681 480.943 394.015 482.81L394.948 481.41C392.148 480.01 390.281 477.677 389.814 474.41C388.414 466.942 396.815 459.475 397.282 459.475C397.282 459.475 408.016 463.209 409.416 470.676C409.883 473.943 408.949 476.743 407.082 479.077L408.482 480.01C409.416 477.677 411.749 475.343 415.016 474.876C419.683 473.943 424.35 477.21 425.284 481.877C426.217 485.61 423.884 489.811 420.617 491.211L420.15 490.744V489.344C419.683 487.011 416.883 485.144 414.083 485.61C411.749 486.077 407.082 490.277 408.482 496.811C410.816 508.012 420.15 515.946 431.351 515.946C442.552 515.946 454.686 506.612 454.686 492.611C438.351 492.611 434.618 500.078 434.618 506.612H431.351V469.276H434.618C434.618 475.343 438.818 483.277 454.686 483.277C454.686 466.942 447.219 463.209 440.685 463.209V459.942H477.554V463.209C471.487 463.209 463.553 467.409 463.553 483.277C479.888 483.277 483.621 475.81 483.621 469.276H486.888V506.612H484.555C484.555 500.545 480.354 492.611 464.486 492.611C464.486 506.612 476.154 515.946 487.821 515.946C499.022 515.946 508.823 508.012 510.69 496.811C512.09 490.277 507.423 485.61 505.089 485.61C502.289 485.144 499.489 487.011 499.022 489.344V490.744L498.556 491.211C495.289 489.344 492.955 485.61 493.889 481.877C494.822 477.21 499.489 473.943 504.156 474.876C506.956 475.343 509.29 477.21 510.69 480.01L512.09 479.077C510.223 476.743 509.29 473.943 509.756 470.676C511.156 463.209 521.891 459.475 521.891 459.475C521.891 459.475 530.758 466.942 529.358 474.41C528.891 477.677 526.558 480.01 524.224 481.41L525.157 482.81C527.024 480.943 529.824 480.01 533.091 480.477C537.758 481.41 541.025 486.077 540.092 490.744C539.158 494.944 535.892 497.745 532.158 497.745L531.691 497.278C532.158 496.811 532.158 496.345 532.158 495.878C532.625 493.544 530.758 490.744 527.958 490.277C525.624 489.811 519.557 492.144 518.624 498.678C517.224 507.545 527.958 516.413 541.959 516.413C550.359 516.413 561.093 510.812 567.16 496.811C553.159 490.744 547.092 495.878 544.759 501.012L541.959 500.078L548.959 484.21L555.96 468.343L558.76 469.276C556.426 474.41 556.893 482.344 570.894 488.411C576.961 474.41 571.827 468.343 566.694 466.009L567.627 463.209L583.962 470.209V470.676C593.762 446.408 589.562 431.94 584.428 424.006ZM434.618 444.541C426.684 444.541 420.15 448.741 416.416 455.275C412.216 447.808 402.882 443.141 394.015 445.008C387.481 446.408 381.881 451.075 379.547 456.675C375.813 450.608 369.28 446.874 361.812 446.874C352.478 446.874 344.545 452.941 341.744 461.342C336.611 447.808 336.611 436.607 341.744 428.673C346.878 420.739 355.745 418.406 359.479 418.406C369.28 418.406 379.547 422.606 390.281 426.806C404.282 432.407 418.75 438.474 434.618 436.14C435.084 438.94 435.551 441.274 436.018 444.074C435.551 444.541 435.084 444.541 434.618 444.541ZM459.353 401.138C463.553 401.138 467.287 404.405 467.753 408.605C465.42 406.738 462.62 405.338 459.353 405.338C456.086 405.338 453.286 406.738 450.952 408.605C451.419 404.405 455.152 401.138 459.353 401.138ZM459.353 409.072C463.553 409.072 467.287 412.339 467.753 416.539C465.42 414.672 462.62 413.272 459.353 413.272C456.086 413.272 453.286 414.672 450.952 416.539C451.419 412.339 455.152 409.072 459.353 409.072ZM459.353 456.208C454.686 456.208 450.952 452.475 450.952 447.808C450.952 443.141 454.686 439.407 459.353 439.407C464.02 439.407 467.753 443.141 467.753 447.808C467.753 452.475 464.02 456.208 459.353 456.208ZM467.287 438.007C464.953 436.14 462.153 435.207 459.353 435.207C456.086 435.207 453.752 436.14 451.419 438.007C450.952 437.074 450.952 436.14 450.952 435.207C450.952 430.54 454.686 426.806 459.353 426.806C464.02 426.806 467.753 430.54 467.753 435.207C467.753 436.14 467.753 437.074 467.287 438.007ZM467.753 426.34C465.42 424.473 462.62 423.073 459.353 423.073C456.086 423.073 453.286 424.473 450.952 426.34V425.873C450.952 421.206 454.686 417.472 459.353 417.472C464.02 417.472 467.753 421.206 467.753 425.873V426.34ZM576.961 461.342C574.161 452.941 566.227 446.874 556.893 446.874C549.426 446.874 542.892 450.608 539.158 456.675C536.358 451.075 531.225 446.408 524.691 445.008C515.357 443.141 506.489 447.341 502.289 455.275C498.556 449.208 492.022 444.541 484.088 444.541H482.688C483.154 442.207 483.621 439.407 484.088 436.607C499.956 438.94 514.423 432.873 528.424 427.273C539.158 423.073 549.426 418.872 559.227 418.872C562.96 418.872 571.827 421.206 576.961 429.14C582.095 436.607 582.095 447.808 576.961 461.342ZM506.023 563.549L507.89 567.283H509.756L509.29 568.683L509.756 567.75H510.223L510.69 567.283L512.557 563.549H509.29H506.023ZM470.554 566.816L470.087 567.283V568.683L466.82 568.216V565.883L464.486 561.683L464.953 561.216L469.153 563.549H471.487V566.816L470.554 566.35" fill="black"></path> <path d="M472.887 565.883C472.42 565.883 471.954 565.416 471.954 564.949C471.954 564.483 472.42 564.016 472.887 564.016C473.354 564.016 473.354 564.016 473.821 564.483H474.287V563.549C474.287 562.149 473.354 561.216 471.954 561.216C470.554 561.216 469.62 562.149 469.62 563.549C469.62 564.949 470.554 565.883 471.954 565.883H472.887ZM469.154 569.616C469.154 569.15 468.687 568.683 468.22 568.683C467.753 568.683 467.287 569.15 467.287 569.616C467.287 570.083 467.287 570.083 467.753 570.55V571.017H466.82C465.42 571.017 464.487 570.083 464.487 568.683C464.487 567.283 465.42 566.35 466.82 566.35C468.22 566.35 469.154 567.283 469.154 568.683V569.616ZM470.554 655.956L470.087 655.489V654.089L466.82 654.556V656.423L464.487 660.623L464.953 661.556L469.154 658.756H471.487V655.489L470.554 655.956Z" fill="black"></path> <path d="M472.887 656.423C472.42 656.423 471.954 656.89 471.954 657.356C471.954 657.823 472.42 658.29 472.887 658.29C473.354 658.29 473.354 658.29 473.821 657.823H474.287V658.756C474.287 660.156 473.354 661.09 471.954 661.09C470.554 661.09 469.62 660.156 469.62 658.756C469.62 657.356 470.554 656.423 471.954 656.423H472.887ZM469.154 653.156C469.154 653.623 468.687 654.089 468.22 654.089C467.753 654.089 467.287 653.623 467.287 653.156C467.287 652.689 467.287 652.689 467.753 652.223V651.756H466.82C465.42 651.756 464.487 652.689 464.487 654.089C464.487 655.489 465.42 656.423 466.82 656.423C468.22 656.423 469.154 655.489 469.154 654.089V653.156ZM548.026 655.956L548.493 655.489V654.089L551.759 654.556V656.423L554.093 660.623L553.626 661.557L549.426 658.756H547.092V655.489L548.026 655.956Z" fill="black"></path> <path d="M545.692 656.423C546.159 656.423 546.626 656.889 546.626 657.356C546.626 657.823 546.159 658.289 545.692 658.289C545.226 658.289 545.226 658.289 544.759 657.823H544.292V658.756C544.292 660.156 545.226 661.09 546.626 661.09C548.026 661.09 548.959 660.156 548.959 658.756C548.959 657.356 548.026 656.423 546.626 656.423H545.692ZM549.426 653.156C549.426 653.622 549.893 654.089 550.359 654.089C550.826 654.089 551.293 653.622 551.293 653.156C551.293 652.689 551.293 652.689 550.826 652.222V651.756H551.759C553.16 651.756 554.093 652.689 554.093 654.089C554.093 655.489 553.16 656.423 551.759 656.423C550.359 656.423 549.426 655.489 549.426 654.089V653.156ZM548.026 566.816L548.493 567.283V568.683L551.759 568.216V565.883L554.093 561.683L553.626 561.216L549.426 563.549H547.092V566.816L548.026 566.35" fill="black"></path> <path d="M545.692 565.883C546.159 565.883 546.626 565.416 546.626 564.949C546.626 564.483 546.159 564.016 545.692 564.016C545.226 564.016 545.226 564.016 544.759 564.483H544.292V563.549C544.292 562.149 545.226 561.216 546.626 561.216C548.026 561.216 548.959 562.149 548.959 563.549C548.959 564.949 548.026 565.883 546.626 565.883H545.692ZM549.426 569.616C549.426 569.15 549.893 568.683 550.359 568.683C550.826 568.683 551.293 569.15 551.293 569.616C551.293 570.083 551.293 570.083 550.826 570.55V571.017H551.759C553.16 571.017 554.093 570.083 554.093 568.683C554.093 567.283 553.16 566.35 551.759 566.35C550.359 566.35 549.426 567.283 549.426 568.683V569.616ZM505.556 572.417H512.557V575.217H505.556V572.417ZM507.423 575.684H511.157L509.756 578.484H508.823L507.423 575.684Z" fill="black"></path> <path d="M514.423 575.217L513.957 575.683C513.49 575.683 513.023 575.217 513.023 574.75C513.023 574.283 513.49 573.817 513.957 573.817H513.023C512.09 573.817 511.156 574.75 511.156 575.683C511.156 576.617 512.09 577.55 513.023 577.55C513.957 577.55 514.89 576.617 514.89 575.683C514.423 575.683 514.423 575.683 514.423 575.217ZM504.156 575.217L504.623 575.683C505.089 575.683 505.556 575.217 505.556 574.75C505.556 574.283 505.089 573.817 504.623 573.817H505.556C506.489 573.817 507.423 574.75 507.423 575.683C507.423 576.617 506.489 577.55 505.556 577.55C504.623 577.55 503.689 576.617 503.689 575.683C504.156 575.683 504.156 575.683 504.156 575.217ZM512.557 659.223L510.69 655.489L509.29 655.022H508.823H508.356L507.89 655.489L506.023 659.223H509.29H512.557ZM506.023 646.622H513.023V649.422H506.023V646.622Z" fill="black"></path> <path d="M511.156 647.089H507.423L508.823 643.822H509.756L511.156 647.089ZM504.156 647.555L504.623 647.089C505.089 647.089 505.556 647.555 505.556 648.022C505.556 648.489 505.089 648.955 504.623 648.955H505.556C506.489 648.955 507.423 648.022 507.423 647.089C507.423 646.155 506.489 645.222 505.556 645.222C504.623 645.222 503.689 646.155 503.689 647.089C504.156 647.089 504.156 647.089 504.156 647.555ZM514.423 647.555L513.957 647.089C513.49 647.089 513.023 647.555 513.023 648.022C513.023 648.489 513.49 648.955 513.957 648.955H513.023C512.09 648.955 511.156 648.022 511.156 647.089C511.156 646.155 512.09 645.222 513.023 645.222C513.957 645.222 514.89 646.155 514.89 647.089C514.423 647.089 514.423 647.089 514.423 647.555ZM551.759 607.886L548.026 609.753V611.619L547.092 611.153L548.026 612.086H547.559L548.026 612.553L551.759 614.42V611.153V607.886ZM539.625 607.886H542.425V614.886H539.625V607.886ZM539.625 609.286V613.019L536.825 611.619V610.686L539.625 609.286Z" fill="black"></path> <path d="M540.559 616.286L540.092 615.82C540.092 615.353 540.559 614.886 541.025 614.886C541.492 614.886 541.959 615.353 541.959 615.82V614.886C541.959 613.953 541.025 613.02 540.092 613.02C539.159 613.02 538.225 613.953 538.225 614.886C538.225 615.82 539.159 616.753 540.092 616.753L540.559 616.286ZM540.559 606.486L540.092 606.952C540.092 607.419 540.559 607.886 541.025 607.886C541.492 607.886 541.959 607.419 541.959 606.952V607.886C541.959 608.819 541.025 609.753 540.092 609.753C539.159 609.753 538.225 608.819 538.225 607.886C538.225 606.952 539.159 606.019 540.092 606.019L540.559 606.486ZM466.82 607.886L470.554 609.753V611.619L471.487 611.153L470.554 612.086H471.02L470.554 612.553L466.82 614.42V611.153V607.886ZM475.687 607.886H478.488V614.886H475.687V607.886ZM478.954 609.286V613.02L481.754 611.619V610.686L478.954 609.286Z" fill="black"></path> <path d="M478.487 616.286L478.954 615.82C478.954 615.353 478.487 614.886 478.021 614.886C477.554 614.886 477.087 615.353 477.087 615.82V614.886C477.087 613.953 478.021 613.02 478.954 613.02C479.888 613.02 480.821 613.953 480.821 614.886C480.821 615.82 479.888 616.753 478.954 616.753C478.954 616.753 478.487 616.753 478.487 616.286ZM478.487 606.486L478.954 606.952C478.954 607.419 478.487 607.886 478.021 607.886C477.554 607.886 477.087 607.419 477.087 606.952V607.886C477.087 608.819 478.021 609.753 478.954 609.753C479.888 609.753 480.821 608.819 480.821 607.886C480.821 606.952 479.888 606.019 478.954 606.019C478.954 606.019 478.487 606.019 478.487 606.486ZM342.678 1006.91V1124.06H486.421V1006.91H522.824V1279.47H486.421V1154.86H342.678V1279.47H306.275V1006.91H342.678ZM567.627 1140.39C571.827 1127.79 577.895 1117.06 585.828 1107.72C593.762 1098.39 604.03 1090.92 616.164 1085.79C628.298 1080.65 641.832 1077.85 657.234 1077.85C673.101 1077.85 686.636 1080.65 698.77 1085.79C710.437 1090.92 720.705 1098.39 728.639 1107.72C736.573 1117.06 743.106 1127.79 746.84 1140.39C751.04 1152.99 752.907 1166.53 752.907 1180.99C752.907 1195.46 751.04 1209 746.84 1221.6C742.64 1234.2 736.573 1244.93 728.639 1254.27C720.705 1263.6 710.437 1270.6 698.77 1276.2C687.102 1281.33 673.101 1284.13 657.234 1284.13C641.832 1284.13 627.831 1281.33 616.164 1276.2C604.03 1271.07 594.229 1263.6 585.828 1254.27C577.895 1244.93 571.361 1234.2 567.627 1221.6C563.427 1209 561.56 1195.46 561.56 1180.99C561.56 1166.53 563.427 1152.99 567.627 1140.39ZM600.763 1212.73C604.03 1222.06 608.23 1230 613.83 1236.06C619.431 1242.13 625.965 1247.26 633.432 1250.53C640.899 1253.8 648.833 1255.67 657.234 1255.67C665.634 1255.67 673.568 1253.8 681.035 1250.53C688.502 1247.26 695.036 1242.6 700.637 1236.06C706.237 1230 710.437 1222.06 713.704 1212.73C716.971 1203.4 718.371 1192.66 718.371 1180.99C718.371 1168.86 716.971 1158.59 713.704 1149.26C710.437 1139.92 706.237 1131.99 700.637 1125.92C695.036 1119.39 688.502 1114.72 681.035 1111.46C673.568 1108.19 665.634 1106.32 657.234 1106.32C648.833 1106.32 640.899 1108.19 633.432 1111.46C625.965 1114.72 619.431 1119.39 613.83 1125.92C608.23 1132.46 604.03 1139.92 600.763 1149.26C597.496 1158.59 596.096 1169.33 596.096 1180.99C596.096 1192.66 597.496 1203.4 600.763 1212.73ZM817.312 1082.05V1110.99H818.245C833.18 1088.59 854.181 1077.39 882.183 1077.39C894.317 1077.39 905.518 1079.72 915.319 1084.85C925.119 1089.99 932.12 1098.39 936.32 1110.99C942.854 1100.25 951.721 1091.85 962.455 1086.25C973.19 1080.19 985.324 1077.39 997.925 1077.39C1007.73 1077.39 1016.59 1078.32 1024.99 1080.65C1032.93 1082.99 1039.93 1086.25 1045.53 1090.92C1051.13 1095.59 1055.8 1101.19 1059.06 1108.65C1062.33 1116.12 1063.73 1124.52 1063.73 1134.79V1279.47H1031.06V1150.19C1031.06 1144.12 1030.59 1138.52 1029.66 1132.92C1028.73 1127.79 1026.86 1123.12 1024.06 1118.92C1021.26 1115.19 1017.53 1111.92 1012.39 1109.59C1007.26 1107.25 1001.19 1106.32 993.258 1106.32C977.39 1106.32 964.789 1110.99 955.455 1119.86C946.121 1128.72 941.921 1141.32 941.921 1156.72V1279.47H909.252V1150.19C909.252 1143.66 908.785 1138.06 907.385 1132.46C906.451 1127.32 904.118 1122.66 901.318 1118.46C898.518 1114.72 894.784 1111.46 890.117 1109.12C885.45 1106.79 879.383 1105.85 871.916 1105.85C862.582 1105.85 854.648 1107.72 847.647 1111.46C841.113 1115.19 835.513 1119.86 831.313 1124.99C827.112 1130.12 823.846 1135.72 821.979 1141.79C820.112 1147.39 819.178 1152.06 819.178 1156.26V1279H786.509V1082.05H817.312ZM1247.61 1266.87C1232.67 1278.07 1214.47 1283.67 1192.07 1283.67C1176.2 1283.67 1162.67 1281.33 1151 1276.2C1139.33 1271.07 1129.53 1264.07 1121.6 1254.73C1113.67 1245.4 1107.6 1234.66 1103.87 1222.06C1100.13 1209.46 1097.8 1195.46 1097.33 1180.53C1097.33 1165.59 1099.67 1151.59 1104.33 1139.46C1109 1126.86 1115.53 1116.12 1123.47 1106.79C1131.87 1097.45 1141.67 1090.45 1152.87 1085.32C1164.07 1080.19 1176.67 1077.85 1190.2 1077.85C1207.94 1077.85 1222.41 1081.59 1234.07 1088.59C1245.74 1096.05 1255.08 1104.92 1262.08 1116.12C1269.08 1127.32 1273.74 1139.46 1276.54 1152.99C1279.34 1166.06 1280.28 1178.66 1279.81 1190.79H1131.87C1131.4 1199.66 1132.8 1207.6 1135.13 1215.53C1137.47 1223.46 1141.2 1230 1146.34 1236.06C1151.47 1242.13 1158 1246.8 1165.94 1250.53C1173.87 1254.27 1183.2 1255.67 1193.94 1255.67C1207.47 1255.67 1219.14 1252.4 1227.54 1246.33C1236.41 1239.8 1242.01 1230.46 1244.81 1217.4H1277.01C1271.88 1238.86 1262.08 1255.67 1247.61 1266.87ZM1239.68 1139.92C1236.88 1132.92 1232.67 1127.32 1228.01 1122.19C1222.87 1117.06 1217.27 1113.32 1210.27 1110.52C1203.74 1107.72 1196.27 1106.32 1187.87 1106.32C1179.47 1106.32 1172 1107.72 1165 1110.52C1158.47 1113.32 1152.4 1117.52 1147.74 1122.66C1143.07 1127.79 1138.87 1133.86 1136.07 1140.39C1133.27 1146.92 1131.4 1154.39 1130.93 1161.86H1244.34C1244.34 1154.39 1242.48 1146.92 1239.68 1139.92ZM1408.15 1089.52C1413.75 1072.25 1421.69 1057.32 1432.89 1043.78C1443.62 1030.72 1457.62 1019.98 1473.96 1012.05C1490.29 1004.11 1509.43 1000.38 1530.9 1000.38C1552.36 1000.38 1571.5 1004.11 1587.83 1012.05C1604.17 1019.98 1617.7 1030.72 1628.9 1043.78C1639.64 1056.85 1648.04 1072.25 1653.64 1089.52C1659.24 1106.79 1662.04 1124.52 1662.04 1143.19C1662.04 1161.86 1659.24 1179.59 1653.64 1196.86C1648.04 1214.13 1640.1 1229.06 1628.9 1242.6C1618.17 1255.67 1604.17 1266.4 1587.83 1273.87C1571.5 1281.8 1552.36 1285.53 1530.9 1285.53C1509.43 1285.53 1490.29 1281.8 1473.96 1273.87C1457.62 1265.93 1444.09 1255.67 1432.89 1242.6C1422.15 1229.53 1413.75 1214.13 1408.15 1196.86C1402.55 1179.59 1399.75 1161.86 1399.75 1143.19C1399.75 1124.52 1402.55 1106.79 1408.15 1089.52ZM1441.29 1183.79C1445.02 1197.33 1450.62 1209 1458.09 1219.73C1465.56 1230.46 1475.36 1238.86 1487.49 1245.4C1499.63 1251.93 1513.63 1255.2 1530.43 1255.2C1546.76 1255.2 1561.23 1251.93 1573.37 1245.4C1585.5 1238.86 1595.3 1230.46 1602.77 1219.73C1610.23 1209 1615.84 1196.86 1619.57 1183.79C1623.3 1170.26 1624.7 1156.73 1624.7 1143.19C1624.7 1129.66 1622.84 1116.12 1619.57 1102.59C1615.84 1089.05 1610.23 1077.39 1602.77 1066.65C1595.3 1055.92 1585.5 1047.52 1573.37 1040.98C1561.23 1034.45 1547.23 1031.18 1530.43 1031.18C1514.09 1031.18 1499.63 1034.45 1487.49 1040.98C1475.36 1047.52 1465.56 1055.92 1458.09 1066.65C1450.62 1077.39 1445.02 1089.52 1441.29 1102.59C1437.56 1116.12 1436.16 1129.66 1436.16 1143.19C1436.16 1156.73 1438.02 1170.26 1441.29 1183.79ZM1675.57 1110.52V1082.05H1708.71V1052.65C1708.71 1036.78 1713.38 1024.65 1722.71 1016.25C1732.04 1007.85 1745.58 1003.65 1763.31 1003.65C1766.58 1003.65 1769.85 1004.11 1773.58 1004.58C1777.31 1005.05 1781.05 1005.98 1783.85 1006.91V1035.38C1781.05 1034.45 1777.78 1033.52 1774.51 1033.52C1771.25 1033.05 1767.98 1033.05 1765.18 1033.05C1757.25 1033.05 1751.18 1034.45 1746.98 1037.72C1742.78 1040.98 1740.44 1046.58 1740.44 1055.45V1082.99H1778.71V1111.46H1740.44V1280.4H1707.78V1111.46H1675.57V1110.52Z" fill="black"></path> <path d="M1776.85 1110.52V1082.05H1809.98V1052.65C1809.98 1036.78 1814.65 1024.65 1823.98 1016.25C1833.32 1007.85 1846.85 1003.65 1864.59 1003.65C1867.85 1003.65 1871.12 1004.11 1874.85 1004.58C1878.59 1005.05 1882.32 1005.98 1885.12 1006.91V1035.38C1882.32 1034.45 1879.05 1033.52 1875.79 1033.52C1872.52 1033.05 1869.25 1033.05 1866.45 1033.05C1858.52 1033.05 1852.45 1034.45 1848.25 1037.72C1844.05 1040.98 1841.72 1046.58 1841.72 1055.45V1082.99H1879.99V1111.46H1842.65V1280.4H1809.98V1111.46H1776.85V1110.52ZM1907.06 1046.58V1006.91H1939.73V1046.58H1907.06ZM1939.73 1082.05V1279.47H1907.06V1082.05H1939.73ZM2103.07 1116.59C2095.14 1109.59 2083.94 1106.32 2070.4 1106.32C2058.73 1106.32 2048.93 1108.65 2041 1112.86C2033.07 1117.06 2027 1123.12 2022.33 1130.12C2017.66 1137.12 2014.4 1145.52 2012.06 1154.86C2010.2 1164.19 2008.8 1173.53 2008.8 1183.79C2008.8 1193.13 2009.73 1201.99 2012.06 1210.4C2014.4 1219.26 2017.66 1226.73 2022.33 1233.26C2027 1239.8 2033.07 1245.4 2040.07 1249.6C2047.53 1253.8 2056.4 1255.67 2066.2 1255.67C2082.07 1255.67 2094.67 1251.47 2104 1243.06C2112.87 1234.66 2118.47 1223 2120.8 1207.6H2153.94C2150.21 1231.86 2141.34 1251 2126.87 1264.07C2112.4 1277.13 2092.34 1284.13 2067.13 1284.13C2052.2 1284.13 2038.67 1281.8 2027.46 1276.67C2015.8 1272 2006 1265 1998.53 1256.13C1990.6 1247.26 1985 1236.53 1980.79 1224.4C1977.06 1212.26 1974.73 1198.73 1974.73 1183.79C1974.73 1168.86 1976.59 1155.32 1980.33 1142.26C1984.06 1129.19 1990.13 1117.99 1997.6 1108.65C2005.53 1099.32 2014.86 1091.39 2027 1086.25C2038.67 1080.65 2052.2 1077.85 2068.07 1077.85C2079.27 1077.85 2089.54 1079.25 2099.34 1082.05C2109.14 1084.85 2118 1089.05 2125.47 1094.65C2132.94 1100.25 2139.01 1107.25 2144.14 1115.66C2148.81 1124.06 2152.07 1134.32 2153.47 1145.99H2119.87C2116.6 1132.92 2111.47 1123.12 2103.07 1116.59ZM2325.22 1266.87C2310.29 1278.07 2292.08 1283.67 2269.68 1283.67C2253.81 1283.67 2240.28 1281.33 2228.61 1276.2C2216.95 1271.07 2207.14 1264.07 2199.21 1254.73C2191.28 1245.4 2185.21 1234.66 2181.48 1222.06C2177.74 1209.46 2175.41 1195.46 2174.94 1180.53C2174.94 1165.59 2177.28 1151.59 2181.94 1139.46C2186.61 1126.86 2193.14 1116.12 2201.08 1106.79C2209.48 1097.45 2219.28 1090.45 2230.48 1085.32C2241.68 1080.19 2254.28 1077.85 2267.82 1077.85C2285.55 1077.85 2300.02 1081.59 2311.69 1088.59C2323.35 1096.05 2332.69 1104.92 2339.69 1116.12C2346.69 1127.32 2351.35 1139.46 2354.15 1152.99C2356.96 1166.06 2357.89 1178.66 2357.42 1190.79H2209.48C2209.01 1199.66 2210.41 1207.6 2212.74 1215.53C2215.08 1223.46 2218.81 1230 2223.95 1236.06C2229.08 1242.13 2235.61 1246.8 2243.55 1250.53C2251.48 1254.27 2260.81 1255.67 2271.55 1255.67C2285.08 1255.67 2296.75 1252.4 2305.15 1246.33C2314.02 1239.8 2319.62 1230.46 2322.42 1217.4H2354.62C2349.49 1238.86 2340.15 1255.67 2325.22 1266.87ZM2317.75 1139.92C2314.95 1132.92 2310.75 1127.32 2306.08 1122.19C2300.95 1117.06 2295.35 1113.32 2288.35 1110.52C2281.82 1107.72 2274.35 1106.32 2265.95 1106.32C2257.55 1106.32 2250.08 1107.72 2243.08 1110.52C2236.55 1113.32 2230.48 1117.52 2225.81 1122.66C2221.15 1127.79 2216.95 1133.86 2214.14 1140.39C2211.34 1146.92 2209.48 1154.39 2209.01 1161.86H2322.42C2322.42 1154.39 2320.55 1146.92 2317.75 1139.92Z" fill="black"></path> </svg> 