<?xml version="1.0" encoding="UTF-8"?> <svg xmlns="http://www.w3.org/2000/svg" width="2372" height="1816" viewBox="0 0 2372 1816" fill="none"> <path d="M546.136 119.154H1916.89V1491.87H546.136V119.154Z" fill="#0050AA"></path> <path d="M1916.86 119.154V1491.87H546.113V119.154H1916.86ZM1929 107H534V1504H1929V107Z" fill="white"></path> <path d="M1231.5 196.641C895.723 196.641 623.513 469.242 623.513 805.5C623.513 1141.76 895.723 1414.36 1231.5 1414.36C1567.18 1414.36 1839.35 1141.9 1839.49 805.756C1839.49 469.452 1567.3 196.781 1231.5 196.641Z" fill="#FFF000"></path> <path d="M1193.77 822.637L1086.42 715.137L962.683 839.284V880.961L993.862 849.622L1080.24 936.352L1048.34 968.181L1069.08 989.066L1241.82 815.838V774.3L1193.79 822.66L1193.77 822.637Z" fill="#E60A14"></path> <path d="M692.658 692.529H883.843V733.834H851.944V867.457L962.683 805.756V918.843H692.658V877.306H724.673V733.834H692.658V692.529ZM1498.74 692.529V733.834H1530.75V877.306H1498.74V918.843H1768.99V805.756L1658.11 867.457V733.834H1690.13V692.529H1498.74Z" fill="#0050AA"></path> <path d="M1070.66 563.889C1108.23 563.889 1138.71 594.39 1138.71 632.039C1138.71 669.688 1108.25 700.19 1070.66 700.19C1033.08 700.19 1002.6 669.688 1002.6 632.039C1002.6 631.946 1002.6 631.876 1002.6 631.783V631.806C1002.6 594.297 1032.97 563.889 1070.42 563.889C1070.52 563.889 1070.56 563.889 1070.66 563.889Z" fill="#E60A14"></path> <path d="M1231.5 155.592C1231.45 155.592 1231.43 155.592 1231.38 155.592C872.892 155.592 582.29 446.611 582.29 805.616C582.29 1164.62 872.892 1455.64 1231.38 1455.64C1589.83 1455.64 1880.41 1164.69 1880.48 805.733C1880.41 446.774 1589.9 155.779 1231.5 155.592ZM1231.5 1414.48C895.724 1414.48 623.513 1141.87 623.513 805.616C623.513 469.358 895.724 196.757 1231.5 196.757C1567.28 196.757 1839.49 469.358 1839.49 805.616C1839.49 805.71 1839.49 805.779 1839.49 805.873V805.849C1839.21 1141.92 1567.14 1414.27 1231.52 1414.34L1231.5 1414.48Z" fill="#E60A14"></path> <path d="M1392.23 692.529H1210.27V733.834H1242.17V877.306H1209.9V918.843H1391.86C1526.98 918.843 1528.68 692.529 1392.23 692.529Z" fill="#0050AA"></path> <path d="M1366.63 848.015H1357.54V762.985H1365.19C1405.11 762.985 1405.08 848.015 1366.63 848.015Z" fill="#FFF000"></path> </svg> 