<?xml version="1.0" encoding="UTF-8"?> <svg xmlns="http://www.w3.org/2000/svg" width="2371" height="1807" viewBox="0 0 2371 1807" fill="none"> <path d="M540 527.152H1839.21V1053.59H540V527.152Z" fill="#005EB8"></path> <path d="M666.99 577.953H808.311L894.941 871.837H896.256L955.676 577.953H1062.42L972.632 1001.74H831.974L743.37 708.51H742.185L683.424 1001.74H576.679L666.99 577.953ZM1104.09 577.953H1217.54L1184.15 740.097H1318.24L1351.63 577.953H1465.08L1377.14 1001.74H1263.03L1300.63 820.249H1167.19L1129.6 1001.74H1016.28L1104.09 577.953ZM1763.36 673.899C1734.29 660.497 1702.56 653.838 1670.55 654.42C1625.72 654.42 1589.31 661.131 1589.31 695.086C1589.31 755.234 1753.64 732.727 1753.64 861.441C1753.64 978.574 1645.05 1008.98 1546.85 1008.98C1502.22 1007.94 1457.96 1000.58 1415.39 987.127L1441.68 900.924C1464.16 915.535 1508.99 925.274 1545.93 925.274C1582.87 925.274 1636.24 918.56 1636.24 874.866C1636.24 806.825 1471.92 832.354 1471.92 712.722C1471.92 603.486 1567.75 570.583 1660.56 570.583C1713.15 570.583 1761.79 576.111 1790.31 589.402L1763.36 673.899Z" fill="white"></path> </svg> 