<?xml version="1.0" encoding="UTF-8"?> <svg xmlns="http://www.w3.org/2000/svg" width="2371" height="1816" viewBox="0 0 2371 1816" fill="none"> <path d="M1186 1489.05C1563.78 1489.05 1870.04 1183.01 1870.04 805.5C1870.04 427.986 1563.78 121.95 1186 121.95C808.215 121.95 501.96 427.986 501.96 805.5C501.96 1183.01 808.215 1489.05 1186 1489.05Z" fill="#0032A0"></path> <path d="M874.078 686.144H815.446V810.494C764.073 764.459 712.812 718.424 660.183 672.473V924.856H718.815V800.506C767.73 843.89 820.248 892.576 874.106 938.527L874.078 686.144ZM1004.1 924.772H945.469V686.144H1004.1V924.772ZM1156.07 938.443C1114.52 860.323 1072.92 770.569 1031.38 686.06H1097.38L1156.01 815.349L1212.47 686.06H1277.13C1236.87 770.792 1196.5 860.212 1156.15 938.527L1156.07 938.443ZM1462.55 738.289H1363.32V779.469H1462.66V831.531H1363.32V872.46H1462.66V924.521H1304.63V685.976H1462.66L1462.55 738.289ZM1611.53 672.473C1571.18 752.043 1530.84 837.836 1490.5 924.856H1551.75L1563.95 896.259H1659.47L1671.72 924.856H1735.19C1693.36 837.836 1651.82 750.816 1611.53 672.473ZM1581.12 851.479L1611.53 782.064L1640.9 851.479H1581.12Z" fill="white"></path> </svg> 