<?xml version="1.0" encoding="UTF-8"?> <svg xmlns="http://www.w3.org/2000/svg" width="2371" height="1816" viewBox="0 0 2371 1816" fill="none"> <g clip-path="url(#clip0_6_212)"> <path fill-rule="evenodd" clip-rule="evenodd" d="M365 -15H2008V1628H365V-15Z" fill="white"></path> <path fill-rule="evenodd" clip-rule="evenodd" d="M1186.78 123.579C1562.81 123.579 1869.42 430.211 1869.42 806.781C1869.42 1182.23 1562.8 1489.43 1186.78 1489.43C810.765 1489.43 503.578 1182.23 503.578 806.781C503.57 430.203 810.765 123.579 1186.78 123.579Z" fill="#295CA7"></path> <path fill-rule="evenodd" clip-rule="evenodd" d="M1186.78 210.308C1514.67 210.308 1782.71 478.328 1782.71 806.79C1782.71 1134.69 1514.68 1402.15 1186.78 1402.15C858.883 1402.15 590.871 1134.68 590.871 806.781C590.871 478.328 858.883 210.308 1186.78 210.308ZM787.82 486.161L1001.57 1040.67L1079.9 838.114H1285.26L1363.58 1040.67L1579.57 479.444C1541.46 433.462 1495.64 394.462 1444.16 364.187L1294.21 777.127H1082.69L932.187 362.499C876.791 394.395 828.112 436.366 787.82 486.161ZM1665.76 625.49L1422.34 1260.58C1585.74 1174.96 1698.2 1003.75 1698.2 806.79C1698.2 742.998 1687.01 682.002 1665.76 625.49ZM1316.03 1301.98L1314.37 1289.1L1182.3 946.664L1050.25 1289.1L1049.69 1299.74C1093.34 1312.04 1139.22 1318.21 1186.78 1318.21C1231.54 1318.21 1274.63 1312.61 1316.03 1301.98ZM941.137 1254.98L703.896 636.682C684.871 689.836 674.796 746.911 674.796 806.781C674.796 999.264 782.229 1168.24 941.137 1254.98ZM1186.78 294.795C1231.54 294.795 1275.74 300.395 1317.72 311.578L1188.46 669.132L1058.64 311.024C1100.49 300.196 1143.55 294.742 1186.78 294.795Z" fill="white"></path> </g> <defs> <clipPath id="clip0_6_212"> <rect width="2371" height="1816" fill="white"></rect> </clipPath> </defs> </svg> 