<?xml version="1.0" encoding="UTF-8"?> <!-- Generator: Adobe Illustrator 26.3.1, SVG Export Plug-In . SVG Version: 6.00 Build 0) --> <svg xmlns="http://www.w3.org/2000/svg" xmlns:xlink="http://www.w3.org/1999/xlink" id="Guides" x="0px" y="0px" viewBox="0 0 60 60" style="enable-background:new 0 0 60 60;" xml:space="preserve"> <style type="text/css"> .st0{enable-background:new ;} .st1{fill:#FFFFFF;} .st2{fill:url(#SVGID_1_);} </style> <circle cx="30" cy="30" r="30"></circle> <g> <g class="st0"> <path class="st1" d="M12.5,29L12.5,29c0-5.6,3.2-9.1,8.4-9.1c4.3,0,7.5,2.8,7.8,6.6v0.2h-4.2l0-0.1c-0.3-1.8-1.6-3.1-3.5-3.1 c-2.4,0-3.9,2.1-3.9,5.4v0c0,3.4,1.5,5.5,3.9,5.5c1.9,0,3.2-1.2,3.5-3l0-0.1h4.2v0.2c-0.3,3.9-3.3,6.5-7.8,6.5 C15.6,38.1,12.5,34.6,12.5,29z"></path> </g> <g class="st0"> <path class="st1" d="M29.1,20.4h5L37.3,33h0.2l3.1-12.6h5l-5.4,17.3h-5.7L29.1,20.4z"></path> </g> </g> </svg> 